<svg aria-hidden="true" style="position:absolute;width:0;height:0;overflow:hidden" xmlns="http://www.w3.org/2000/svg">
  <defs>
    <symbol id="icon-menu_open" viewBox="0 0 32 32">
      <path d="M6.4 11.733v-2.133h19.2v2.133h-19.2zM6.4 17.067h19.2v-2.133h-19.2v2.133zM6.4 22.4h19.2v-2.133h-19.2v2.133z"></path>
    </symbol>
    <symbol id="icon-menu_close" viewBox="0 0 32 32">
      <path d="M23.733 10.304l-1.504-1.504-5.963 5.963-5.963-5.963-1.504 1.504 5.963 5.963-5.963 5.963 1.504 1.504 5.963-5.963 5.963 5.963 1.504-1.504-5.963-5.963 5.963-5.963z"></path>
    </symbol>
  <symbol id="icon-avatar" viewBox="0 0 32 32">
      <path d="M15.624 0c-8.659 0-15.624 6.965-15.624 15.624s6.965 15.624 15.624 15.624c8.659 0 15.624-6.965 15.624-15.624s-7.059-15.624-15.624-15.624zM15.529 6.306c2.165 0 3.859 1.788 3.859 3.859s-1.694 3.953-3.859 3.953c-2.165 0-3.859-1.788-3.859-3.859s1.694-3.953 3.859-3.953zM20.8 24.847h-10.635c-1.035 0-1.882-0.847-1.882-1.882 0-3.953 3.2-7.247 7.247-7.247s7.247 3.2 7.247 7.247c0 1.035-0.847 1.882-1.976 1.882z"></path>
  </symbol>
  </defs>
</svg>
