<svg width="14" height="7" viewBox="0 0 14 7" fill="none" xmlns="http://www.w3.org/2000/svg">
<path d="M13.3994 0.699501C13.3998 0.770788 13.3862 0.841455 13.3592 0.907451C13.3322 0.973446 13.2925 1.03347 13.2422 1.08408L8.81375 5.5095C8.56199 5.76172 8.26292 5.96183 7.93365 6.09836C7.60439 6.2349 7.2514 6.30518 6.89492 6.30518C6.53843 6.30518 6.18544 6.2349 5.85618 6.09836C5.52691 5.96183 5.22784 5.76172 4.97608 5.5095L0.547594 1.08408C0.497055 1.03358 0.456965 0.973622 0.429613 0.907636C0.402261 0.841649 0.388184 0.770925 0.388184 0.699501C0.388184 0.628077 0.402261 0.557353 0.429613 0.491366C0.456965 0.425379 0.497055 0.365422 0.547594 0.314918C0.598133 0.264414 0.658132 0.224351 0.724165 0.197018C0.790197 0.169686 0.860971 0.155618 0.932444 0.155618C1.00392 0.155618 1.07469 0.169686 1.14072 0.197018C1.20676 0.224351 1.26676 0.264414 1.31729 0.314918L5.74578 4.74033C6.05068 5.04464 6.46399 5.21557 6.89492 5.21557C7.32584 5.21557 7.73915 5.04464 8.04405 4.74033L12.4725 0.314918C12.5229 0.264148 12.5829 0.223851 12.6489 0.196351C12.715 0.168851 12.7858 0.154693 12.8574 0.154693C12.9289 0.154693 12.9998 0.168851 13.0658 0.196351C13.1319 0.223851 13.1918 0.264148 13.2422 0.314918C13.2925 0.365531 13.3322 0.425556 13.3592 0.491551C13.3862 0.557546 13.3998 0.628214 13.3994 0.699501Z" fill="#202124"/>
</svg>
