<svg width="774" height="416" viewBox="0 0 774 416" fill="none" xmlns="http://www.w3.org/2000/svg">
<path d="M772.353 385.414C774.865 385.414 769.37 315.95 768.58 309.82C765.24 283.077 759.136 256.837 750.386 231.606C734.077 185.377 708.918 148.944 669.523 133.414C636.215 120.288 599.201 126.37 568.251 145.915C538.979 164.438 516.803 195.473 489.988 218.528C472.765 233.102 453.207 244.015 432.322 250.706C393.484 263.043 352.219 262.805 313.501 250.02C252.337 229.274 202.095 174.619 129.886 187.865C126.804 188.43 123.755 189.067 120.739 189.896C72.0774 202.661 51.1188 237.976 33.6807 275.395C17.2626 310.59 6.75588 348.008 0 385.414H772.353Z" fill="#C0D76F"/>
<path d="M384.954 52.119H384.822C380.751 52.8043 376.601 52.678 372.572 51.7463C368.764 50.8481 365.052 49.5188 361.495 47.7797C358.018 46.1089 354.706 44.1737 351.492 42.3467L341.929 36.6492C335.645 32.971 329.305 29.6896 322.67 28.3553C316.022 27.0338 309.167 27.8435 302.929 30.6872C296.598 33.5104 291.174 38.3297 287.344 44.5343C283.491 50.7836 281.314 58.092 281.06 65.6295C281.06 65.93 281.06 66.2185 281.06 66.507C281.06 70.0048 281.565 73.6349 281.707 77.5053C281.861 81.6162 281.433 86.1477 279.086 89.9341C277.915 91.8575 276.235 93.3423 274.271 94.1892C272.267 95.092 270.025 95.1264 267.998 94.2853C266.947 93.836 266.029 93.0793 265.344 92.0977C264.681 91.1474 264.22 90.0468 263.995 88.8763C263.761 87.6826 263.799 86.4442 264.105 85.2703C264.412 84.051 265.084 82.9802 266.013 82.2292C266.245 82.0504 266.53 81.9768 266.811 82.0239C267.091 82.0709 267.343 82.235 267.515 82.4816C267.673 82.7323 267.738 83.0392 267.698 83.3404C267.657 83.6416 267.513 83.9146 267.296 84.1043C266.786 84.622 266.421 85.2875 266.242 86.0237C266.064 86.7598 266.079 87.5364 266.287 88.2633C266.428 89.0292 266.743 89.7436 267.203 90.3404C267.664 90.9371 268.254 91.3969 268.919 91.677C270.362 92.1912 271.93 92.0882 273.306 91.3885C274.727 90.7127 275.925 89.5759 276.739 88.1311C278.428 85.1982 278.768 81.3878 278.494 77.6496C278.22 73.9113 277.474 69.8846 277.474 65.6295C277.462 57.2117 279.629 48.9629 283.725 41.8418C285.775 38.2447 288.303 35.0035 291.227 32.2258C295.662 28.0641 300.859 24.9898 306.467 23.209C312.075 21.4282 317.966 20.9821 323.745 21.9006C331.477 23.1627 338.518 26.5523 345.087 30.0982L354.815 35.4111C358.051 37.154 361.242 38.8128 364.467 40.2191C367.531 41.6366 370.721 42.7001 373.986 43.3924C377.087 44.006 380.263 44.006 383.363 43.3924H383.429C383.954 43.2731 384.496 43.2687 385.022 43.3796C385.549 43.4904 386.05 43.7142 386.498 44.0381C386.945 44.3621 387.33 44.7798 387.63 45.2672C387.929 45.7546 388.138 46.3021 388.244 46.8782V46.9624C388.337 47.5378 388.326 48.1276 388.211 48.6982C388.096 49.2689 387.879 49.8091 387.574 50.288C387.268 50.7669 386.88 51.1751 386.43 51.4892C385.98 51.8034 385.479 52.0174 384.954 52.119V52.119Z" fill="#142216"/>
<g style="mix-blend-mode:multiply">
<path d="M384.954 52.119H384.822C380.751 52.8043 376.601 52.678 372.572 51.7463C368.764 50.8481 365.052 49.5187 361.495 47.7797C358.018 46.1089 354.706 44.1737 351.492 42.3467L341.929 36.6492C335.645 32.971 329.305 29.6895 322.67 28.3553C316.022 27.0337 309.167 27.8435 302.929 30.6872C296.598 33.5104 291.174 38.3297 287.344 44.5343C283.491 50.7836 281.314 58.092 281.06 65.6295C281.146 56.3273 283.85 47.2809 288.803 39.7263C294.145 31.6989 302.169 26.3147 311.122 24.7493C320.378 23.3189 329.766 26.4922 338.2 30.8194C346.634 35.1466 354.651 40.6398 363.359 44.3059C371.266 47.6114 380.139 49.3303 388.255 46.9744C388.44 48.1364 388.195 49.3312 387.576 50.296C386.957 51.2608 386.014 51.9165 384.954 52.119V52.119Z" fill="#BFD4EA"/>
</g>
<path d="M383.265 52.119H383.396C387.467 52.8043 391.617 52.678 395.647 51.7463C399.454 50.8481 403.167 49.5187 406.724 47.7797C410.2 46.1089 413.513 44.1737 416.726 42.3467L426.289 36.6491C432.574 32.971 438.913 29.6895 445.548 28.3553C452.196 27.0337 459.051 27.8434 465.289 30.6872C471.625 33.4999 477.057 38.3108 480.896 44.5103C484.749 50.7595 486.927 58.068 487.18 65.6055C487.18 65.906 487.18 66.1944 487.18 66.4829C487.18 69.9808 486.676 73.6108 486.533 77.4813C486.38 81.5921 486.807 86.1237 489.154 89.91C490.324 91.8305 491.999 93.3148 493.958 94.1651C495.966 95.0687 498.212 95.1031 500.242 94.2613C501.293 93.8119 502.211 93.0552 502.896 92.0736C503.559 91.1234 504.02 90.0228 504.245 88.8522C504.479 87.6586 504.442 86.4202 504.136 85.2462C503.838 84.0634 503.195 83.0204 502.304 82.2773C502.073 82.1021 501.79 82.0306 501.512 82.0776C501.235 82.1245 500.984 82.2864 500.813 82.5297C500.655 82.7803 500.59 83.0872 500.63 83.3884C500.671 83.6896 500.815 83.9627 501.032 84.1524C501.542 84.6701 501.907 85.3356 502.086 86.0718C502.264 86.8079 502.249 87.5845 502.041 88.3113C501.898 89.0764 501.582 89.7898 501.122 90.3863C500.662 90.9827 500.073 91.443 499.409 91.725C497.965 92.2357 496.399 92.1327 495.022 91.4366C493.604 90.7601 492.41 89.6231 491.6 88.1791C489.911 85.2462 489.571 81.4359 489.845 77.6976C490.119 73.9594 490.865 69.9327 490.865 65.6776C490.871 57.2608 488.704 49.0139 484.614 41.8899C482.564 38.2927 480.036 35.0516 477.112 32.2738C472.676 28.1121 467.48 25.0378 461.872 23.2571C456.263 21.4763 450.373 21.0302 444.594 21.9486C436.862 23.2107 429.821 26.6004 423.252 30.1463L413.523 35.4592C410.288 37.2021 407.097 38.8608 403.872 40.2672C400.763 41.6614 397.528 42.6928 394.221 43.3443C391.12 43.9579 387.944 43.9579 384.844 43.3443H384.778C383.721 43.1258 382.628 43.3749 381.738 44.0371C380.848 44.6993 380.234 45.7208 380.029 46.8782C380.029 46.8782 380.029 46.9383 380.029 46.9624C379.846 48.1149 380.082 49.3003 380.687 50.2644C381.291 51.2284 382.217 51.8942 383.265 52.119Z" fill="#142216"/>
<g style="mix-blend-mode:multiply">
<path d="M383.265 52.119H383.396C387.467 52.8043 391.617 52.678 395.647 51.7463C399.455 50.8481 403.167 49.5187 406.724 47.7797C410.201 46.1089 413.513 44.1737 416.726 42.3467L426.29 36.6491C432.574 32.971 438.913 29.6895 445.548 28.3553C452.196 27.0337 459.051 27.8434 465.29 30.6872C471.626 33.4999 477.057 38.3108 480.896 44.5103C484.75 50.7595 486.927 58.068 487.18 65.6055C487.095 56.3032 484.391 47.2568 479.437 39.7022C474.095 31.6749 466.071 26.2906 457.119 24.7253C447.862 23.2949 438.474 26.4682 430.041 30.7954C421.607 35.1226 413.59 40.6158 404.881 44.2819C397.018 47.6114 388.145 49.2822 380.018 46.9744C379.838 48.1268 380.077 49.3107 380.684 50.2723C381.291 51.234 382.217 51.8969 383.265 52.119V52.119Z" fill="#BFD4EA"/>
</g>
<path d="M379.372 252.012H378.933C350.813 252.012 376.136 135.418 376.136 135.418H376.926L381.422 45.9166H386.051V135.466C386.051 135.466 406.823 250.81 379.372 252.012Z" fill="#142216"/>
<g style="mix-blend-mode:multiply">
<path d="M379.372 252.012C385.184 234.812 387.29 216.169 387.191 197.754C387.124 176.548 385.602 155.377 382.64 134.42L384.131 47.7556H386.051V135.502C386.051 135.502 406.823 250.81 379.372 252.012Z" fill="#BFD4EA"/>
</g>
<path d="M381.532 146.681C388.982 146.681 395.022 140.061 395.022 131.896C395.022 123.731 388.982 117.111 381.532 117.111C374.082 117.111 368.042 123.731 368.042 131.896C368.042 140.061 374.082 146.681 381.532 146.681Z" fill="#D97C2F"/>
<g style="mix-blend-mode:multiply">
<path d="M395.022 131.896C395.025 135.12 394.065 138.257 392.29 140.828C390.514 143.399 388.02 145.262 385.187 146.134C382.355 147.006 379.34 146.838 376.603 145.656C373.866 144.474 371.556 142.344 370.027 139.589C372.137 141.014 374.568 141.763 377.046 141.752C379.441 141.752 381.792 141.052 383.859 139.726C385.925 138.4 387.632 136.495 388.805 134.206C389.977 131.918 390.573 129.329 390.53 126.705C390.487 124.081 389.808 121.516 388.562 119.275C390.536 120.596 392.166 122.45 393.297 124.66C394.428 126.87 395.022 129.362 395.022 131.896V131.896Z" fill="#BFD4EA"/>
</g>
<path d="M385.919 104.442L377.65 104.647C373.197 104.755 373.175 112.363 377.65 112.255L385.919 112.051C390.372 111.931 390.437 104.334 385.919 104.442Z" fill="#D97C2F"/>
<path d="M384.131 58.754C389.674 58.754 394.166 53.8299 394.166 47.7557C394.166 41.6815 389.674 36.7573 384.131 36.7573C378.589 36.7573 374.096 41.6815 374.096 47.7557C374.096 53.8299 378.589 58.754 384.131 58.754Z" fill="#D97C2F"/>
<path d="M384.131 55.2922C382.782 55.2922 381.463 54.8538 380.341 54.0322C379.22 53.2107 378.345 52.043 377.829 50.6769C377.313 49.3107 377.177 47.8075 377.441 46.3572C377.704 44.9069 378.354 43.5747 379.308 42.5291C380.262 41.4835 381.477 40.7714 382.8 40.483C384.124 40.1945 385.495 40.3425 386.742 40.9084C387.988 41.4743 389.054 42.4326 389.803 43.6621C390.553 44.8916 390.953 46.3371 390.953 47.8158C390.95 49.7977 390.23 51.6975 388.952 53.0989C387.673 54.5003 385.94 55.2891 384.131 55.2922V55.2922ZM384.131 42.5029C383.173 42.5029 382.235 42.8145 381.438 43.3983C380.641 43.9821 380.02 44.8118 379.653 45.7826C379.286 46.7534 379.19 47.8217 379.377 48.8523C379.564 49.8829 380.026 50.8295 380.704 51.5725C381.381 52.3155 382.245 52.8216 383.186 53.0265C384.126 53.2315 385.101 53.1263 385.986 52.7242C386.872 52.3221 387.629 51.6411 388.162 50.7674C388.695 49.8937 388.979 48.8666 388.979 47.8158C388.985 47.1135 388.864 46.4169 388.623 45.766C388.382 45.1152 388.026 44.5231 387.575 44.0237C387.125 43.5242 386.588 43.1275 385.997 42.8562C385.406 42.5848 384.772 42.4444 384.131 42.4428V42.5029Z" fill="#142216"/>
<path d="M431.598 263.744V285.753L412.098 284.683L328.911 280.127L329.097 277.026L329.712 266.509L330.545 252.469C330.545 252.469 384.022 235.329 426.893 260.763C428.472 261.693 430.041 262.686 431.598 263.744Z" fill="#D97C2F"/>
<path d="M431.598 269.153V285.753L328.911 280.127L329.712 266.509C347.007 267.134 407.744 268.588 431.598 269.153Z" fill="#FFB549"/>
<path d="M454.41 304.696L340.613 306.367L310.88 306.812L312.822 276.533L329.097 277.026L418.042 279.659L431.598 280.067L450.846 280.632L454.41 304.696Z" fill="#142216"/>
<g style="mix-blend-mode:multiply">
<path d="M454.41 304.696L340.613 306.367L339.9 304.312C339.9 304.312 388.694 300.994 412.098 284.683C414.228 283.231 416.22 281.548 418.042 279.659C422.429 275.055 425.204 268.372 426.893 260.763C428.472 261.693 430.04 262.686 431.598 263.744V280.067L450.846 280.632L454.41 304.696Z" fill="#BFD4EA"/>
</g>
<path d="M219.873 159.374C219.635 159.376 219.405 159.282 219.226 159.109C219.127 159.017 219.046 158.904 218.987 158.778C218.928 158.651 218.893 158.513 218.882 158.371C218.872 158.229 218.888 158.087 218.928 157.951C218.968 157.816 219.032 157.691 219.116 157.583L270.948 91.2322C271.039 91.1151 271.151 91.0203 271.278 90.954C271.405 90.8877 271.543 90.8515 271.683 90.8476V90.8476C271.822 90.8469 271.959 90.8788 272.086 90.941C272.213 91.0032 272.326 91.0942 272.418 91.2082L326.827 157.559C327.002 157.775 327.092 158.057 327.077 158.345C327.063 158.634 326.945 158.904 326.75 159.097C326.555 159.289 326.299 159.387 326.038 159.371C325.776 159.355 325.532 159.227 325.357 159.013L271.716 93.5761L220.619 158.989C220.527 159.108 220.413 159.205 220.284 159.271C220.156 159.337 220.015 159.372 219.873 159.374V159.374Z" fill="#142216"/>
<path d="M249.979 157.595C249.82 157.592 249.664 157.547 249.524 157.465C249.384 157.383 249.264 157.265 249.174 157.122C249.083 156.978 249.026 156.813 249.006 156.64C248.985 156.468 249.003 156.292 249.057 156.128L270.773 91.5567C270.817 91.4236 270.884 91.3014 270.972 91.1972C271.059 91.0929 271.165 91.0087 271.282 90.9495C271.399 90.8902 271.526 90.8571 271.655 90.852C271.784 90.8468 271.913 90.8699 272.034 90.9197C272.157 90.968 272.27 91.0425 272.366 91.1389C272.462 91.2353 272.54 91.3517 272.595 91.4814C272.651 91.6111 272.682 91.7514 272.687 91.8943C272.692 92.0373 272.671 92.1799 272.626 92.314L250.911 156.874C250.843 157.085 250.716 157.268 250.549 157.397C250.382 157.526 250.183 157.595 249.979 157.595V157.595Z" fill="#142216"/>
<path d="M278.285 204.341C276.728 204.437 275.116 204.485 273.46 204.485H272.692C269.241 204.485 265.994 204.329 262.953 204.016C214.587 199.112 216.736 157.655 216.736 157.655C216.736 157.655 223.438 156.585 234.12 155.467C237.86 155.083 242.082 154.674 246.677 154.325C264.554 152.943 288.013 152.174 310.101 154.65C316.441 155.371 322.681 156.345 328.636 157.655C328.636 157.631 330.918 201.42 278.285 204.341Z" fill="#EA9B1C"/>
<g style="mix-blend-mode:multiply">
<path d="M273.898 204.341C304.135 195.723 306.373 170.504 305.704 154.662C312.043 155.383 318.272 156.357 324.228 157.667C324.25 157.631 326.531 201.42 273.898 204.341Z" fill="#DBC8AA"/>
</g>
<g style="mix-blend-mode:soft-light">
<path d="M269.084 204.449H268.305C264.854 204.449 261.608 204.293 258.566 203.98C249.335 200.866 241.394 194.302 236.125 185.43C230.857 176.559 228.595 165.943 229.733 155.431C233.473 155.047 237.706 154.638 242.302 154.289C240.487 164.727 242.12 175.533 246.908 184.772C251.84 194.098 259.735 201.103 269.084 204.449V204.449Z" fill="white"/>
</g>
<path d="M445.077 159.374C444.839 159.376 444.608 159.282 444.43 159.109C444.331 159.017 444.25 158.904 444.191 158.778C444.132 158.651 444.096 158.513 444.086 158.371C444.076 158.229 444.091 158.087 444.131 157.951C444.172 157.816 444.236 157.691 444.32 157.583L496.141 91.2322C496.234 91.1148 496.348 91.0199 496.477 90.9536C496.605 90.8874 496.745 90.8513 496.887 90.8476V90.8476C497.025 90.8469 497.163 90.8788 497.289 90.941C497.416 91.0032 497.529 91.0942 497.621 91.2082L551.986 157.559C552.161 157.775 552.252 158.057 552.237 158.345C552.223 158.634 552.105 158.904 551.91 159.097C551.715 159.289 551.458 159.387 551.197 159.371C550.936 159.355 550.691 159.227 550.517 159.013L496.919 93.5761L445.823 158.989C445.731 159.108 445.617 159.205 445.488 159.271C445.359 159.337 445.219 159.372 445.077 159.374V159.374Z" fill="#142216"/>
<path d="M475.193 157.595C475.033 157.594 474.876 157.551 474.734 157.469C474.593 157.388 474.471 157.27 474.38 157.126C474.289 156.983 474.23 156.817 474.209 156.643C474.189 156.47 474.206 156.293 474.261 156.128L495.965 91.5567C496.072 91.3096 496.259 91.1153 496.491 91.0122C496.722 90.9091 496.98 90.9046 497.214 90.9997C497.448 91.0947 497.641 91.2824 497.755 91.5257C497.869 91.7689 497.895 92.0502 497.829 92.314L476.114 156.874C476.047 157.083 475.922 157.264 475.757 157.393C475.592 157.522 475.395 157.593 475.193 157.595Z" fill="#142216"/>
<path d="M503.763 204.341C502.206 204.437 500.594 204.485 498.938 204.485H498.17C494.712 204.485 491.465 204.329 488.431 204.016C440.065 199.112 442.215 157.655 442.215 157.655C442.215 157.655 448.916 156.585 459.598 155.467C463.327 155.083 467.56 154.674 472.155 154.325C490.032 152.943 513.491 152.174 535.58 154.65C541.919 155.371 548.159 156.345 554.103 157.655C554.103 157.631 556.396 201.42 503.763 204.341Z" fill="#EA9B1C"/>
<g style="mix-blend-mode:multiply">
<path d="M503.763 204.341C534 195.723 536.226 170.504 535.568 154.662C541.907 155.383 548.148 156.357 554.092 157.667C554.103 157.631 556.395 201.42 503.763 204.341Z" fill="#DBC8AA"/>
</g>
<g style="mix-blend-mode:soft-light">
<path d="M498.937 204.449H498.169C494.711 204.449 491.465 204.293 488.43 203.98C479.197 200.87 471.253 194.307 465.984 185.434C460.715 176.562 458.454 165.943 459.597 155.431C463.326 155.047 467.559 154.638 472.155 154.289C470.351 164.728 471.983 175.529 476.761 184.772C481.696 194.095 489.59 201.099 498.937 204.449V204.449Z" fill="white"/>
</g>
<path d="M387.41 305.406L378.428 358.294L343.881 357.524L337.893 357.38L296.447 356.443C296.349 356.262 296.261 356.082 296.173 355.902C287.728 339.755 287.82 323.616 296.447 307.485L336.27 306.584L342.104 306.439L352.534 306.211L387.41 305.406Z" fill="#BD4A2C"/>
<path d="M310.047 307.16C310.047 307.16 294.517 328.688 310.047 356.731L325.851 357.092C325.851 357.092 311.418 336.285 325.851 306.812L310.047 307.16Z" fill="#8A2C08"/>
<path d="M343.881 357.512L337.893 357.368C333.714 349.747 331.373 341.086 331.089 332.2C330.805 323.314 332.588 314.495 336.27 306.571L342.104 306.427C337.857 314.217 335.764 323.191 336.08 332.259C336.395 341.327 339.105 350.1 343.881 357.512V357.512Z" fill="#F7EEDF"/>
<g style="mix-blend-mode:multiply">
<path d="M387.41 305.406L378.428 358.294L343.881 357.524L337.893 357.38L296.447 356.443C296.349 356.262 296.261 356.082 296.173 355.902C309.234 355.517 321.819 350.448 331.999 341.473C342.18 332.497 349.393 320.11 352.534 306.211L387.41 305.406Z" fill="#BFD4EA"/>
</g>
<path d="M410.288 349.231L411.385 312.846H454.421V303.891L362.164 305.982C358.134 313.925 356.019 322.864 356.019 331.952C356.019 341.04 358.134 349.978 362.164 357.921L454.421 360.013V350.397L410.288 349.231Z" fill="#DB5633"/>
<path d="M443.585 333.484C443.903 339.157 444.887 344.76 446.513 350.156L365.355 348.065C363.012 343.166 361.732 337.74 361.615 332.21C361.476 325.525 362.757 318.896 365.355 312.846H446.513C444.044 319.369 443.04 326.447 443.585 333.484V333.484Z" fill="white"/>
<path d="M370.795 319.12C376.271 318.936 381.755 318.856 387.246 318.88C392.73 318.88 398.213 318.964 403.697 319.072C409.181 319.181 414.664 319.373 420.148 319.613C425.632 319.854 431.115 320.178 436.544 320.611C431.06 320.787 425.577 320.867 420.093 320.851C414.609 320.851 409.126 320.755 403.642 320.647C398.158 320.539 392.675 320.346 387.191 320.094C381.707 319.842 376.257 319.541 370.795 319.12Z" fill="#7197D5"/>
<path d="M400.845 327.486C403.818 327.222 406.79 327.114 409.762 327.066C412.734 327.018 415.695 327.066 418.656 327.066C421.618 327.066 424.59 327.246 427.551 327.438C430.512 327.631 433.473 327.859 436.434 328.244C433.462 328.508 430.49 328.616 427.529 328.664C424.568 328.712 421.596 328.664 418.624 328.664C415.651 328.664 412.701 328.496 409.74 328.304C406.779 328.111 403.807 327.871 400.845 327.486Z" fill="#7197D5"/>
<path d="M390.865 341.694C393.179 341.406 395.493 341.273 397.818 341.201C400.143 341.129 402.446 341.129 404.761 341.201C407.075 341.273 409.389 341.321 411.703 341.49C414.017 341.658 416.331 341.862 418.645 342.223C416.32 342.511 414.006 342.644 411.692 342.716C409.378 342.788 407.053 342.8 404.739 342.776C402.425 342.752 400.11 342.644 397.796 342.475C395.482 342.307 393.168 342.055 390.865 341.694Z" fill="#7197D5"/>
<path d="M372.89 335.131C376.991 334.891 381.104 334.758 385.206 334.71C389.308 334.662 393.41 334.71 397.5 334.71C401.591 334.71 405.704 334.891 409.806 335.083C413.908 335.275 417.998 335.516 422.1 335.888C417.998 336.129 413.886 336.273 409.784 336.309C405.682 336.345 401.591 336.309 397.489 336.309C393.388 336.309 389.286 336.129 385.184 335.936C381.082 335.744 376.98 335.504 372.89 335.131Z" fill="#7197D5"/>
<g style="mix-blend-mode:multiply">
<path d="M446.513 350.156L365.355 348.065C363.012 343.166 361.732 337.74 361.615 332.21C388.939 333.164 416.266 333.589 443.596 333.484C443.91 339.156 444.891 344.76 446.513 350.156V350.156Z" fill="#BFD4EA"/>
</g>
<path d="M378.713 327.03H368.843C374.074 335.263 375.423 344.399 372.835 353.474C375.708 351.683 378.68 349.868 381.554 348.077C382.667 350.155 384.041 352.053 385.634 353.714C386.507 348.984 386.334 344.093 385.13 339.451C383.926 334.809 381.726 330.55 378.713 327.03V327.03Z" fill="#C12C22"/>
<path d="M480.71 357.272L384.109 354.868L285.403 352.464V356.527L323.712 358.198V381.456L285.392 382.238V386.709L386.785 385.724L480.71 384.81C486.051 375.374 485.93 366.203 480.71 357.272Z" fill="#0E537E"/>
<path d="M480.71 384.834L469.742 384.93L407.47 385.531H405.057L386.763 385.712L386.906 385.279C392.576 369.448 387.301 359.231 384.076 354.904L400.275 355.301L405.934 355.433L454.542 356.635L469.304 356.996L480.677 357.272C485.93 366.203 486.051 375.374 480.71 384.834Z" fill="#4A80BD"/>
<path d="M384.537 371.119C384.582 374.334 383.823 377.502 382.343 380.278L294.133 382.081C295.526 379.107 296.386 375.867 296.667 372.538C297.011 367.036 295.735 361.558 293.025 356.911L382.343 360.602C383.747 363.897 384.495 367.482 384.537 371.119V371.119Z" fill="white"/>
<path d="M299.957 360.998C305.148 360.822 310.339 360.746 315.53 360.77C320.718 360.77 325.906 360.854 331.093 360.95C336.281 361.046 341.468 361.239 346.656 361.467C351.843 361.695 357.031 361.996 362.218 362.405C357.02 362.581 351.825 362.657 346.634 362.633C341.446 362.633 336.259 362.549 331.071 362.453C325.884 362.357 320.696 362.164 315.508 361.924C310.321 361.683 305.133 361.395 299.957 360.998Z" fill="#7197D5"/>
<path d="M344.44 368.138C347.259 367.886 350.067 367.79 352.885 367.741C355.704 367.693 358.512 367.741 361.33 367.741C364.149 367.741 366.956 367.91 369.764 368.09C372.572 368.27 375.379 368.487 378.187 368.859C375.368 369.112 372.561 369.208 369.742 369.256C366.923 369.304 364.116 369.256 361.297 369.256C358.479 369.256 355.671 369.088 352.863 368.907C350.056 368.727 347.248 368.499 344.44 368.138Z" fill="#7197D5"/>
<path d="M303.302 374.569C307.195 374.341 311.078 374.208 314.971 374.172C318.865 374.136 322.758 374.172 326.641 374.172C330.523 374.172 334.427 374.341 338.31 374.521C342.192 374.701 346.086 374.942 349.979 375.29C346.075 375.519 342.192 375.651 338.299 375.687C334.405 375.723 330.512 375.687 326.63 375.687C322.747 375.687 318.843 375.519 314.96 375.338C311.078 375.158 307.184 374.918 303.302 374.569Z" fill="#7197D5"/>
<path d="M469.775 384.93L407.503 385.531C412.855 372.97 408.534 360.842 405.967 355.481L469.337 356.996C474.239 367.597 471.596 379.269 469.775 384.93Z" fill="#0E537E"/>
<path d="M441.381 375.35C453.871 375.35 463.995 373.176 463.995 370.494C463.995 367.812 453.871 365.638 441.381 365.638C428.891 365.638 418.766 367.812 418.766 370.494C418.766 373.176 428.891 375.35 441.381 375.35Z" fill="#25669C"/>
<g style="mix-blend-mode:multiply">
<path d="M384.537 371.119C384.582 374.334 383.823 377.502 382.343 380.278L294.133 382.081C295.526 379.107 296.386 375.867 296.667 372.538C325.957 372.714 355.247 372.241 384.537 371.119Z" fill="#BFD4EA"/>
</g>
<g style="mix-blend-mode:multiply">
<path d="M480.709 384.834L469.742 384.93L407.47 385.531H405.057L386.763 385.712L386.906 385.279C390.23 383.54 393.278 381.227 395.932 378.427C394.957 370.396 396.504 362.241 400.319 355.301L405.978 355.433L454.585 356.635L469.347 356.996L480.72 357.272C485.93 366.203 486.051 375.374 480.709 384.834Z" fill="#BFD4EA"/>
</g>
<path d="M371.31 365.638H376.114C376.34 368.204 376.083 370.793 375.358 373.245C374.634 375.697 373.458 377.96 371.903 379.894C370.334 381.794 368.418 383.312 366.279 384.347C364.14 385.383 361.826 385.913 359.487 385.904C360.014 384.461 360.398 383.271 360.924 381.829C358.433 382.215 355.913 382.332 353.401 382.178C357.537 381.401 361.501 379.769 365.081 377.37C366.857 376.053 368.34 374.315 369.419 372.284C370.497 370.253 371.144 367.981 371.31 365.638V365.638Z" fill="#FFB549"/>
<path d="M646.634 375.458C647.325 376.48 649.08 376.66 652.59 375.579C665.708 371.713 678.442 366.422 690.602 359.784L692.917 358.498C694.364 357.669 695.801 356.839 697.238 355.974C707.082 350.118 716.462 343.371 725.281 335.804L727.694 333.701C728.242 333.22 728.791 332.727 729.35 332.222C739.005 323.555 747.529 313.476 754.685 302.268C755.178 301.463 755.672 300.646 756.143 299.864C761.627 290.441 765.542 280.272 766.014 270.199C766.014 269.502 766.014 268.792 766.014 268.095C766.069 261.42 764.37 254.869 761.12 249.223C757.871 243.577 753.208 239.075 747.687 236.254C747.172 235.978 746.657 235.701 746.119 235.449C744.923 234.865 743.7 234.347 742.456 233.898C738.347 232.41 734.06 231.6 729.734 231.494C729.164 231.494 728.637 231.494 728.012 231.494C719.483 231.741 711.162 234.439 703.884 239.319C703.346 239.656 702.787 240.016 702.283 240.389C694.407 245.99 687.783 253.463 682.903 262.254C682.816 262.386 682.75 262.53 682.673 262.662L681.741 264.393C675.402 276.413 670.773 289.178 666.913 302.28C666.595 303.35 666.277 304.444 665.97 305.526C662.12 318.832 658.863 332.379 655.002 345.613C652.962 352.741 650.758 359.82 648.203 366.756C647.325 368.846 646.645 371.029 646.174 373.271C646.064 374.038 646.229 374.822 646.634 375.458V375.458Z" fill="#3E3E15"/>
<path d="M642.434 379.245C643.849 378.043 645.242 376.732 646.634 375.458C652.286 370.298 657.803 364.977 663.184 359.496C673.103 360.095 683.05 359.762 692.917 358.498C694.364 357.669 695.801 356.839 697.238 355.974C686.544 357.652 675.731 358.227 664.939 357.693C667.023 355.541 669.096 353.378 671.146 351.178C675.533 346.474 679.785 341.666 683.901 336.754C683.901 336.754 684 336.754 684.055 336.754C688.873 336.906 693.688 336.97 698.499 336.946C707.441 336.898 716.368 336.497 725.281 335.744L727.694 333.641C713.638 334.876 699.532 335.278 685.437 334.843C692.237 326.717 698.751 318.303 704.981 309.601C705.066 309.633 705.154 309.653 705.244 309.661C709.492 309.661 713.729 309.492 717.955 309.156C730.383 308.181 742.689 305.829 754.685 302.136C755.178 301.331 755.672 300.513 756.143 299.732C753.811 300.493 751.464 301.194 749.102 301.836C735.109 305.659 720.751 307.648 706.33 307.761C709.525 303.282 712.636 298.738 715.663 294.131C717.396 291.486 719.107 288.806 720.785 286.125C720.881 286.217 720.997 286.28 721.121 286.31C721.246 286.339 721.375 286.334 721.498 286.294C725.482 285.316 729.438 284.234 733.364 283.048C744.543 279.623 755.471 275.283 766.058 270.067C766.058 269.369 766.058 268.66 766.058 267.963C764.435 268.78 762.768 269.55 761.188 270.367C748.495 276.294 735.339 280.953 721.881 284.286C731.428 268.882 740.063 252.823 747.731 236.206C747.216 235.93 746.7 235.653 746.163 235.401C741.469 245.618 736.402 255.614 730.962 265.391C730.304 266.593 729.624 267.735 728.955 268.913C729.24 256.42 729.515 243.935 729.778 231.458C729.208 231.458 728.681 231.458 728.056 231.458L727.222 270.451C727.211 270.62 727.248 270.789 727.328 270.934C727.409 271.078 727.529 271.191 727.672 271.257C722.496 280.264 717.012 289.038 711.221 297.58C710.695 293.385 710.124 289.166 709.642 284.995C707.741 269.77 705.84 254.545 703.939 239.319C703.401 239.656 702.842 240.016 702.338 240.389C702.809 244.067 703.259 247.757 703.719 251.435L709.697 299.227C709.71 299.371 709.76 299.508 709.839 299.624C705.269 306.331 700.517 312.894 695.582 319.313C694.96 314.953 694.266 310.598 693.498 306.247C690.839 291.349 687.308 276.654 682.925 262.254C682.838 262.386 682.772 262.53 682.695 262.662L681.763 264.393C682.432 266.677 683.101 268.961 683.737 271.257C688.303 287.519 691.789 304.122 694.167 320.935C694.184 320.99 694.206 321.042 694.233 321.092C693.015 322.654 691.809 324.217 690.581 325.755C685.93 331.597 681.13 337.291 676.18 342.836C673.614 329.165 670.562 315.627 667.023 302.22C666.705 303.29 666.387 304.384 666.08 305.466C669.348 318.159 672.196 330.98 674.623 343.93C674.657 344.094 674.733 344.244 674.842 344.362C670.748 348.93 666.573 353.394 662.318 357.753C662.318 357.753 662.241 357.813 662.219 357.861C657.057 363.134 651.764 368.258 646.338 373.235C644.649 374.809 642.938 376.348 641.217 377.874C640.339 378.632 641.589 380.002 642.434 379.245Z" fill="#142216"/>
<path d="M617.089 377.886L629.877 378.812L631.522 378.944L640.997 379.629C640.69 367.766 651.745 358.258 660.245 350.913C667.922 344.218 676.312 335.756 677.036 325.371C677.069 324.73 677.069 324.088 677.036 323.448C677.036 323.039 677.014 322.638 676.97 322.246C676.674 318.519 675.347 314.949 675.205 311.211C674.865 301.92 681.785 294.383 688.464 288.698C693.696 284.262 699.431 279.683 702.722 273.588C703.157 272.775 703.545 271.931 703.884 271.064C704.266 270.092 704.574 269.087 704.805 268.059C707.438 256.52 699.936 244.764 698.872 233.201C698.872 232.552 698.773 231.891 698.762 231.23C698.696 229.113 698.925 226.997 699.442 224.955C701.329 217.647 707.12 212.274 709.609 205.206C711.386 200.218 711.397 194.881 710.816 189.508C710.75 188.835 710.673 188.174 710.574 187.513C710.201 184.568 709.675 181.611 709.214 178.714C707.81 169.891 707.262 159.915 712.329 152.895C714.884 149.289 718.602 146.993 721.267 143.556C723.933 140.118 725.336 134.625 722.616 131.235C722.219 130.764 721.761 130.359 721.256 130.033C720.72 129.673 720.141 129.398 719.535 129.216C716.982 128.613 714.328 128.784 711.857 129.708C703.195 132.572 695.567 138.334 690.043 146.188C689.594 146.825 689.144 147.486 688.727 148.159C686.802 151.171 685.218 154.428 684.011 157.859C681.379 165.36 680.491 173.63 676.861 180.613C674.741 184.385 672.211 187.86 669.326 190.963C668.876 191.491 668.405 192.008 667.944 192.537C662.537 198.691 657.152 204.702 656.429 212.971C655.661 221.674 660.607 230.557 658.183 238.875C658.014 239.452 657.812 240.018 657.58 240.569C657.32 241.197 657.019 241.803 656.681 242.384C652.403 249.825 642.84 253.118 637.301 260.078C635.846 261.912 634.655 263.979 633.77 266.208C633.349 267.18 632.983 268.18 632.673 269.201C629.164 281.029 631.434 295.789 626.586 307.569C623.483 315.142 617.626 320.947 614.029 328.256C606.395 343.942 610.168 361.647 617.089 377.886Z" fill="#676521"/>
<path d="M636.38 337.763C630.622 350.447 628.362 364.695 629.876 378.764L631.521 378.896C630.819 372.502 630.9 366.034 631.763 359.664C632.5 354.311 633.795 349.068 635.623 344.038C637.205 339.846 639.136 335.822 641.392 332.018C641.468 332.03 641.546 332.03 641.622 332.018C645.34 332.028 649.056 331.828 652.754 331.417C661.037 330.48 669.189 328.462 677.036 325.407C677.069 324.766 677.069 324.124 677.036 323.484C665.919 327.893 654.191 330.17 642.368 330.215C642.489 330.023 642.609 329.83 642.719 329.626C645.439 325.13 648.203 320.623 650.056 315.562C651.91 310.502 652.25 305.201 652.381 299.936C652.513 294.672 652.557 289.118 654.004 283.914C654.217 283.178 654.466 282.456 654.75 281.75C658.958 282.225 663.19 282.393 667.418 282.255C679.569 281.828 691.54 278.909 702.71 273.649C703.146 272.835 703.534 271.992 703.873 271.124C702.484 271.821 701.08 272.483 699.662 273.108C685.657 279.206 670.532 281.574 655.529 280.019C656.904 277.293 658.734 274.875 660.925 272.891C666.474 267.723 673.504 264.477 678.242 258.227C680.681 255.086 682.097 251.144 682.267 247.024C682.323 244.683 682.102 242.344 681.609 240.064C687.622 238.592 693.438 236.281 698.916 233.189C698.916 232.54 698.817 231.879 698.806 231.218C693.265 234.39 687.364 236.742 681.258 238.213C680.82 236.338 680.315 234.475 679.811 232.636C678.538 227.936 677.2 223.02 677.76 218.056C678.319 213.091 680.973 208.74 683.638 204.834C684.351 203.764 685.086 202.706 685.832 201.636C685.997 201.711 686.182 201.711 686.347 201.636C695.02 198.95 703.281 194.867 710.859 189.52C710.793 188.847 710.717 188.186 710.618 187.525C703.385 192.731 695.502 196.759 687.214 199.485C688.689 197.239 689.932 194.82 690.921 192.273C692.884 186.996 693.41 181.262 693.991 175.661C694.38 170.083 695.507 164.596 697.336 159.374C699.185 154.757 701.651 150.466 704.652 146.645C709.619 140.438 715.203 134.858 721.3 130.009C720.764 129.649 720.184 129.374 719.578 129.192L719.107 129.588C711.78 135.827 704.652 142.582 699.541 151.104C697.692 154.174 696.175 157.47 695.022 160.924C692.689 156.312 691.041 151.321 690.142 146.14C689.692 146.777 689.243 147.438 688.826 148.111C689.889 153.327 691.691 158.328 694.167 162.932C694.214 163.018 694.273 163.095 694.342 163.16C694.174 163.769 694.021 164.382 693.882 164.999C692.631 170.565 692.39 176.298 691.622 181.948C690.972 187.588 689.153 192.991 686.303 197.742C683.748 201.889 680.677 205.663 678.527 210.098C677.95 211.302 677.465 212.556 677.08 213.849C673.47 206.677 670.881 198.943 669.403 190.914C668.953 191.443 668.481 191.96 668.021 192.489C669.642 200.702 672.401 208.595 676.202 215.892C676.273 216.016 676.367 216.122 676.477 216.205C675.996 218.719 675.911 221.304 676.224 223.849C676.817 228.922 678.538 233.718 679.668 238.646C680.765 243.334 681.236 248.262 679.427 252.794C678.087 255.839 676.119 258.501 673.68 260.571C673.652 260.525 673.614 260.488 673.57 260.463C667.167 254.959 661.768 248.182 657.657 240.485C657.396 241.113 657.096 241.719 656.757 242.3C660.868 249.734 666.157 256.304 672.375 261.701L672.309 261.761C666.409 266.689 659.148 270.331 654.981 277.387C649.848 285.981 651.361 296.619 650.352 306.439C648.239 303.221 646.287 299.878 644.507 296.427C639.636 286.951 636.066 276.741 633.912 266.124C633.492 267.096 633.125 268.096 632.816 269.117C636.099 283.389 641.884 296.824 649.848 308.675C649.908 308.746 649.974 308.81 650.045 308.867C648.247 319.89 640.855 328.063 636.38 337.763Z" fill="#3E3E15"/>
<path d="M126.366 375.458C125.686 376.48 123.92 376.66 120.421 375.579C107.3 371.711 94.562 366.42 82.3975 359.784L80.0614 358.498C78.6137 357.669 77.177 356.839 75.7403 355.974C65.8995 350.112 56.5195 343.366 47.6968 335.804L45.284 333.701C44.7356 333.22 44.1872 332.727 43.6279 332.222C33.9737 323.557 25.4526 313.478 18.3043 302.268C17.7998 301.463 17.3173 300.646 16.8347 299.864C11.351 290.441 7.43569 280.272 6.96409 270.199C6.96409 269.502 6.90926 268.792 6.90926 268.095C6.84921 261.417 8.54431 254.862 11.7921 249.211C15.0399 243.561 19.7031 239.054 25.2247 236.23C25.7402 235.954 26.2666 235.677 26.804 235.425C27.9967 234.841 29.2156 234.323 30.4561 233.874C34.5649 232.387 38.8524 231.577 43.1783 231.47C43.7595 231.47 44.275 231.47 44.9111 231.47C53.4405 231.716 61.7611 234.415 69.0392 239.295C69.5766 239.632 70.136 239.992 70.6405 240.365C78.5163 245.966 85.14 253.439 90.0198 262.229C90.1075 262.362 90.1733 262.506 90.2501 262.638L91.1933 264.369C97.5214 276.389 102.106 289.154 106.01 302.256L106.964 305.502C110.803 318.808 114.06 332.354 117.866 345.589C119.917 352.716 122.121 359.796 124.666 366.732C125.543 368.822 126.223 371.005 126.695 373.247C126.855 374.003 126.737 374.797 126.366 375.458Z" fill="#3E3E15"/>
<path d="M130.566 379.245C129.162 377.995 127.762 376.733 126.366 375.458C120.714 370.298 115.201 364.977 109.827 359.496C99.8973 360.097 89.939 359.763 80.0615 358.498C78.6138 357.669 77.1771 356.839 75.7404 355.974C86.434 357.651 97.2476 358.227 108.039 357.693C105.955 355.541 103.883 353.378 101.843 351.178C97.4557 346.474 93.2004 341.666 89.0767 336.754C89.0767 336.754 88.978 336.754 88.9231 336.754C84.1048 336.906 79.2901 336.97 74.4791 336.946C65.5517 336.898 56.6243 336.497 47.6969 335.744L45.2841 333.641C59.3397 334.876 73.446 335.278 87.5412 334.843C80.7561 326.717 74.2415 318.303 67.9974 309.601C67.9128 309.634 67.8242 309.655 67.7342 309.661C63.5008 309.661 59.2565 309.48 55.0231 309.156C42.5985 308.182 30.2961 305.83 18.3044 302.136C17.7999 301.331 17.3174 300.513 16.8348 299.732C19.1745 300.493 21.5215 301.194 23.8758 301.836C37.8694 305.657 52.2273 307.647 66.6485 307.761C63.4679 303.278 60.3422 298.746 57.3153 294.131C55.5824 291.486 53.8715 288.806 52.1935 286.125C52.0972 286.217 51.9814 286.28 51.8568 286.31C51.7321 286.339 51.6028 286.334 51.4806 286.294C47.5031 285.316 43.5476 284.234 39.614 283.048C28.4359 279.621 17.5076 275.281 6.92031 270.067C6.92031 269.369 6.86548 268.66 6.86548 267.963C8.48865 268.78 10.1557 269.55 11.735 270.367C24.4289 276.292 37.5845 280.951 51.0419 284.286C41.4992 268.88 32.8649 252.82 25.1919 236.206C25.7074 235.93 26.2338 235.653 26.7712 235.401C31.4652 245.618 36.5321 255.614 41.9719 265.391C42.63 266.593 43.299 267.735 43.968 268.913C43.6975 256.42 43.4233 243.935 43.1454 231.458C43.7267 231.458 44.2422 231.458 44.8783 231.458L45.7886 270.451C45.7957 270.619 45.7567 270.786 45.6765 270.93C45.5964 271.073 45.4788 271.187 45.3389 271.257C50.5009 280.264 55.9626 289.038 61.7241 297.58C62.2615 293.385 62.8209 289.166 63.3034 284.995C65.2044 269.77 67.1054 254.545 69.0064 239.319C69.5438 239.656 70.1032 240.016 70.6077 240.389L69.2258 251.435L63.2486 299.227C63.2387 299.37 63.1932 299.507 63.117 299.624C67.6794 306.331 72.4319 312.894 77.3745 319.313C77.9887 314.953 78.6833 310.598 79.4583 306.247C82.1133 291.349 85.6411 276.654 90.0199 262.254C90.1076 262.386 90.1734 262.53 90.2502 262.662L91.1934 264.393C90.5134 266.677 89.8444 268.961 89.2083 271.257C84.6608 287.52 81.1934 304.123 78.8332 320.935C78.8158 320.99 78.7938 321.042 78.7674 321.092C79.9847 322.654 81.1912 324.217 82.4195 325.755C87.0696 331.597 91.8953 337.283 96.8196 342.836C99.386 329.165 102.439 315.627 105.977 302.22L106.932 305.466C103.641 318.183 100.793 331.012 98.3879 343.954C98.3544 344.121 98.2738 344.272 98.1576 344.387C102.245 348.954 106.423 353.418 110.693 357.777C110.728 357.807 110.758 357.844 110.781 357.885C115.958 363.158 121.251 368.282 126.662 373.259C128.351 374.833 130.062 376.372 131.784 377.898C132.705 378.632 131.422 380.002 130.566 379.245Z" fill="#142216"/>
<path d="M155.923 377.886L143.124 378.812L141.479 378.944L132.014 379.629C132.31 367.766 121.255 358.258 112.755 350.913C105.078 344.218 96.6881 335.756 95.9642 325.371C95.931 324.73 95.931 324.088 95.9642 323.448C95.9642 323.039 95.9862 322.638 96.03 322.246C96.3261 318.519 97.6642 314.949 97.7958 311.211C98.1358 301.92 91.2154 294.383 84.5472 288.698C79.3158 284.262 73.5799 279.683 70.2897 273.588C69.8507 272.775 69.4588 271.932 69.1162 271.064C68.7388 270.09 68.4308 269.085 68.1949 268.059C65.5627 256.52 73.0644 244.764 74.1282 233.201C74.194 232.552 74.227 231.891 74.2379 231.23C74.3085 229.113 74.0828 226.997 73.5689 224.955C71.6716 217.647 65.8918 212.274 63.3912 205.206C61.6145 200.218 61.6035 194.881 62.1848 189.508C62.2506 188.835 62.3274 188.174 62.4261 187.513C62.8099 184.568 63.3254 181.611 63.786 178.714C65.1899 169.891 65.7382 159.915 60.6713 152.895C58.1159 149.289 54.409 146.993 51.7329 143.556C49.0569 140.118 47.6202 134.625 50.3401 131.223C50.7376 130.752 51.1957 130.347 51.7 130.021C52.2382 129.666 52.8173 129.391 53.4219 129.204C55.9745 128.604 58.6278 128.774 61.099 129.696C69.7569 132.563 77.3803 138.325 82.9021 146.176C83.3627 146.813 83.8014 147.474 84.2182 148.147C86.1439 151.159 87.7276 154.416 88.9342 157.847C91.5663 165.348 92.4547 173.618 96.0958 180.601C98.2118 184.372 100.738 187.848 103.619 190.951C104.069 191.479 104.541 191.996 105.001 192.525C110.408 198.679 115.793 204.689 116.517 212.959C117.285 221.662 112.338 230.545 114.762 238.863C114.932 239.44 115.133 240.006 115.365 240.557C115.626 241.185 115.927 241.791 116.265 242.372C120.553 249.813 130.106 253.106 135.644 260.066C137.1 261.9 138.291 263.967 139.176 266.196C139.591 267.171 139.957 268.17 140.272 269.189C143.771 281.017 141.501 295.777 146.348 307.557C149.463 315.13 155.309 320.935 158.917 328.244C166.616 343.942 162.832 361.647 155.923 377.886Z" fill="#676521"/>
<path d="M136.62 337.763C142.384 350.445 144.644 364.695 143.124 378.764L141.479 378.896C142.181 372.502 142.1 366.034 141.237 359.664C140.5 354.311 139.205 349.068 137.377 344.038C135.795 339.846 133.864 335.822 131.608 332.018C131.532 332.03 131.454 332.03 131.378 332.018C127.66 332.028 123.945 331.828 120.246 331.417C111.963 330.48 103.811 328.462 95.9643 325.407C95.9311 324.766 95.9311 324.124 95.9643 323.484C107.082 327.893 118.809 330.17 130.632 330.215C130.511 330.023 130.391 329.83 130.281 329.626C127.561 325.13 124.797 320.623 122.955 315.562C121.112 310.502 120.761 305.201 120.619 299.936C120.476 294.672 120.454 289.118 118.996 283.914C118.787 283.168 118.524 282.447 118.261 281.75C114.053 282.224 109.822 282.393 105.594 282.255C93.4417 281.831 81.4703 278.911 70.3007 273.649C69.8618 272.835 69.4698 271.992 69.1272 271.124C70.52 271.821 71.9238 272.483 73.3496 273.108C87.354 279.207 102.48 281.576 117.482 280.019C116.1 277.295 114.266 274.878 112.075 272.891C106.526 267.723 99.4958 264.477 94.7579 258.227C92.3179 255.087 90.9051 251.144 90.7438 247.024C90.6897 244.684 90.9072 242.345 91.3909 240.064C85.378 238.592 79.5618 236.281 74.0844 233.189C74.1502 232.54 74.1831 231.879 74.1941 231.218C79.7354 234.39 85.6361 236.742 91.7418 238.213C92.1805 236.338 92.685 234.475 93.1895 232.636C94.4727 227.936 95.7998 223.02 95.2404 218.056C94.6811 213.091 92.027 208.74 89.3619 204.834C88.6491 203.764 87.9142 202.706 87.1685 201.636C87.0033 201.711 86.8182 201.711 86.653 201.636C77.9806 198.948 69.72 194.865 62.141 189.52C62.2068 188.847 62.2836 188.186 62.3823 187.525C69.6178 192.733 77.5052 196.762 85.7975 199.485C84.3187 197.239 83.0718 194.82 82.0796 192.273C80.1165 186.996 79.601 181.262 79.0088 175.661C78.6268 170.071 77.5036 164.572 75.6747 159.338C73.8197 154.732 71.3507 150.455 68.3485 146.645C63.3807 140.438 57.7967 134.858 51.7001 130.009C52.2382 129.654 52.8173 129.379 53.4219 129.192L53.8935 129.588C61.1978 135.827 68.3595 142.582 73.4812 151.104C75.3305 154.174 76.8469 157.47 77.9998 160.924C80.338 156.314 81.9858 151.323 82.8802 146.14C83.3409 146.777 83.7795 147.438 84.1963 148.111C83.1384 153.329 81.3359 158.33 78.8552 162.932C78.8156 163.023 78.7552 163.102 78.6797 163.16C78.8479 163.769 79.0014 164.382 79.1404 164.999C80.3906 170.565 80.6429 176.298 81.4106 181.948C82.0528 187.588 83.8689 192.992 86.7188 197.742C89.2742 201.889 92.345 205.663 94.4946 210.098C95.0771 211.299 95.5616 212.554 95.9423 213.849C99.552 206.677 102.141 198.943 103.619 190.914C104.069 191.443 104.541 191.96 105.001 192.489C103.38 200.702 100.621 208.595 96.8197 215.892C96.7519 216.018 96.658 216.125 96.5455 216.205C97.0263 218.719 97.1116 221.304 96.7978 223.849C96.2165 228.922 94.4837 233.718 93.354 238.646C92.2573 243.334 91.7857 248.262 93.5953 252.794C94.9394 255.84 96.9104 258.502 99.3532 260.571C99.3744 260.524 99.4091 260.486 99.4519 260.463C105.855 254.959 111.254 248.182 115.365 240.485C115.626 241.113 115.927 241.719 116.265 242.3C112.154 249.734 106.865 256.304 100.647 261.701L100.713 261.761C106.614 266.689 113.874 270.331 118.042 277.387C123.174 285.981 121.672 296.619 122.67 306.439C124.783 303.221 126.735 299.878 128.515 296.427C133.406 286.966 136.998 276.768 139.176 266.16C139.591 267.135 139.958 268.134 140.272 269.153C136.985 283.425 131.197 296.861 123.229 308.711C123.169 308.782 123.103 308.846 123.032 308.903C124.754 319.89 132.146 328.063 136.62 337.763Z" fill="#3E3E15"/>
<path d="M618.558 340.42C618.493 340.672 618.416 340.937 618.339 341.201L611.342 343.076C609.1 342.879 606.967 341.931 605.233 340.36C604.471 339.581 603.874 338.628 603.484 337.569C603.093 336.51 602.919 335.37 602.974 334.23C603.03 332.332 603.378 330.459 604.005 328.688C604.005 328.688 598.181 327.114 601.285 321.957C601.285 321.957 562.899 266.977 573.022 261.448C573.793 261.054 574.674 261.002 575.479 261.304C586.534 264.91 606.845 319.108 606.845 319.108C606.845 319.108 613.426 320.31 610.311 325.804C610.355 325.804 621.849 327.619 618.558 340.42Z" fill="#0E537E"/>
<g style="mix-blend-mode:multiply">
<path d="M618.558 340.42C614.171 340.42 609.674 340.42 605.233 340.42C604.471 339.641 603.874 338.688 603.483 337.629C603.093 336.57 602.919 335.43 602.973 334.29C605.468 332.493 608.304 331.342 611.265 330.924C610.871 329.98 610.305 329.134 609.602 328.44C608.898 327.745 608.072 327.216 607.174 326.885C607.593 326.373 607.881 325.749 608.01 325.076C608.139 324.403 608.104 323.705 607.909 323.051C607.646 322.399 607.239 321.829 606.723 321.394C606.208 320.959 605.601 320.673 604.958 320.563C597.854 299.342 587.92 279.392 575.478 261.364C586.533 264.97 606.845 319.168 606.845 319.168C606.845 319.168 613.425 320.37 610.311 325.864C610.354 325.804 621.848 327.619 618.558 340.42Z" fill="#BFD4EA"/>
</g>
<path d="M656.44 357.705C655.935 346.382 650.265 337.187 643.147 335.191C640.341 334.1 637.278 334.1 634.472 335.191L634.955 336.261C628.802 339.675 624.645 348.858 625.084 359.412C625.577 370.542 631.061 379.605 638.003 381.805L636.907 382.574C639.24 383.305 641.735 383.092 643.937 381.973V381.973C651.537 379.906 656.944 369.689 656.44 357.705Z" fill="#7197D5"/>
<path d="M637.632 382.558C646.295 382.098 652.849 371.099 652.271 357.99C651.692 344.881 644.2 334.627 635.536 335.086C626.872 335.546 620.318 346.545 620.897 359.654C621.476 372.763 628.968 383.017 637.632 382.558Z" fill="#002638"/>
<path d="M647.523 363.739C646.918 368.426 644.991 372.788 642.012 376.215C639.032 379.642 635.15 381.962 630.907 382.851C622.538 384.54 613.987 384.872 605.529 383.836C601.63 383.414 597.753 382.772 593.915 381.913L592.05 339.843C604.445 334.887 617.826 333.666 630.798 336.309C631.426 336.445 632.03 336.602 632.607 336.778C636.655 338.009 640.265 340.561 642.957 344.095C645.649 347.629 647.295 351.978 647.676 356.563C647.872 358.954 647.82 361.361 647.523 363.739V363.739Z" fill="#25669C"/>
<g style="mix-blend-mode:multiply">
<path d="M647.523 363.739C646.918 368.426 644.991 372.788 642.011 376.215C639.032 379.642 635.15 381.962 630.907 382.851C622.537 384.54 613.987 384.872 605.529 383.836C615.86 382.139 625.219 376.211 631.719 367.249C634.354 363.73 636.265 359.63 637.323 355.229C638.358 350.782 637.971 346.082 636.226 341.91C635.355 339.972 634.126 338.253 632.618 336.862C636.666 338.093 640.276 340.645 642.968 344.179C645.659 347.714 647.306 352.062 647.687 356.647C647.873 359.01 647.818 361.389 647.523 363.739V363.739Z" fill="#BFD4EA"/>
</g>
<path d="M613.952 359.965C613.447 348.63 607.788 339.446 600.671 337.451H600.616C597.809 336.365 594.747 336.365 591.94 337.451L592.423 338.521C586.27 341.946 582.114 351.13 582.552 361.671C583.046 372.814 588.519 381.877 595.461 384.077L594.364 384.834C596.697 385.572 599.194 385.359 601.394 384.233V384.233C609.05 382.166 614.478 371.949 613.952 359.965Z" fill="#002638"/>
<path d="M609.784 360.181C610.366 373.295 603.818 384.293 595.154 384.75C591.856 384.848 588.65 383.558 586.194 381.144C585.272 380.279 584.431 379.317 583.682 378.271C582.966 377.28 582.324 376.226 581.763 375.122C580.108 371.819 579.043 368.2 578.626 364.46C578.527 363.607 578.462 362.729 578.418 361.84C577.836 348.726 584.384 337.727 593.059 337.271C593.918 337.224 594.778 337.281 595.625 337.439C598.354 338.035 600.859 339.508 602.82 341.67C603.619 342.511 604.353 343.424 605.014 344.399C605.77 345.542 606.445 346.747 607.031 348.005C608.703 351.813 609.641 355.958 609.784 360.181V360.181Z" fill="#25669C"/>
<path d="M606.319 359.099C606.812 370.278 601.274 380.927 593.882 381.324C586.49 381.721 580.14 373.727 579.624 362.537C579.109 351.346 584.68 341.225 592.072 340.829C599.464 340.432 605.814 347.92 606.319 359.099Z" fill="#7197D5"/>
<g style="mix-blend-mode:soft-light" opacity="0.5">
<path d="M602.842 341.682L581.785 375.134C580.129 371.831 579.065 368.212 578.648 364.472L595.647 337.451C598.376 338.047 600.88 339.52 602.842 341.682Z" fill="white"/>
<path d="M607.031 348.065L586.193 381.156C585.272 380.291 584.431 379.329 583.682 378.283L604.991 344.411C605.758 345.568 606.44 346.79 607.031 348.065V348.065Z" fill="white"/>
</g>
<path d="M522.539 339.146V360.205C522.537 361.704 522.771 363.192 523.23 364.604C525.389 371.189 526.437 378.15 526.323 385.147H482.047C482.047 385.147 484.636 378.716 496.371 374.773C498.45 374.056 500.373 372.878 502.019 371.311L506.34 367.285C507.517 366.192 508.41 364.78 508.93 363.189C509.45 361.597 509.578 359.884 509.301 358.222L506.186 339.17L522.539 339.146Z" fill="#BD5331"/>
<path d="M524.239 368.03L513.502 373.643L505.594 367.946L502.019 371.275C500.373 372.842 498.45 374.02 496.371 374.737C484.636 378.68 482.047 385.111 482.047 385.111H526.323C526.431 379.334 525.728 373.573 524.239 368.03Z" fill="#D97C2F"/>
<path d="M558.238 339.182L562.087 362.801C562.266 363.995 562.266 365.213 562.087 366.407L559.543 385.219H593.443C593.443 385.219 592.982 379.665 591.37 378.151C589.758 376.636 585.151 372.838 585.151 372.838L578.231 364.953C576.671 363.181 575.738 360.859 575.599 358.402L574.502 339.17L558.238 339.182Z" fill="#BD5331"/>
<path d="M578.582 365.241C576.328 365.386 574.125 366.033 572.107 367.143C570.09 368.252 568.3 369.802 566.847 371.696L561.846 368.823L559.653 385.183H593.553C593.553 385.183 593.092 379.629 591.48 378.115C589.868 376.6 585.261 372.802 585.261 372.802L578.582 365.241Z" fill="#D97C2F"/>
<path d="M505.671 88.3594L520.214 71.315L537.849 71.2068L547.698 88.4075L539.319 145.395L506.494 145.371L505.671 88.3594Z" fill="#D4B5A5"/>
<path d="M516.968 90.2105L527.069 80.9911L539.045 93.8886" stroke="white" stroke-width="0.46" stroke-miterlimit="10"/>
<path d="M527.069 85.3544L520.587 139.937" stroke="white" stroke-width="0.46" stroke-miterlimit="10"/>
<path d="M556.45 174.399L583.649 341.862L552.513 341.826L520.554 191.684L530.03 343.701L498.553 343.677L489.823 167.199L504.158 145.659L549.321 146.969L556.45 174.399Z" fill="#142216"/>
<g style="mix-blend-mode:multiply" opacity="0.57">
<path d="M556.45 174.399L549.321 146.969L504.158 145.659L489.823 167.199L490.043 171.598C499.836 171.815 532.113 173.437 558.15 184.892L556.45 174.399Z" fill="#215681"/>
</g>
<path d="M520.28 191.756L516.946 177.272L516.957 177.212L519.304 149.073L519.852 149.121L517.505 177.224L520.817 191.612L520.28 191.756Z" fill="#F7EEDF"/>
<g style="mix-blend-mode:multiply">
<path d="M507.152 180.108L536.786 180.132" stroke="#BFD4EA" stroke-miterlimit="10"/>
</g>
<path d="M517.187 174.387L515.498 149.109L516.046 149.073L517.746 174.339L517.187 174.387Z" fill="#F7EEDF"/>
<path d="M507.963 343.701L499.804 159.963L500.363 159.927L508.523 343.665L507.963 343.701Z" fill="#F7EEDF"/>
<path d="M569.194 341.898L539.045 160.035L539.582 159.927L569.743 341.79L569.194 341.898Z" fill="#F7EEDF"/>
<path d="M546.601 143.159H503.324V150.719H546.601V143.159Z" fill="#1B2536"/>
<path d="M526.038 25.7349C529.55 26.3873 532.834 28.0742 535.539 30.615C538.243 33.1558 540.267 36.4548 541.392 40.159C542.774 44.2338 543.026 48.4048 546.306 50.977C547.534 51.8815 548.513 53.1367 549.137 54.607C549.762 56.0773 550.007 57.7067 549.848 59.319C549.703 60.6101 549.856 61.9205 550.293 63.1301C550.73 64.3396 551.437 65.4098 552.349 66.2425H504.191C504.191 66.2425 506.867 61.7951 506.384 58.0088C505.902 54.2225 504.191 51.6502 505.441 47.7677C506.691 43.8852 508.293 42.1303 505.968 38.8608C502.601 34.0528 507.887 22.2131 526.038 25.7349Z" fill="#142216"/>
<path d="M524.502 34.3653C524.502 36.0001 525.763 45.3517 532.684 49.0298L533.199 54.2705L537.849 71.2068L526.948 79.9814L520.214 71.315V63.7063C515.717 64.151 511.977 61.3023 511.692 55.9894C511.407 50.6765 511.638 46.0729 510.256 43.2241C510.256 43.188 517.297 43.0678 524.502 34.3653Z" fill="#BD5331"/>
<path d="M528.297 53.6094C528.297 54.1467 528.151 54.6719 527.879 55.1187C527.607 55.5654 527.219 55.9136 526.767 56.1192C526.314 56.3248 525.815 56.3786 525.334 56.2738C524.854 56.169 524.412 55.9102 524.065 55.5303C523.719 55.1504 523.483 54.6664 523.387 54.1394C523.291 53.6125 523.34 53.0663 523.528 52.5699C523.716 52.0735 524.033 51.6492 524.441 51.3507C524.849 51.0522 525.328 50.8929 525.818 50.8929C526.475 50.8929 527.106 51.1791 527.571 51.6886C528.035 52.198 528.297 52.889 528.297 53.6094V53.6094Z" fill="#D65353"/>
<path d="M520.949 63.55C522.504 63.4519 524.023 62.9916 525.403 62.1999C526.784 61.4081 527.995 60.3031 528.955 58.9584" stroke="#422424" stroke-width="0.46" stroke-miterlimit="10"/>
<path d="M537.477 50.34C536.259 53.345 533.572 54.9557 531.455 53.946C529.339 52.9363 528.615 49.6548 529.821 46.6619C531.028 43.6689 533.726 42.0462 535.831 43.0558C537.937 44.0655 538.683 47.347 537.477 50.34Z" fill="#BD5331"/>
<path d="M531.126 50.4842C531.126 50.4842 531.905 45.9286 535.513 45.0391" stroke="#422424" stroke-width="0.46" stroke-miterlimit="10"/>
<path d="M534.197 48.7774L533.649 45.9647" stroke="#422424" stroke-width="0.46" stroke-miterlimit="10"/>
<path d="M537.158 53.333C537.158 53.6972 537.06 54.0533 536.875 54.3559C536.69 54.6586 536.427 54.8943 536.12 55.0332C535.813 55.172 535.475 55.2077 535.149 55.1358C534.823 55.0638 534.524 54.8875 534.29 54.6291C534.056 54.3707 533.897 54.0419 533.833 53.6843C533.77 53.3268 533.805 52.9567 533.933 52.6208C534.062 52.285 534.279 51.9986 534.556 51.798C534.834 51.5974 535.159 51.4915 535.491 51.4939C535.711 51.4939 535.929 51.5416 536.132 51.6341C536.335 51.7267 536.519 51.8623 536.674 52.0333C536.829 52.2042 536.952 52.407 537.035 52.6301C537.118 52.8532 537.16 53.092 537.158 53.333V53.333Z" stroke="white" stroke-width="0.46" stroke-miterlimit="10"/>
<path d="M515.059 50.0155L515.619 49.126C515.479 48.9662 515.307 48.8449 515.116 48.7718C514.926 48.6987 514.722 48.6759 514.522 48.7053C514.278 48.7495 514.052 48.8711 513.871 49.0551C513.69 49.239 513.562 49.4772 513.503 49.74C513.444 50.0029 513.457 50.2789 513.54 50.5338C513.623 50.7886 513.773 51.0112 513.97 51.1738C514.167 51.3365 514.404 51.4321 514.651 51.4487C514.897 51.4653 515.142 51.4023 515.357 51.2674C515.571 51.1326 515.744 50.9318 515.855 50.69C515.966 50.4482 516.01 50.1761 515.981 49.9073C515.981 49.9073 515.981 49.8111 515.981 49.751L515.059 50.0155Z" fill="#1B2536"/>
<path d="M522.89 48.6572L523.438 47.7677C523.301 47.6042 523.129 47.4795 522.938 47.4041C522.747 47.3288 522.543 47.3051 522.341 47.335C522.094 47.3773 521.864 47.4985 521.68 47.6834C521.495 47.8683 521.364 48.1087 521.304 48.3746C521.243 48.6405 521.255 48.9201 521.339 49.1784C521.423 49.4367 521.574 49.6623 521.774 49.827C521.973 49.9917 522.213 50.0882 522.463 50.1044C522.712 50.1206 522.961 50.0559 523.177 49.9183C523.393 49.7806 523.568 49.5762 523.679 49.3305C523.789 49.0849 523.832 48.8088 523.8 48.537C523.8 48.537 523.8 48.4408 523.745 48.3927L522.89 48.6572Z" fill="#1B2536"/>
<path d="M517.922 49.739C517.922 49.739 517.922 51.2295 517.922 52.4555C517.922 53.6816 519.216 54.3547 520.653 53.3089" stroke="#422424" stroke-width="0.46" stroke-miterlimit="10"/>
<path d="M518.35 55.7129C519.514 56.0672 520.749 56.0272 521.892 55.5982C523.035 55.1691 524.033 54.3711 524.755 53.3089" stroke="#422424" stroke-width="0.46" stroke-miterlimit="10"/>
<path d="M523.811 52.72L525.27 53.6936" stroke="#422424" stroke-width="0.46" stroke-miterlimit="10"/>
<path d="M519.94 44.6184C519.94 44.6184 523.087 43.4885 525.281 44.342" stroke="#732727" stroke-width="0.97" stroke-linecap="round" stroke-linejoin="round"/>
<path d="M512.712 46.2892C514 45.5328 515.506 45.3519 516.913 45.7844" stroke="#732727" stroke-width="0.97" stroke-linecap="round" stroke-linejoin="round"/>
<path d="M537.85 71.2068L527.255 142.45C526.795 145.534 527.013 148.695 527.891 151.669L532.081 165.877C532.246 166.434 532.523 166.944 532.891 167.369C533.259 167.794 533.709 168.124 534.208 168.335C534.707 168.546 535.243 168.632 535.776 168.587C536.309 168.542 536.826 168.368 537.29 168.076L558.019 154.975L549.036 139.998L560.936 94.0208C561.769 90.8809 561.505 87.5132 560.195 84.5752C558.885 81.6371 556.623 79.3394 553.851 78.1303L537.85 71.2068Z" fill="#324B85"/>
<path d="M544.485 140.647L533.528 150.731" stroke="#1B2536" stroke-width="0.46" stroke-miterlimit="10"/>
<path d="M539.418 73.8392L540.416 75.51C541.945 78.0854 542.805 81.0687 542.903 84.1394C543.002 87.2101 542.335 90.2523 540.975 92.939L539.045 96.7374L541.238 103.721C541.699 105.236 541.878 106.836 541.765 108.428C541.652 110.02 541.249 111.57 540.58 112.988L528.889 138.231" stroke="#1B2536" stroke-width="0.46" stroke-miterlimit="10"/>
<path d="M549.036 139.962L535.206 168.533C535.945 168.618 536.69 168.446 537.334 168.04L558.062 154.938L549.036 139.962Z" fill="#1B2536"/>
<path d="M549.354 104.647L550.813 133.122L556.088 112.712L549.354 104.647Z" fill="#1B2536"/>
<path d="M538.99 166.971L553.149 170.42L544.474 159.987L538.99 166.971Z" fill="#BD5331"/>
<path d="M520.214 71.315L511.736 162.667C511.622 163.916 511.089 165.074 510.239 165.915C509.39 166.757 508.286 167.223 507.141 167.223H486.237C486.237 167.223 494.561 145.214 501.317 133.098L501.142 126.487L491.337 137.798C489.464 139.96 486.933 141.294 484.223 141.549C481.513 141.804 478.811 140.961 476.63 139.18C474.368 137.333 472.832 134.613 472.333 131.57C471.834 128.528 472.41 125.391 473.943 122.797L495.165 86.8209C497.563 82.7509 501.065 79.6066 505.178 77.8299L520.214 71.315Z" fill="#324B85"/>
<path d="M519.084 72.7454C516.66 76.712 510.168 82.6859 515.18 95.1027C509.981 105.139 508.939 118.686 512.723 135.286" stroke="#1B2536" stroke-width="0.46" stroke-miterlimit="10"/>
<path d="M490.536 131.247L492.445 112.616" stroke="#1B2536" stroke-width="0.46" stroke-miterlimit="10"/>
<path d="M526.016 129.312L493.092 129.288L476.948 78.3707L509.861 78.3948L526.016 129.312Z" fill="white"/>
<path d="M547.402 103.252L562.482 132.449L544.474 159.987L556.45 174.411L581.543 148.892C584.214 146.177 585.999 142.575 586.623 138.641C587.247 134.707 586.676 130.657 584.998 127.112L568.229 91.689C565.435 85.794 560.798 81.1986 555.167 78.7434L549.058 76.0869L547.402 103.252Z" fill="#324B85"/>
<path d="M562.482 132.449L566.573 126.523" stroke="#1B2536" stroke-width="0.46" stroke-miterlimit="10"/>
<path d="M478.637 106.39C479.82 104.515 481.281 102.87 482.958 101.521C484.06 100.695 485.215 99.9559 486.413 99.3097C486.726 99.1362 487.081 99.0775 487.427 99.1425C487.772 99.2074 488.09 99.3924 488.332 99.6703L489.977 101.581C490.221 101.866 490.375 102.229 490.414 102.617C490.454 103.005 490.377 103.397 490.196 103.733L486.369 110.813C486.369 110.813 492.039 107.495 492.423 107.784C492.807 108.072 490.493 110.609 488.694 112.736C487.97 113.606 487.003 114.188 485.945 114.39C484.887 114.592 483.798 114.404 482.848 113.854C480.479 112.472 477.924 110.08 478.637 106.39Z" fill="#BD5331"/>
<path d="M482.004 105.68L488.639 100.031" stroke="#422424" stroke-width="0.46" stroke-miterlimit="10"/>
<path d="M484.384 108.914L489.867 101.606" stroke="#422424" stroke-width="0.46" stroke-miterlimit="10"/>
<path d="M247.522 276.593H141.654L165.42 248.19C168.667 244.318 172.612 241.226 177.005 239.109C181.397 236.993 186.143 235.898 190.941 235.894H198.235C203.029 235.904 207.77 237.002 212.158 239.118C216.546 241.234 220.488 244.323 223.734 248.19L247.522 276.593ZM147.072 273.985H242.093L221.99 249.945C218.967 246.342 215.295 243.465 211.206 241.496C207.117 239.526 202.701 238.507 198.235 238.502H190.941C186.469 238.515 182.047 239.545 177.956 241.528C173.866 243.51 170.194 246.4 167.175 250.017L147.072 273.985Z" fill="#F7EEDF"/>
<path d="M269.018 268.3H120.158V324.181H269.018V268.3Z" fill="#324B85"/>
<path d="M269.018 324.193H120.158V385.483H269.018V324.193Z" fill="#142216"/>
<path d="M243.475 310.442H233.604V361.479H243.475V310.442Z" stroke="white" stroke-width="0.66" stroke-miterlimit="10"/>
<path d="M155.572 310.442H145.701V361.479H155.572V310.442Z" stroke="white" stroke-width="0.66" stroke-miterlimit="10"/>
<path d="M282.453 386.745C221.979 350.565 234.624 294.083 234.624 294.083C267.636 293.409 282.453 259.224 282.453 259.224C282.453 259.224 297.259 293.373 330.27 294.083C330.27 294.083 342.927 350.565 282.453 386.745Z" fill="#B14F18"/>
<path d="M282.453 379.762C270.696 372.333 261.165 363.547 254.091 353.606C248.197 345.424 243.873 336.02 241.38 325.96C239.297 317.478 238.632 308.654 239.417 299.912C252.578 298.434 264.762 291.883 274.852 280.764C277.62 277.701 280.162 274.401 282.453 270.896C284.736 274.404 287.274 277.704 290.042 280.764C300.143 291.883 312.306 298.434 325.478 299.912C326.266 308.636 325.609 317.444 323.536 325.912C321.04 335.973 316.712 345.377 310.814 353.558C303.729 363.547 294.199 372.333 282.453 379.762Z" fill="#D77C2F"/>
<path d="M282.453 356.31C297.081 356.31 308.939 343.314 308.939 327.282C308.939 311.25 297.081 298.254 282.453 298.254C267.825 298.254 255.967 311.25 255.967 327.282C255.967 343.314 267.825 356.31 282.453 356.31Z" fill="#B14F18"/>
<path d="M282.453 352.103C277.21 352.106 272.129 350.115 268.076 346.471C264.022 342.828 261.247 337.756 260.222 332.121C259.198 326.486 259.989 320.636 262.459 315.568C264.93 310.5 268.927 306.528 273.77 304.328C278.614 302.129 284.003 301.838 289.02 303.505C294.037 305.173 298.371 308.695 301.284 313.473C304.197 318.25 305.508 323.987 304.994 329.705C304.48 335.423 302.173 340.769 298.465 344.831C296.368 347.144 293.872 348.977 291.124 350.226C288.375 351.474 285.428 352.112 282.453 352.103V352.103Z" fill="#D77C2F"/>
<path d="M282.585 311.56C289.834 311.56 294.758 316.368 295.877 323.412H286.807C286.447 322.467 285.836 321.663 285.054 321.104C284.272 320.544 283.354 320.255 282.42 320.274C279.514 320.274 277.726 322.859 277.726 326.861C277.726 330.864 279.514 333.448 282.42 333.448C283.355 333.466 284.274 333.176 285.056 332.614C285.838 332.052 286.449 331.246 286.807 330.299H295.877C294.78 337.391 289.834 342.151 282.585 342.151C274.173 342.151 269.018 335.816 269.018 326.861C269.018 317.906 274.184 311.56 282.585 311.56Z" fill="#B14F18"/>
<path d="M245.262 304.913C245.262 305.248 245.171 305.577 245.001 305.856C244.831 306.135 244.588 306.352 244.305 306.48C244.022 306.608 243.711 306.64 243.41 306.574C243.11 306.508 242.835 306.345 242.619 306.107C242.403 305.869 242.256 305.565 242.198 305.236C242.14 304.906 242.172 304.565 242.291 304.256C242.409 303.946 242.609 303.682 242.865 303.498C243.121 303.313 243.421 303.215 243.727 303.218C243.93 303.218 244.13 303.262 244.317 303.347C244.504 303.432 244.674 303.557 244.817 303.715C244.959 303.873 245.072 304.059 245.149 304.265C245.225 304.471 245.264 304.691 245.262 304.913V304.913Z" fill="#B14F18"/>
<path d="M323.021 304.913C323.021 305.248 322.93 305.576 322.76 305.854C322.59 306.133 322.349 306.35 322.066 306.479C321.784 306.607 321.473 306.64 321.173 306.575C320.873 306.51 320.597 306.348 320.381 306.111C320.165 305.874 320.018 305.572 319.958 305.243C319.898 304.915 319.929 304.574 320.046 304.264C320.163 303.954 320.361 303.69 320.615 303.504C320.87 303.317 321.169 303.218 321.475 303.218C321.678 303.218 321.879 303.262 322.066 303.347C322.254 303.432 322.425 303.557 322.568 303.714C322.712 303.872 322.826 304.058 322.903 304.264C322.981 304.47 323.021 304.69 323.021 304.913V304.913Z" fill="#B14F18"/>
<path d="M283.988 279.382C283.988 279.717 283.898 280.045 283.728 280.324C283.558 280.602 283.316 280.82 283.034 280.948C282.751 281.076 282.44 281.11 282.14 281.044C281.84 280.979 281.565 280.818 281.348 280.581C281.132 280.344 280.985 280.042 280.925 279.713C280.866 279.384 280.896 279.043 281.013 278.734C281.13 278.424 281.328 278.159 281.583 277.973C281.837 277.787 282.136 277.687 282.442 277.687C282.852 277.687 283.245 277.866 283.535 278.184C283.825 278.502 283.988 278.933 283.988 279.382V279.382Z" fill="#B14F18"/>
<path d="M283.988 375.242C283.988 375.577 283.898 375.905 283.728 376.184C283.558 376.462 283.316 376.68 283.034 376.808C282.751 376.936 282.44 376.97 282.14 376.904C281.84 376.839 281.565 376.678 281.348 376.44C281.132 376.203 280.985 375.901 280.925 375.573C280.866 375.244 280.896 374.903 281.013 374.593C281.13 374.284 281.328 374.019 281.583 373.833C281.837 373.647 282.136 373.547 282.442 373.547C282.852 373.547 283.245 373.726 283.535 374.044C283.825 374.361 283.988 374.793 283.988 375.242V375.242Z" fill="#B14F18"/>
<path d="M493.421 353.065C511.41 353.065 525.994 337.082 525.994 317.365C525.994 297.649 511.41 281.666 493.421 281.666C475.431 281.666 460.848 297.649 460.848 317.365C460.848 337.082 475.431 353.065 493.421 353.065Z" fill="#CC6017"/>
<path d="M498.937 353.065C516.927 353.065 531.51 337.082 531.51 317.365C531.51 297.649 516.927 281.666 498.937 281.666C480.947 281.666 466.364 297.649 466.364 317.365C466.364 337.082 480.947 353.065 498.937 353.065Z" fill="#EA9B1C"/>
<path d="M523.013 323.521C526.123 308.931 517.852 294.34 504.54 290.931C491.227 287.523 477.914 296.587 474.804 311.177C471.694 325.767 479.965 340.358 493.277 343.767C506.589 347.176 519.903 338.111 523.013 323.521Z" fill="#CC6017"/>
<g style="mix-blend-mode:multiply" opacity="0.58">
<path d="M498.937 340.468C510.579 340.468 520.016 330.125 520.016 317.365C520.016 304.606 510.579 294.263 498.937 294.263C487.295 294.263 477.858 304.606 477.858 317.365C477.858 330.125 487.295 340.468 498.937 340.468Z" fill="#CC6017"/>
</g>
<path d="M507.405 315.575C507.405 317.059 506.866 318.357 505.788 319.47C504.728 320.566 503.209 321.29 501.23 321.643V324.585H497.494V321.776C496.169 321.705 494.897 321.502 493.678 321.166C492.476 320.831 491.478 320.415 490.683 319.921L492.697 315.363C493.58 315.875 494.57 316.29 495.665 316.608C496.76 316.909 497.812 317.059 498.819 317.059C499.684 317.059 500.303 316.979 500.674 316.82C501.045 316.644 501.23 316.387 501.23 316.052C501.23 315.663 500.983 315.372 500.488 315.177C500.011 314.983 499.216 314.771 498.103 314.541C496.672 314.241 495.48 313.923 494.526 313.587C493.572 313.234 492.741 312.669 492.035 311.891C491.328 311.096 490.975 310.027 490.975 308.685C490.975 307.13 491.531 305.796 492.644 304.683C493.775 303.57 495.391 302.864 497.494 302.563V299.675H501.23V302.51C503.35 302.705 505.143 303.217 506.61 304.047L504.728 308.579C502.908 307.66 501.186 307.201 499.561 307.201C497.953 307.201 497.149 307.589 497.149 308.367C497.149 308.738 497.388 309.02 497.865 309.215C498.342 309.391 499.128 309.586 500.223 309.798C501.636 310.063 502.829 310.372 503.801 310.725C504.772 311.061 505.611 311.617 506.318 312.395C507.042 313.172 507.405 314.232 507.405 315.575Z" fill="#EA9B1C"/>
<path d="M172.65 192.992C189.32 185.581 197.352 164.762 190.59 146.491C183.828 128.221 164.832 119.418 148.162 126.829C131.491 134.241 123.459 155.06 130.222 173.33C136.984 191.601 155.98 200.403 172.65 192.992Z" fill="#CC6017"/>
<path d="M188.948 185.17C201.669 171.228 201.669 148.624 188.948 134.683C176.228 120.741 155.604 120.741 142.883 134.683C130.163 148.624 130.163 171.228 142.883 185.17C155.604 199.111 176.228 199.111 188.948 185.17Z" fill="#EA9B1C"/>
<path d="M165.914 187.056C179.585 187.056 190.667 174.91 190.667 159.927C190.667 144.944 179.585 132.798 165.914 132.798C152.243 132.798 141.161 144.944 141.161 159.927C141.161 174.91 152.243 187.056 165.914 187.056Z" fill="#CC6017"/>
<g style="mix-blend-mode:multiply" opacity="0.58">
<path d="M169.26 182.748C180.753 180.716 188.568 168.858 186.715 156.262C184.862 143.666 174.042 135.101 162.549 137.132C151.056 139.163 143.241 151.021 145.094 163.617C146.947 176.214 157.767 184.779 169.26 182.748Z" fill="#CC6017"/>
</g>
<path d="M174.392 158.136C174.392 159.62 173.854 160.919 172.776 162.032C171.716 163.127 170.197 163.851 168.218 164.205V167.146H164.481V164.337C163.156 164.267 161.884 164.063 160.665 163.728C159.464 163.392 158.466 162.977 157.671 162.482L159.685 157.924C160.568 158.437 161.558 158.852 162.653 159.17C163.748 159.47 164.799 159.62 165.806 159.62C166.672 159.62 167.29 159.541 167.661 159.382C168.032 159.205 168.218 158.949 168.218 158.613C168.218 158.225 167.971 157.933 167.476 157.739C166.999 157.544 166.204 157.332 165.091 157.103C163.66 156.802 162.467 156.484 161.513 156.149C160.559 155.795 159.729 155.23 159.022 154.453C158.316 153.658 157.962 152.589 157.962 151.246C157.962 149.692 158.519 148.358 159.632 147.245C160.763 146.132 162.379 145.425 164.481 145.125V142.236H168.218V145.072C170.338 145.266 172.131 145.778 173.597 146.609L171.716 151.14C169.896 150.222 168.174 149.762 166.548 149.762C164.941 149.762 164.137 150.151 164.137 150.928C164.137 151.299 164.375 151.582 164.852 151.776C165.329 151.953 166.116 152.147 167.211 152.359C168.624 152.624 169.817 152.933 170.788 153.287C171.76 153.622 172.599 154.179 173.306 154.956C174.03 155.734 174.392 156.794 174.392 158.136Z" fill="#EA9B1C"/>
<path d="M636.468 28.6438H670.105V48.537C670.105 53.0256 668.478 57.3303 665.582 60.5042C662.686 63.6781 658.758 65.4612 654.663 65.4612H651.954C647.858 65.4612 643.93 63.6781 641.035 60.5042C638.139 57.3303 636.512 53.0256 636.512 48.537V28.6438H636.468Z" fill="#EA9B1C"/>
<path d="M645.669 44.8829L650.714 50.4121L660.848 39.3056" stroke="white" stroke-width="5" stroke-miterlimit="10"/>
<path d="M636.468 121.703H670.105V141.596C670.105 146.085 668.478 150.39 665.582 153.563C662.686 156.737 658.758 158.52 654.663 158.52H651.954C647.858 158.52 643.93 156.737 641.035 153.563C638.139 150.39 636.512 146.085 636.512 141.596V121.703H636.468Z" fill="#CC6017"/>
<path d="M652.158 142.411C650.531 142.411 649.071 142.068 647.777 141.382C646.484 140.696 645.474 139.745 644.749 138.53C644.024 137.295 643.661 135.903 643.661 134.355C643.661 132.807 644.024 131.425 644.749 130.21C645.474 128.994 646.474 128.044 647.748 127.358C649.041 126.672 650.511 126.329 652.158 126.329C653.706 126.329 655.059 126.642 656.215 127.27C657.391 127.897 658.273 128.798 658.861 129.974L656.039 131.621C655.588 130.896 655.019 130.357 654.333 130.004C653.667 129.631 652.932 129.445 652.128 129.445C650.756 129.445 649.62 129.896 648.718 130.798C647.816 131.68 647.366 132.865 647.366 134.355C647.366 135.845 647.807 137.04 648.689 137.942C649.59 138.824 650.737 139.265 652.128 139.265C652.932 139.265 653.667 139.088 654.333 138.736C655.019 138.363 655.588 137.814 656.039 137.089L658.861 138.736C658.253 139.912 657.362 140.823 656.186 141.47C655.029 142.097 653.687 142.411 652.158 142.411Z" fill="#EA9B1C"/>
<path d="M636.468 74.8008H670.105V94.694C670.105 99.1826 668.478 103.487 665.582 106.661C662.686 109.835 658.758 111.618 654.663 111.618H651.954C647.858 111.618 643.93 109.835 641.035 106.661C638.139 103.487 636.512 99.1826 636.512 94.694V74.8008H636.468Z" fill="#EA9B1C"/>
<path d="M653.643 82.0248H652.886C650.463 82.0248 648.499 84.1774 648.499 86.8328V90.1263C648.499 92.7817 650.463 94.9344 652.886 94.9344H653.643C656.066 94.9344 658.03 92.7817 658.03 90.1263V86.8328C658.03 84.1774 656.066 82.0248 653.643 82.0248Z" stroke="white" stroke-width="3" stroke-miterlimit="10"/>
<path d="M658.435 86.7728H648.082C646.223 86.7728 644.715 88.4249 644.715 90.4629V98.6486C644.715 100.687 646.223 102.339 648.082 102.339H658.435C660.295 102.339 661.802 100.687 661.802 98.6486V90.4629C661.802 88.4249 660.295 86.7728 658.435 86.7728Z" fill="#CC6017"/>
<path d="M653.423 91.1H653.094C652.016 91.1 651.142 92.0579 651.142 93.2395V93.6001C651.142 94.7818 652.016 95.7397 653.094 95.7397H653.423C654.501 95.7397 655.375 94.7818 655.375 93.6001V93.2395C655.375 92.0579 654.501 91.1 653.423 91.1Z" fill="#EA9B1C"/>
<path d="M97.6421 104.382C119.629 104.382 137.454 89.7012 137.454 71.5914C137.454 53.4816 119.629 38.8007 97.6421 38.8007C75.6549 38.8007 57.8307 53.4816 57.8307 71.5914C57.8307 89.7012 75.6549 104.382 97.6421 104.382Z" fill="#D6E3A6"/>
<path d="M109.673 95.9922L111.198 123.169L84.8872 95.9922H109.673Z" fill="#D6E3A6"/>
<path d="M112.569 55.9894H82.7047" stroke="white" stroke-width="0.97" stroke-miterlimit="10"/>
<path d="M112.569 64.716H82.7047" stroke="white" stroke-width="0.97" stroke-miterlimit="10"/>
<path d="M112.569 73.4425H82.7047" stroke="white" stroke-width="0.97" stroke-miterlimit="10"/>
<path d="M112.569 82.1571H82.7047" stroke="white" stroke-width="0.97" stroke-miterlimit="10"/>
<path d="M424.886 159.734C424.595 159.734 424.316 159.608 424.11 159.382C423.905 159.157 423.789 158.851 423.789 158.532V140.863C423.789 140.544 423.905 140.238 424.11 140.013C424.316 139.788 424.595 139.661 424.886 139.661C425.177 139.661 425.456 139.788 425.661 140.013C425.867 140.238 425.983 140.544 425.983 140.863V158.532C425.983 158.851 425.867 159.157 425.661 159.382C425.456 159.608 425.177 159.734 424.886 159.734Z" fill="#B34F18"/>
<path d="M432.947 150.9H416.825C416.534 150.9 416.255 150.773 416.05 150.548C415.844 150.322 415.728 150.017 415.728 149.698C415.728 149.379 415.844 149.073 416.05 148.848C416.255 148.622 416.534 148.496 416.825 148.496H432.947C433.238 148.496 433.517 148.622 433.723 148.848C433.928 149.073 434.044 149.379 434.044 149.698C434.044 150.017 433.928 150.322 433.723 150.548C433.517 150.773 433.238 150.9 432.947 150.9Z" fill="#B34F18"/>
<path d="M198.509 99.3578C198.218 99.3578 197.939 99.2311 197.733 99.0057C197.528 98.7803 197.412 98.4745 197.412 98.1557V80.5343C197.412 80.2156 197.528 79.9098 197.733 79.6844C197.939 79.459 198.218 79.3323 198.509 79.3323C198.8 79.3323 199.079 79.459 199.284 79.6844C199.49 79.9098 199.606 80.2156 199.606 80.5343V98.2038C199.594 98.5142 199.474 98.8077 199.269 99.0229C199.065 99.238 198.792 99.358 198.509 99.3578V99.3578Z" fill="#B34F18"/>
<path d="M206.548 90.523H190.426C190.135 90.523 189.856 90.3964 189.65 90.171C189.445 89.9456 189.329 89.6398 189.329 89.321C189.329 89.0022 189.445 88.6965 189.65 88.4711C189.856 88.2457 190.135 88.119 190.426 88.119H206.548C206.839 88.119 207.118 88.2457 207.323 88.4711C207.529 88.6965 207.645 89.0022 207.645 89.321C207.645 89.6398 207.529 89.9456 207.323 90.171C207.118 90.3964 206.839 90.523 206.548 90.523Z" fill="#B34F18"/>
<path d="M619.918 205.639C619.627 205.639 619.348 205.512 619.143 205.287C618.937 205.062 618.821 204.756 618.821 204.437V186.792C618.821 186.473 618.937 186.167 619.143 185.942C619.348 185.716 619.627 185.59 619.918 185.59C620.209 185.59 620.488 185.716 620.694 185.942C620.899 186.167 621.015 186.473 621.015 186.792V204.461C621.009 204.776 620.891 205.075 620.686 205.296C620.481 205.516 620.205 205.639 619.918 205.639Z" fill="#B34F18"/>
<path d="M627.979 196.792H611.857C611.615 196.732 611.399 196.583 611.244 196.37C611.089 196.157 611.004 195.893 611.004 195.62C611.004 195.348 611.089 195.084 611.244 194.871C611.399 194.658 611.615 194.509 611.857 194.448H627.979C628.14 194.408 628.307 194.408 628.467 194.449C628.628 194.489 628.778 194.568 628.907 194.681C629.036 194.793 629.14 194.936 629.211 195.099C629.283 195.262 629.32 195.44 629.32 195.62C629.32 195.801 629.283 195.979 629.211 196.142C629.14 196.304 629.036 196.447 628.907 196.56C628.778 196.673 628.628 196.752 628.467 196.792C628.307 196.832 628.14 196.832 627.979 196.792Z" fill="#B34F18"/>
<path d="M253.938 245.906C253.647 245.906 253.368 245.78 253.162 245.554C252.957 245.329 252.841 245.023 252.841 244.704V227.059C252.805 226.883 252.805 226.7 252.841 226.524C252.878 226.348 252.95 226.183 253.053 226.042C253.156 225.901 253.286 225.787 253.435 225.709C253.583 225.63 253.746 225.59 253.91 225.59C254.075 225.59 254.238 225.63 254.386 225.709C254.535 225.787 254.665 225.901 254.768 226.042C254.871 226.183 254.943 226.348 254.98 226.524C255.016 226.7 255.016 226.883 254.98 227.059V244.728C254.975 245.033 254.864 245.324 254.671 245.542C254.477 245.761 254.215 245.891 253.938 245.906Z" fill="#B34F18"/>
<path d="M261.999 237.072H245.877C245.586 237.072 245.307 236.945 245.101 236.719C244.896 236.494 244.78 236.188 244.78 235.87C244.78 235.551 244.896 235.245 245.101 235.02C245.307 234.794 245.586 234.667 245.877 234.667H261.999C262.29 234.667 262.569 234.794 262.775 235.02C262.98 235.245 263.096 235.551 263.096 235.87C263.096 236.188 262.98 236.494 262.775 236.719C262.569 236.945 262.29 237.072 261.999 237.072Z" fill="#B34F18"/>
<path d="M575.523 20.0134C575.232 20.0134 574.953 19.8868 574.747 19.6613C574.541 19.4359 574.426 19.1302 574.426 18.8114V1.20201C574.426 0.883214 574.541 0.577479 574.747 0.352059C574.953 0.12664 575.232 0 575.523 0C575.813 0 576.092 0.12664 576.298 0.352059C576.504 0.577479 576.619 0.883214 576.619 1.20201V18.8715C576.605 19.1797 576.483 19.4703 576.279 19.6828C576.075 19.8954 575.804 20.0138 575.523 20.0134V20.0134Z" fill="#B34F18"/>
<path d="M583.583 11.1786H567.461C567.171 11.1786 566.892 11.052 566.686 10.8266C566.48 10.6012 566.365 10.2954 566.365 9.97663C566.365 9.65784 566.48 9.35211 566.686 9.12669C566.892 8.90127 567.171 8.77463 567.461 8.77463H583.583C583.874 8.77463 584.153 8.90127 584.359 9.12669C584.565 9.35211 584.68 9.65784 584.68 9.97663C584.68 10.2954 584.565 10.6012 584.359 10.8266C584.153 11.052 583.874 11.1786 583.583 11.1786Z" fill="#B34F18"/>
</svg>
