<svg width="397" height="210" viewBox="0 0 397 210" fill="none" xmlns="http://www.w3.org/2000/svg">
<path d="M395.874 194.046C397.162 194.046 394.345 159.073 393.941 155.987C392.229 142.522 389.1 129.311 384.615 116.608C376.256 93.3325 363.36 74.9895 343.168 67.1706C326.096 60.562 307.124 63.6242 291.261 73.4644C276.257 82.7903 264.891 98.416 251.146 110.023C242.319 117.361 232.294 122.856 221.589 126.224C201.683 132.436 180.532 132.316 160.687 125.879C129.337 115.434 103.585 87.9161 66.574 94.5852C64.9944 94.8697 63.4317 95.1904 61.8858 95.608C36.9437 102.035 26.2013 119.815 17.2633 138.654C8.84805 156.374 3.46277 175.213 0 194.046H395.874Z" fill="#C0D76F"/>
<path d="M197.31 26.2406H197.243C195.157 26.5856 193.029 26.5221 190.964 26.053C189.012 25.6008 187.109 24.9315 185.286 24.0559C183.504 23.2147 181.807 22.2404 180.16 21.3205L175.258 18.452C172.037 16.6001 168.788 14.948 165.387 14.2762C161.979 13.6108 158.466 14.0185 155.268 15.4503C152.023 16.8717 149.243 19.298 147.28 22.4219C145.305 25.5683 144.189 29.2479 144.059 33.0428C144.059 33.1941 144.059 33.3394 144.059 33.4846C144.059 35.2457 144.318 37.0733 144.391 39.022C144.469 41.0917 144.25 43.3732 143.047 45.2796C142.447 46.248 141.586 46.9955 140.579 47.4219C139.552 47.8765 138.403 47.8938 137.364 47.4703C136.825 47.2441 136.355 46.8631 136.004 46.3689C135.664 45.8905 135.428 45.3363 135.312 44.747C135.192 44.146 135.212 43.5225 135.368 42.9315C135.526 42.3176 135.87 41.7784 136.347 41.4004C136.465 41.3103 136.612 41.2733 136.755 41.297C136.899 41.3207 137.028 41.4033 137.117 41.5274C137.198 41.6536 137.231 41.8082 137.21 41.9598C137.189 42.1114 137.116 42.2489 137.004 42.3444C136.743 42.6051 136.556 42.9401 136.464 43.3108C136.373 43.6814 136.38 44.0724 136.487 44.4384C136.559 44.824 136.721 45.1837 136.957 45.4841C137.193 45.7846 137.495 46.016 137.836 46.1571C138.576 46.416 139.379 46.3641 140.085 46.0118C140.813 45.6716 141.427 45.0992 141.844 44.3718C142.71 42.8952 142.884 40.9767 142.744 39.0946C142.603 37.2125 142.221 35.1852 142.221 33.0428C142.215 28.8047 143.326 24.6516 145.425 21.0663C146.475 19.2553 147.771 17.6234 149.27 16.2249C151.544 14.1296 154.207 12.5817 157.082 11.6852C159.956 10.7886 162.976 10.564 165.937 11.0264C169.901 11.6618 173.509 13.3684 176.877 15.1537L181.863 17.8286C183.521 18.7061 185.157 19.5413 186.81 20.2493C188.38 20.963 190.015 21.4984 191.689 21.847C193.278 22.1559 194.906 22.1559 196.495 21.847H196.529C196.798 21.7869 197.076 21.7847 197.346 21.8405C197.616 21.8963 197.873 22.009 198.102 22.1721C198.331 22.3352 198.528 22.5455 198.682 22.7909C198.836 23.0363 198.943 23.312 198.997 23.602V23.6444C199.045 23.9341 199.039 24.2311 198.98 24.5184C198.921 24.8057 198.81 25.0776 198.653 25.3187C198.497 25.5599 198.298 25.7654 198.067 25.9236C197.837 26.0817 197.58 26.1895 197.31 26.2406V26.2406Z" fill="#142216"/>
<g style="mix-blend-mode:multiply">
<path d="M197.31 26.2406H197.243C195.157 26.5857 193.029 26.5221 190.964 26.053C189.012 25.6008 187.109 24.9315 185.286 24.0559C183.504 23.2147 181.807 22.2404 180.16 21.3205L175.258 18.452C172.037 16.6001 168.788 14.948 165.387 14.2762C161.979 13.6108 158.466 14.0185 155.268 15.4503C152.023 16.8717 149.243 19.298 147.28 22.4219C145.305 25.5683 144.189 29.2479 144.059 33.0428C144.103 28.3594 145.489 23.8048 148.028 20.0012C150.766 15.9597 154.879 13.2488 159.467 12.4607C164.212 11.7405 169.024 13.3382 173.346 15.5168C177.669 17.6955 181.779 20.4612 186.242 22.307C190.295 23.9712 194.843 24.8366 199.002 23.6505C199.097 24.2355 198.972 24.837 198.655 25.3228C198.337 25.8085 197.854 26.1387 197.31 26.2406V26.2406Z" fill="#BFD4EA"/>
</g>
<path d="M196.444 26.2406H196.512C198.598 26.5856 200.725 26.522 202.791 26.0529C204.743 25.6007 206.645 24.9314 208.468 24.0559C210.25 23.2147 211.948 22.2403 213.595 21.3204L218.497 18.4519C221.718 16.6 224.967 14.9479 228.368 14.2761C231.776 13.6108 235.289 14.0184 238.487 15.4502C241.734 16.8663 244.518 19.2885 246.486 22.4098C248.461 25.5561 249.577 29.2357 249.707 33.0307C249.707 33.182 249.707 33.3272 249.707 33.4724C249.707 35.2335 249.448 37.0612 249.375 39.0098C249.297 41.0796 249.516 43.3611 250.719 45.2674C251.318 46.2343 252.177 46.9816 253.181 47.4097C254.21 47.8647 255.361 47.882 256.402 47.4581C256.94 47.2319 257.411 46.8509 257.762 46.3567C258.102 45.8783 258.338 45.3242 258.454 44.7348C258.574 44.1339 258.554 43.5103 258.398 42.9193C258.245 42.3238 257.915 41.7986 257.459 41.4245C257.34 41.3363 257.195 41.3003 257.053 41.324C256.911 41.3476 256.782 41.4291 256.694 41.5516C256.613 41.6778 256.58 41.8323 256.601 41.9839C256.622 42.1356 256.695 42.2731 256.807 42.3686C257.068 42.6292 257.255 42.9643 257.347 43.3349C257.438 43.7056 257.43 44.0966 257.324 44.4625C257.251 44.8477 257.089 45.2069 256.853 45.5072C256.617 45.8075 256.315 46.0392 255.975 46.1812C255.235 46.4383 254.432 46.3865 253.726 46.036C252.999 45.6954 252.387 45.1229 251.972 44.3959C251.107 42.9193 250.932 41.0009 251.073 39.1188C251.213 37.2367 251.596 35.2093 251.596 33.067C251.599 28.8293 250.488 24.6772 248.391 21.0905C247.341 19.2794 246.045 17.6476 244.546 16.249C242.273 14.1537 239.61 12.6059 236.735 11.7093C233.86 10.8127 230.841 10.5881 227.879 11.0505C223.916 11.686 220.307 13.3926 216.94 15.1779L211.954 17.8528C210.295 18.7303 208.66 19.5654 207.007 20.2735C205.413 20.9754 203.755 21.4947 202.06 21.8227C200.471 22.1317 198.843 22.1317 197.254 21.8227H197.22C196.678 21.7127 196.118 21.8381 195.662 22.1715C195.206 22.505 194.891 23.0193 194.786 23.602C194.786 23.602 194.786 23.6322 194.786 23.6443C194.692 24.2246 194.813 24.8214 195.123 25.3068C195.433 25.7922 195.907 26.1274 196.444 26.2406Z" fill="#142216"/>
<g style="mix-blend-mode:multiply">
<path d="M196.445 26.2406H196.512C198.599 26.5856 200.726 26.5221 202.791 26.053C204.743 25.6008 206.646 24.9315 208.469 24.0559C210.251 23.2147 211.948 22.2404 213.595 21.3205L218.497 18.4519C221.718 16.6001 224.968 14.948 228.368 14.2762C231.776 13.6108 235.289 14.0185 238.487 15.4503C241.735 16.8664 244.519 19.2886 246.486 22.4098C248.461 25.5562 249.577 29.2358 249.707 33.0307C249.663 28.3473 248.277 23.7926 245.739 19.9891C243 15.9475 238.888 13.2367 234.299 12.4486C229.555 11.7284 224.743 13.3261 220.42 15.5047C216.097 17.6834 211.988 20.449 207.524 22.2948C203.494 23.9712 198.946 24.8124 194.781 23.6504C194.688 24.2307 194.811 24.8267 195.122 25.3109C195.433 25.795 195.908 26.1288 196.445 26.2406V26.2406Z" fill="#BFD4EA"/>
</g>
<path d="M194.449 126.882H194.224C179.811 126.882 192.791 68.1795 192.791 68.1795H193.195L195.5 23.1178H197.872V68.2037C197.872 68.2037 208.519 126.277 194.449 126.882Z" fill="#142216"/>
<g style="mix-blend-mode:multiply">
<path d="M194.449 126.882C197.429 118.222 198.508 108.836 198.457 99.5642C198.423 88.8873 197.643 78.2283 196.124 67.6773L196.889 24.0438H197.873V68.2219C197.873 68.2219 208.52 126.277 194.449 126.882Z" fill="#BFD4EA"/>
</g>
<path d="M195.556 73.8501C199.375 73.8501 202.471 70.5174 202.471 66.4064C202.471 62.2953 199.375 58.9626 195.556 58.9626C191.738 58.9626 188.642 62.2953 188.642 66.4064C188.642 70.5174 191.738 73.8501 195.556 73.8501Z" fill="#D97C2F"/>
<g style="mix-blend-mode:multiply">
<path d="M202.471 66.4064C202.472 68.0297 201.981 69.6091 201.07 70.9034C200.16 72.1978 198.882 73.136 197.43 73.5749C195.978 74.0138 194.433 73.9293 193.03 73.3343C191.627 72.7393 190.443 71.6664 189.66 70.2795C190.741 70.9968 191.987 71.3742 193.257 71.3688C194.485 71.3684 195.69 71.0163 196.749 70.3486C197.808 69.6809 198.683 68.7217 199.284 67.5695C199.885 66.4174 200.19 65.1138 200.168 63.7926C200.147 62.4715 199.798 61.1804 199.16 60.052C200.171 60.7169 201.007 61.6505 201.587 62.7632C202.167 63.876 202.471 65.1305 202.471 66.4064V66.4064Z" fill="#BFD4EA"/>
</g>
<path d="M197.805 52.584L193.567 52.6869C191.284 52.7414 191.273 56.5722 193.567 56.5177L197.805 56.4148C200.088 56.3543 200.121 52.5296 197.805 52.584Z" fill="#D97C2F"/>
<path d="M196.889 29.5812C199.73 29.5812 202.032 27.102 202.032 24.0438C202.032 20.9856 199.73 18.5064 196.889 18.5064C194.048 18.5064 191.745 20.9856 191.745 24.0438C191.745 27.102 194.048 29.5812 196.889 29.5812Z" fill="#D97C2F"/>
<path d="M196.889 27.8382C196.197 27.8382 195.521 27.6175 194.946 27.2039C194.371 26.7902 193.923 26.2024 193.658 25.5145C193.394 24.8267 193.325 24.0699 193.46 23.3397C193.594 22.6095 193.927 21.9388 194.416 21.4123C194.905 20.8859 195.528 20.5274 196.207 20.3821C196.885 20.2369 197.588 20.3114 198.227 20.5964C198.866 20.8813 199.412 21.3637 199.796 21.9827C200.18 22.6018 200.385 23.3295 200.385 24.074C200.384 25.0719 200.015 26.0284 199.36 26.734C198.704 27.4395 197.816 27.8366 196.889 27.8382V27.8382ZM196.889 21.3991C196.397 21.3991 195.917 21.556 195.508 21.8499C195.1 22.1439 194.781 22.5616 194.593 23.0504C194.405 23.5392 194.356 24.077 194.452 24.5959C194.548 25.1148 194.784 25.5914 195.132 25.9655C195.479 26.3396 195.922 26.5943 196.404 26.6975C196.886 26.8007 197.386 26.7478 197.84 26.5453C198.294 26.3429 198.682 26 198.955 25.5601C199.228 25.1202 199.373 24.6031 199.373 24.074C199.376 23.7204 199.314 23.3697 199.191 23.042C199.067 22.7144 198.885 22.4162 198.654 22.1648C198.423 21.9134 198.148 21.7136 197.845 21.577C197.542 21.4404 197.217 21.3697 196.889 21.3689V21.3991Z" fill="#142216"/>
<path d="M221.218 132.789V143.869L211.223 143.331L168.585 141.037L168.681 139.476L168.995 134.18L169.423 127.112C169.423 127.112 196.832 118.482 218.806 131.288C219.616 131.756 220.42 132.256 221.218 132.789Z" fill="#D97C2F"/>
<path d="M221.218 135.512V143.869L168.585 141.037L168.995 134.18C177.86 134.495 208.991 135.227 221.218 135.512Z" fill="#FFB549"/>
<path d="M232.911 153.407L174.583 154.248L159.344 154.472L160.339 139.228L168.681 139.476L214.27 140.801L221.218 141.007L231.084 141.291L232.911 153.407Z" fill="#142216"/>
<g style="mix-blend-mode:multiply">
<path d="M232.911 153.407L174.583 154.248L174.218 153.213C174.218 153.213 199.228 151.543 211.224 143.331C212.315 142.6 213.336 141.752 214.27 140.801C216.519 138.483 217.941 135.118 218.807 131.288C219.616 131.756 220.42 132.256 221.218 132.789V141.007L231.084 141.291L232.911 153.407Z" fill="#BFD4EA"/>
</g>
<path d="M112.697 80.2407C112.575 80.2419 112.457 80.1945 112.365 80.1076C112.315 80.0611 112.273 80.0044 112.243 79.9406C112.213 79.8768 112.195 79.8072 112.189 79.7359C112.184 79.6645 112.192 79.5927 112.213 79.5246C112.233 79.4565 112.266 79.3934 112.309 79.339L138.876 45.9331C138.922 45.8741 138.98 45.8264 139.045 45.793C139.11 45.7597 139.181 45.7414 139.253 45.7394V45.7394C139.324 45.7391 139.394 45.7552 139.459 45.7865C139.524 45.8178 139.582 45.8636 139.629 45.921L167.517 79.3269C167.607 79.4355 167.653 79.5779 167.645 79.723C167.638 79.868 167.578 80.0041 167.477 80.1015C167.378 80.1977 167.246 80.2473 167.112 80.2394C166.979 80.2314 166.853 80.1666 166.764 80.0592L139.269 47.1132L113.079 80.0471C113.032 80.1071 112.974 80.1555 112.908 80.1889C112.842 80.2223 112.77 80.24 112.697 80.2407V80.2407Z" fill="#142216"/>
<path d="M128.128 79.3451C128.047 79.3436 127.967 79.3212 127.895 79.2797C127.823 79.2383 127.762 79.179 127.715 79.1068C127.669 79.0346 127.64 78.9515 127.629 78.8645C127.619 78.7776 127.628 78.6892 127.656 78.6068L138.786 46.0965C138.809 46.0295 138.843 45.968 138.888 45.9155C138.933 45.863 138.987 45.8206 139.047 45.7908C139.107 45.7609 139.172 45.7443 139.239 45.7417C139.305 45.7391 139.371 45.7507 139.433 45.7758C139.496 45.8001 139.553 45.8376 139.603 45.8862C139.652 45.9347 139.692 45.9933 139.72 46.0586C139.749 46.1239 139.765 46.1945 139.767 46.2665C139.77 46.3385 139.759 46.4103 139.736 46.4778L128.606 78.982C128.571 79.0883 128.506 79.1804 128.421 79.2454C128.335 79.3104 128.233 79.3453 128.128 79.3451V79.3451Z" fill="#142216"/>
<path d="M142.637 102.881C141.839 102.929 141.012 102.953 140.164 102.953H139.77C138.001 102.953 136.337 102.874 134.778 102.717C109.988 100.248 111.09 79.3753 111.09 79.3753C111.09 79.3753 114.525 78.8367 120 78.2739C121.917 78.0802 124.081 77.8745 126.436 77.699C135.599 77.003 147.623 76.6157 158.945 77.8624C162.194 78.2255 165.392 78.7157 168.445 79.3753C168.445 79.3632 169.614 101.41 142.637 102.881Z" fill="#EA9B1C"/>
<g style="mix-blend-mode:multiply">
<path d="M140.388 102.881C155.886 98.5414 157.033 85.8447 156.69 77.8685C159.939 78.2316 163.132 78.7218 166.185 79.3814C166.196 79.3633 167.365 101.41 140.388 102.881Z" fill="#DBC8AA"/>
</g>
<g style="mix-blend-mode:soft-light">
<path d="M137.921 102.935H137.522C135.753 102.935 134.089 102.856 132.53 102.699C127.799 101.131 123.728 97.8261 121.028 93.3595C118.327 88.893 117.168 83.5481 117.752 78.2558C119.668 78.0622 121.838 77.8564 124.194 77.6809C123.264 82.9362 124.101 88.3763 126.555 93.0283C129.082 97.7233 133.129 101.25 137.921 102.935V102.935Z" fill="white"/>
</g>
<path d="M228.127 80.2407C228.005 80.2419 227.887 80.1945 227.795 80.1076C227.745 80.0611 227.703 80.0044 227.673 79.9406C227.642 79.8768 227.624 79.8072 227.619 79.7359C227.614 79.6645 227.622 79.5927 227.642 79.5246C227.663 79.4565 227.696 79.3934 227.739 79.339L254.3 45.9331C254.348 45.874 254.406 45.8262 254.472 45.7929C254.538 45.7595 254.609 45.7413 254.682 45.7394V45.7394C254.753 45.7391 254.824 45.7552 254.889 45.7865C254.954 45.8178 255.012 45.8636 255.059 45.921L282.924 79.3269C283.014 79.4355 283.06 79.5779 283.053 79.723C283.045 79.868 282.985 80.0041 282.885 80.1015C282.785 80.1977 282.653 80.2473 282.52 80.2394C282.386 80.2314 282.26 80.1666 282.171 80.0592L254.699 47.1132L228.509 80.0471C228.462 80.1071 228.404 80.1555 228.338 80.1889C228.272 80.2223 228.2 80.24 228.127 80.2407V80.2407Z" fill="#142216"/>
<path d="M243.563 79.3451C243.481 79.3446 243.401 79.3229 243.328 79.2818C243.256 79.2408 243.193 79.1816 243.147 79.1092C243.1 79.0369 243.07 78.9535 243.059 78.866C243.048 78.7786 243.057 78.6897 243.085 78.6068L254.21 46.0965C254.265 45.9721 254.361 45.8743 254.479 45.8224C254.598 45.7705 254.73 45.7682 254.85 45.8161C254.97 45.8639 255.069 45.9584 255.127 46.0809C255.186 46.2034 255.199 46.345 255.166 46.4778L244.035 78.982C244.001 79.0874 243.937 79.1787 243.852 79.2437C243.768 79.3086 243.667 79.3441 243.563 79.3451Z" fill="#142216"/>
<path d="M258.207 102.881C257.408 102.929 256.582 102.953 255.733 102.953H255.34C253.567 102.953 251.903 102.874 250.348 102.717C225.558 100.248 226.659 79.3753 226.659 79.3753C226.659 79.3753 230.094 78.8367 235.569 78.2739C237.481 78.0802 239.65 77.8745 242.006 77.699C251.169 77.003 263.193 76.6157 274.514 77.8624C277.763 78.2255 280.962 78.7157 284.009 79.3753C284.009 79.3632 285.184 101.41 258.207 102.881Z" fill="#EA9B1C"/>
<g style="mix-blend-mode:multiply">
<path d="M258.207 102.881C273.705 98.5414 274.846 85.8447 274.509 77.8685C277.758 78.2316 280.957 78.7218 284.004 79.3814C284.009 79.3633 285.184 101.41 258.207 102.881Z" fill="#DBC8AA"/>
</g>
<g style="mix-blend-mode:soft-light">
<path d="M255.733 102.935H255.34C253.567 102.935 251.903 102.856 250.348 102.699C245.616 101.133 241.544 97.8286 238.843 93.3615C236.142 88.8944 234.984 83.5484 235.569 78.2558C237.481 78.0622 239.651 77.8564 242.006 77.6809C241.081 82.9363 241.918 88.3744 244.367 93.0283C246.896 97.7218 250.943 101.248 255.733 102.935V102.935Z" fill="white"/>
</g>
<path d="M198.569 153.764L193.965 180.392L176.258 180.005L173.189 179.932L151.946 179.46C151.895 179.369 151.85 179.278 151.805 179.188C147.477 171.058 147.523 162.933 151.946 154.811L172.357 154.357L175.347 154.284L180.693 154.17L198.569 153.764Z" fill="#BD4A2C"/>
<path d="M158.916 154.648C158.916 154.648 150.956 165.486 158.916 179.605L167.017 179.787C167.017 179.787 159.619 169.311 167.017 154.472L158.916 154.648Z" fill="#8A2C08"/>
<path d="M176.258 179.999L173.189 179.926C171.047 176.089 169.847 171.728 169.702 167.254C169.556 162.78 170.47 158.34 172.357 154.351L175.347 154.278C173.17 158.2 172.098 162.718 172.259 167.284C172.421 171.849 173.81 176.266 176.258 179.999V179.999Z" fill="#F7EEDF"/>
<g style="mix-blend-mode:multiply">
<path d="M198.57 153.764L193.966 180.392L176.258 180.005L173.189 179.932L151.946 179.46C151.895 179.369 151.85 179.278 151.805 179.188C158.5 178.994 164.95 176.442 170.168 171.923C175.386 167.404 179.084 161.168 180.694 154.17L198.57 153.764Z" fill="#BFD4EA"/>
</g>
<path d="M210.296 175.829L210.858 157.51H232.916V153.002L185.629 154.055C183.564 158.054 182.48 162.554 182.48 167.129C182.48 171.705 183.564 176.205 185.629 180.204L232.916 181.257V176.416L210.296 175.829Z" fill="#DB5633"/>
<path d="M227.362 167.901C227.525 170.757 228.029 173.578 228.863 176.295L187.265 175.242C186.064 172.775 185.408 170.044 185.348 167.259C185.277 163.894 185.933 160.556 187.265 157.51H228.863C227.598 160.794 227.083 164.358 227.362 167.901V167.901Z" fill="white"/>
<path d="M190.053 160.669C192.86 160.576 195.671 160.536 198.485 160.548C201.296 160.548 204.107 160.59 206.917 160.645C209.728 160.699 212.539 160.796 215.349 160.917C218.16 161.038 220.971 161.202 223.753 161.42C220.943 161.508 218.132 161.549 215.321 161.541C212.511 161.541 209.7 161.492 206.889 161.438C204.079 161.383 201.268 161.286 198.457 161.159C195.647 161.032 192.853 160.881 190.053 160.669Z" fill="#7197D5"/>
<path d="M205.456 164.881C206.979 164.748 208.502 164.694 210.026 164.669C211.549 164.645 213.067 164.669 214.585 164.669C216.102 164.669 217.626 164.76 219.144 164.857C220.661 164.954 222.179 165.069 223.697 165.262C222.174 165.396 220.65 165.45 219.132 165.474C217.615 165.498 216.091 165.474 214.568 165.474C213.044 165.474 211.532 165.39 210.015 165.293C208.497 165.196 206.973 165.075 205.456 164.881Z" fill="#7197D5"/>
<path d="M200.341 172.034C201.527 171.889 202.713 171.823 203.905 171.786C205.096 171.75 206.277 171.75 207.463 171.786C208.649 171.823 209.835 171.847 211.021 171.932C212.207 172.016 213.393 172.119 214.58 172.301C213.388 172.446 212.202 172.512 211.016 172.549C209.829 172.585 208.638 172.591 207.452 172.579C206.266 172.567 205.079 172.512 203.893 172.428C202.707 172.343 201.521 172.216 200.341 172.034Z" fill="#7197D5"/>
<path d="M191.127 168.73C193.229 168.609 195.337 168.542 197.44 168.518C199.542 168.494 201.644 168.518 203.741 168.518C205.838 168.518 207.946 168.609 210.048 168.706C212.151 168.803 214.247 168.924 216.35 169.111C214.247 169.232 212.139 169.305 210.037 169.323C207.935 169.341 205.838 169.323 203.735 169.323C201.633 169.323 199.531 169.232 197.428 169.136C195.326 169.039 193.223 168.918 191.127 168.73Z" fill="#7197D5"/>
<g style="mix-blend-mode:multiply">
<path d="M228.863 176.295L187.265 175.242C186.064 172.775 185.408 170.044 185.348 167.26C199.353 167.74 213.359 167.953 227.368 167.901C227.529 170.757 228.031 173.578 228.863 176.295V176.295Z" fill="#BFD4EA"/>
</g>
<path d="M194.112 164.651H189.052C191.734 168.797 192.425 173.396 191.099 177.965C192.571 177.063 194.095 176.15 195.568 175.248C196.138 176.294 196.842 177.25 197.659 178.086C198.106 175.705 198.018 173.242 197.401 170.905C196.784 168.568 195.656 166.423 194.112 164.651V164.651Z" fill="#C12C22"/>
<path d="M246.391 179.878L196.878 178.667L146.285 177.457V179.502L165.921 180.343V192.054L146.28 192.447V194.698L198.249 194.202L246.391 193.742C249.128 188.992 249.066 184.374 246.391 179.878Z" fill="#0E537E"/>
<path d="M246.391 193.754L240.769 193.803L208.851 194.105H207.614L198.238 194.196L198.311 193.978C201.217 186.008 198.513 180.864 196.861 178.685L205.163 178.885L208.064 178.952L232.978 179.557L240.544 179.738L246.374 179.878C249.066 184.374 249.128 188.992 246.391 193.754Z" fill="#4A80BD"/>
<path d="M197.097 186.849C197.12 188.468 196.731 190.063 195.972 191.461L150.76 192.369C151.474 190.871 151.915 189.24 152.058 187.563C152.235 184.793 151.581 182.036 150.192 179.696L195.972 181.554C196.692 183.213 197.075 185.018 197.097 186.849V186.849Z" fill="white"/>
<path d="M153.745 181.754C156.406 181.665 159.067 181.627 161.727 181.639C164.386 181.639 167.045 181.681 169.704 181.729C172.363 181.778 175.022 181.875 177.681 181.99C180.34 182.105 182.999 182.256 185.658 182.462C182.993 182.55 180.33 182.589 177.67 182.577C175.011 182.577 172.352 182.534 169.693 182.486C167.034 182.437 164.375 182.341 161.716 182.22C159.057 182.099 156.398 181.953 153.745 181.754Z" fill="#7197D5"/>
<path d="M176.545 185.348C177.99 185.221 179.429 185.173 180.873 185.149C182.318 185.124 183.757 185.149 185.202 185.149C186.647 185.149 188.086 185.233 189.525 185.324C190.964 185.415 192.403 185.524 193.842 185.711C192.397 185.839 190.958 185.887 189.513 185.911C188.069 185.935 186.63 185.911 185.185 185.911C183.74 185.911 182.301 185.826 180.862 185.736C179.423 185.645 177.984 185.53 176.545 185.348Z" fill="#7197D5"/>
<path d="M155.459 188.586C157.455 188.471 159.445 188.404 161.44 188.386C163.436 188.368 165.432 188.386 167.422 188.386C169.411 188.386 171.413 188.471 173.403 188.562C175.393 188.653 177.388 188.774 179.384 188.949C177.383 189.064 175.393 189.131 173.397 189.149C171.401 189.167 169.406 189.149 167.416 189.149C165.426 189.149 163.425 189.064 161.435 188.973C159.445 188.883 157.449 188.762 155.459 188.586Z" fill="#7197D5"/>
<path d="M240.786 193.803L208.868 194.105C211.611 187.781 209.396 181.675 208.081 178.976L240.561 179.738C243.074 185.076 241.719 190.952 240.786 193.803Z" fill="#0E537E"/>
<path d="M226.232 188.98C232.634 188.98 237.823 187.885 237.823 186.535C237.823 185.184 232.634 184.09 226.232 184.09C219.83 184.09 214.641 185.184 214.641 186.535C214.641 187.885 219.83 188.98 226.232 188.98Z" fill="#25669C"/>
<g style="mix-blend-mode:multiply">
<path d="M197.097 186.849C197.12 188.468 196.731 190.063 195.972 191.461L150.76 192.368C151.474 190.871 151.914 189.24 152.058 187.563C167.071 187.652 182.084 187.414 197.097 186.849Z" fill="#BFD4EA"/>
</g>
<g style="mix-blend-mode:multiply">
<path d="M246.391 193.754L240.769 193.803L208.851 194.105H207.614L198.238 194.196L198.311 193.978C200.015 193.103 201.577 191.938 202.937 190.529C202.438 186.485 203.231 182.379 205.186 178.885L208.086 178.952L233 179.557L240.567 179.738L246.396 179.878C249.066 184.374 249.128 188.992 246.391 193.754Z" fill="#BFD4EA"/>
</g>
<path d="M190.317 184.09H192.78C192.895 185.381 192.764 186.685 192.392 187.92C192.021 189.154 191.418 190.294 190.621 191.267C189.817 192.224 188.835 192.988 187.738 193.509C186.642 194.031 185.456 194.298 184.258 194.293C184.527 193.567 184.724 192.968 184.994 192.241C183.717 192.436 182.425 192.495 181.138 192.417C183.258 192.026 185.289 191.204 187.124 189.996C188.035 189.334 188.795 188.458 189.348 187.436C189.901 186.413 190.232 185.269 190.317 184.09V184.09Z" fill="#FFB549"/>
<path d="M331.437 189.034C331.791 189.548 332.69 189.639 334.489 189.094C341.213 187.148 347.74 184.484 353.973 181.142L355.159 180.495C355.901 180.077 356.637 179.66 357.374 179.224C362.419 176.276 367.227 172.879 371.747 169.069L372.984 168.01C373.265 167.768 373.546 167.52 373.833 167.266C378.782 162.902 383.151 157.827 386.818 152.185C387.071 151.779 387.324 151.368 387.566 150.974C390.377 146.23 392.384 141.11 392.625 136.038C392.625 135.687 392.625 135.33 392.625 134.979C392.653 131.619 391.783 128.32 390.117 125.477C388.452 122.635 386.061 120.368 383.232 118.948C382.968 118.809 382.704 118.67 382.428 118.543C381.815 118.248 381.188 117.988 380.551 117.762C378.445 117.013 376.247 116.605 374.03 116.552C373.737 116.552 373.468 116.552 373.147 116.552C368.775 116.676 364.511 118.034 360.78 120.491C360.505 120.661 360.218 120.842 359.959 121.03C355.923 123.85 352.528 127.612 350.026 132.038C349.981 132.105 349.948 132.177 349.908 132.244L349.431 133.115C346.181 139.167 343.809 145.594 341.83 152.191C341.667 152.729 341.504 153.28 341.347 153.825C339.374 160.524 337.704 167.344 335.726 174.007C334.68 177.596 333.55 181.161 332.24 184.652C331.791 185.705 331.442 186.804 331.2 187.932C331.144 188.319 331.229 188.713 331.437 189.034V189.034Z" fill="#3E3E15"/>
<path d="M329.283 190.94C330.009 190.335 330.722 189.675 331.436 189.034C334.333 186.436 337.161 183.757 339.919 180.997C345.003 181.299 350.101 181.131 355.159 180.495C355.901 180.077 356.637 179.66 357.373 179.224C351.892 180.069 346.35 180.358 340.818 180.089C341.887 179.006 342.949 177.917 344 176.809C346.249 174.441 348.428 172.02 350.538 169.547C350.538 169.547 350.588 169.547 350.617 169.547C353.086 169.624 355.554 169.656 358.02 169.644C362.603 169.62 367.179 169.418 371.747 169.039L372.984 167.98C365.78 168.602 358.549 168.804 351.325 168.585C354.81 164.494 358.149 160.258 361.342 155.876C361.386 155.893 361.431 155.903 361.477 155.906C363.654 155.906 365.826 155.822 367.992 155.652C374.362 155.161 380.67 153.977 386.818 152.118C387.071 151.712 387.324 151.301 387.566 150.908C386.37 151.291 385.167 151.644 383.957 151.967C376.785 153.892 369.425 154.893 362.034 154.95C363.671 152.695 365.266 150.407 366.817 148.087C367.706 146.756 368.582 145.407 369.443 144.057C369.492 144.103 369.551 144.135 369.615 144.15C369.679 144.165 369.745 144.162 369.808 144.142C371.85 143.649 373.878 143.105 375.89 142.508C381.62 140.783 387.221 138.598 392.648 135.972C392.648 135.621 392.648 135.264 392.648 134.913C391.816 135.324 390.961 135.712 390.152 136.123C383.646 139.107 376.903 141.453 370.005 143.131C374.898 135.376 379.324 127.29 383.254 118.924C382.99 118.785 382.726 118.645 382.45 118.518C380.044 123.662 377.447 128.695 374.659 133.618C374.322 134.223 373.973 134.798 373.63 135.391C373.777 129.101 373.917 122.815 374.052 116.533C373.76 116.533 373.49 116.533 373.17 116.533L372.742 136.165C372.736 136.251 372.755 136.336 372.797 136.408C372.838 136.481 372.9 136.538 372.973 136.571C370.319 141.106 367.509 145.524 364.541 149.824C364.271 147.712 363.979 145.588 363.731 143.488C362.757 135.822 361.782 128.157 360.808 120.491C360.533 120.661 360.246 120.842 359.987 121.03C360.229 122.882 360.46 124.74 360.696 126.591L363.759 150.653C363.766 150.726 363.792 150.795 363.832 150.853C361.49 154.23 359.054 157.534 356.525 160.766C356.206 158.571 355.85 156.378 355.457 154.188C354.094 146.687 352.284 139.288 350.038 132.038C349.993 132.105 349.959 132.177 349.919 132.244L349.442 133.115C349.785 134.265 350.127 135.415 350.453 136.571C352.794 144.758 354.58 153.118 355.799 161.583C355.808 161.61 355.82 161.637 355.833 161.662C355.209 162.448 354.591 163.235 353.961 164.01C351.578 166.951 349.117 169.817 346.58 172.609C345.265 165.726 343.7 158.91 341.887 152.16C341.724 152.699 341.56 153.25 341.403 153.794C343.078 160.185 344.538 166.64 345.782 173.16C345.8 173.243 345.839 173.318 345.895 173.378C343.796 175.678 341.656 177.925 339.475 180.12C339.475 180.12 339.436 180.15 339.424 180.174C336.779 182.829 334.065 185.409 331.285 187.914C330.419 188.707 329.542 189.482 328.659 190.25C328.21 190.632 328.851 191.321 329.283 190.94Z" fill="#142216"/>
<path d="M316.292 190.256L322.847 190.722L323.69 190.789L328.547 191.134C328.39 185.161 334.056 180.374 338.413 176.676C342.348 173.305 346.648 169.045 347.019 163.816C347.036 163.494 347.036 163.17 347.019 162.848C347.019 162.642 347.008 162.44 346.985 162.243C346.833 160.367 346.153 158.569 346.08 156.687C345.906 152.009 349.453 148.215 352.876 145.352C355.558 143.119 358.498 140.813 360.184 137.745C360.407 137.335 360.606 136.911 360.78 136.474C360.976 135.985 361.134 135.479 361.252 134.961C362.601 129.151 358.756 123.233 358.211 117.411C358.211 117.084 358.16 116.751 358.155 116.418C358.121 115.352 358.238 114.287 358.503 113.259C359.47 109.58 362.438 106.875 363.714 103.316C364.625 100.805 364.631 98.1178 364.333 95.4126C364.299 95.0737 364.26 94.7409 364.209 94.408C364.018 92.9254 363.748 91.4366 363.512 89.9781C362.792 85.5361 362.511 80.5131 365.108 76.9789C366.418 75.1633 368.324 74.0074 369.69 72.2766C371.056 70.5458 371.775 67.7801 370.381 66.0735C370.178 65.8363 369.943 65.6325 369.684 65.4684C369.409 65.2874 369.112 65.1488 368.802 65.0568C367.493 64.7537 366.133 64.8394 364.867 65.305C360.427 66.7465 356.517 69.6477 353.686 73.602C353.455 73.9227 353.225 74.2556 353.011 74.5945C352.024 76.1106 351.213 77.7506 350.594 79.4783C349.245 83.2546 348.79 87.4182 346.929 90.9343C345.842 92.8331 344.546 94.5828 343.067 96.1449C342.837 96.4112 342.595 96.6714 342.359 96.9377C339.587 100.036 336.827 103.062 336.456 107.226C336.063 111.607 338.598 116.08 337.356 120.267C337.269 120.558 337.166 120.843 337.047 121.121C336.913 121.437 336.759 121.742 336.586 122.034C334.393 125.781 329.491 127.439 326.653 130.943C325.907 131.866 325.296 132.907 324.843 134.029C324.627 134.519 324.439 135.022 324.28 135.536C322.482 141.491 323.645 148.923 321.161 154.853C319.57 158.666 316.568 161.589 314.724 165.269C310.812 173.166 312.745 182.08 316.292 190.256Z" fill="#676521"/>
<path d="M326.181 170.055C323.23 176.441 322.071 183.615 322.847 190.698L323.691 190.765C323.331 187.546 323.372 184.289 323.814 181.082C324.192 178.387 324.856 175.747 325.793 173.214C326.604 171.104 327.594 169.078 328.75 167.163C328.789 167.169 328.829 167.169 328.868 167.163C330.773 167.168 332.678 167.067 334.574 166.86C338.819 166.388 342.997 165.372 347.019 163.834C347.036 163.512 347.036 163.188 347.019 162.866C341.321 165.086 335.31 166.232 329.25 166.255C329.312 166.158 329.374 166.061 329.43 165.958C330.824 163.695 332.241 161.426 333.191 158.878C334.141 156.33 334.315 153.661 334.383 151.01C334.45 148.36 334.472 145.564 335.215 142.943C335.323 142.573 335.451 142.209 335.597 141.854C337.753 142.093 339.922 142.178 342.089 142.108C348.318 141.893 354.454 140.424 360.179 137.775C360.402 137.365 360.601 136.941 360.775 136.504C360.063 136.855 359.343 137.188 358.616 137.503C351.438 140.573 343.686 141.766 335.996 140.983C336.7 139.61 337.639 138.393 338.762 137.394C341.606 134.792 345.209 133.158 347.638 130.011C348.888 128.429 349.614 126.445 349.701 124.37C349.729 123.192 349.616 122.014 349.364 120.866C352.445 120.125 355.427 118.962 358.234 117.405C358.234 117.078 358.183 116.745 358.178 116.412C355.338 118.009 352.313 119.194 349.184 119.934C348.959 118.99 348.7 118.052 348.442 117.126C347.79 114.76 347.104 112.285 347.39 109.786C347.677 107.286 349.038 105.095 350.403 103.129C350.769 102.59 351.146 102.057 351.528 101.519C351.612 101.556 351.707 101.556 351.792 101.519C356.237 100.166 360.471 98.1104 364.356 95.4186C364.322 95.0797 364.283 94.7469 364.232 94.414C360.525 97.0351 356.484 99.0634 352.236 100.436C352.992 99.3046 353.629 98.0868 354.136 96.8045C355.142 94.1478 355.412 91.2611 355.71 88.4409C355.909 85.6325 356.487 82.8702 357.425 80.2407C358.372 77.916 359.636 75.7561 361.174 73.8319C363.72 70.7071 366.582 67.8978 369.707 65.4562C369.432 65.2752 369.135 65.1367 368.825 65.0447L368.583 65.2444C364.828 68.3853 361.174 71.7864 358.555 76.0771C357.607 77.6227 356.829 79.282 356.238 81.0214C355.042 78.6992 354.198 76.1864 353.737 73.5777C353.506 73.8985 353.276 74.2313 353.062 74.5702C353.607 77.1962 354.531 79.7141 355.8 82.0321C355.824 82.0754 355.854 82.1142 355.89 82.1471C355.804 82.4537 355.725 82.7623 355.654 83.073C355.013 85.875 354.889 88.7617 354.496 91.606C354.162 94.4459 353.23 97.166 351.769 99.5581C350.46 101.646 348.886 103.546 347.784 105.779C347.488 106.385 347.239 107.017 347.042 107.667C345.192 104.057 343.865 100.163 343.107 96.1206C342.876 96.3869 342.635 96.6471 342.399 96.9134C343.23 101.048 344.644 105.022 346.592 108.696C346.629 108.758 346.676 108.812 346.733 108.854C346.486 110.119 346.443 111.421 346.603 112.703C346.907 115.256 347.79 117.671 348.369 120.152C348.931 122.513 349.172 124.994 348.245 127.275C347.558 128.808 346.55 130.149 345.299 131.191C345.285 131.168 345.266 131.149 345.243 131.136C341.961 128.366 339.194 124.953 337.086 121.078C336.953 121.394 336.799 121.699 336.625 121.992C338.733 125.735 341.443 129.043 344.63 131.76L344.597 131.79C341.572 134.271 337.851 136.105 335.715 139.657C333.084 143.984 333.86 149.34 333.343 154.284C332.259 152.664 331.259 150.981 330.346 149.243C327.85 144.473 326.02 139.332 324.916 133.987C324.701 134.476 324.513 134.98 324.354 135.494C326.037 142.679 329.002 149.443 333.084 155.41C333.115 155.446 333.149 155.478 333.185 155.507C332.263 161.056 328.474 165.172 326.181 170.055Z" fill="#3E3E15"/>
<path d="M64.7694 189.034C64.4209 189.548 63.5158 189.639 61.7226 189.094C54.997 187.147 48.4683 184.483 42.2333 181.142L41.0359 180.495C40.2939 180.077 39.5575 179.66 38.8211 179.224C33.7771 176.273 28.9694 172.876 24.4472 169.069L23.2105 168.01C22.9295 167.768 22.6484 167.52 22.3617 167.266C17.4133 162.903 13.0458 157.828 9.38193 152.185C9.12335 151.779 8.87601 151.368 8.62867 150.974C5.81798 146.23 3.81114 141.11 3.56942 136.038C3.56942 135.687 3.54132 135.33 3.54132 134.979C3.51054 131.617 4.37937 128.317 6.04405 125.472C7.70872 122.627 10.0989 120.358 12.929 118.936C13.1932 118.797 13.4631 118.658 13.7385 118.53C14.3498 118.236 14.9746 117.976 15.6104 117.75C17.7164 117.001 19.914 116.593 22.1312 116.539C22.4292 116.539 22.6934 116.539 23.0194 116.539C27.3912 116.663 31.656 118.022 35.3864 120.479C35.6619 120.649 35.9486 120.83 36.2072 121.018C40.244 123.838 43.639 127.6 46.1401 132.026C46.1851 132.093 46.2188 132.165 46.2582 132.232L46.7416 133.103C49.9852 139.155 52.3349 145.582 54.3361 152.178L54.8252 153.812C56.7926 160.512 58.4622 167.332 60.4128 173.995C61.464 177.584 62.5939 181.148 63.8981 184.64C64.3479 185.693 64.6964 186.792 64.938 187.92C65.0203 188.301 64.9597 188.701 64.7694 189.034Z" fill="#3E3E15"/>
<path d="M66.9221 190.94C66.2026 190.311 65.4849 189.675 64.7691 189.034C61.8722 186.436 59.0465 183.757 56.2921 180.997C51.2026 181.3 46.0984 181.132 41.0356 180.495C40.2936 180.077 39.5572 179.66 38.8208 179.224C44.3019 180.069 49.8445 180.358 55.3758 180.089C54.3077 179.006 53.2453 177.917 52.1997 176.809C49.9511 174.441 47.7701 172.02 45.6564 169.547C45.6564 169.547 45.6058 169.547 45.5777 169.547C43.1081 169.624 40.6403 169.656 38.1744 169.644C33.5986 169.62 29.0228 169.418 24.447 169.039L23.2102 167.98C30.4145 168.602 37.6448 168.804 44.8694 168.585C41.3917 164.494 38.0526 160.258 34.8521 155.876C34.8087 155.893 34.7633 155.903 34.7172 155.906C32.5474 155.906 30.3719 155.816 28.202 155.652C21.8338 155.162 15.5281 153.978 9.38165 152.118C9.12307 151.712 8.87573 151.301 8.62839 150.908C9.82762 151.291 11.0306 151.644 12.2373 151.967C19.4098 153.891 26.769 154.892 34.1607 154.95C32.5305 152.693 30.9284 150.411 29.3769 148.087C28.4887 146.756 27.6118 145.407 26.7517 144.057C26.7024 144.103 26.643 144.135 26.5791 144.15C26.5152 144.165 26.4489 144.162 26.3863 144.142C24.3476 143.649 22.3202 143.105 20.304 142.508C14.5746 140.782 8.97322 138.597 3.54666 135.972C3.54666 135.621 3.51855 135.264 3.51855 134.913C4.35052 135.324 5.20497 135.712 6.01445 136.123C12.5208 139.106 19.2638 141.452 26.1615 143.131C21.2703 135.374 16.8447 127.289 12.9119 118.924C13.1761 118.785 13.4459 118.645 13.7214 118.518C16.1273 123.662 18.7244 128.695 21.5126 133.618C21.8499 134.223 22.1928 134.798 22.5357 135.391C22.397 129.101 22.2565 122.815 22.1141 116.533C22.412 116.533 22.6762 116.533 23.0023 116.533L23.4688 136.165C23.4725 136.25 23.4525 136.334 23.4114 136.406C23.3703 136.479 23.31 136.536 23.2384 136.571C25.8842 141.106 28.6836 145.524 31.6367 149.824C31.9121 147.712 32.1988 145.588 32.4462 143.488C33.4205 135.822 34.3949 128.157 35.3693 120.491C35.6447 120.661 35.9314 120.842 36.19 121.03L35.4817 126.591L32.4181 150.653C32.413 150.725 32.3897 150.794 32.3506 150.853C34.6891 154.23 37.125 157.534 39.6584 160.766C39.9732 158.571 40.3292 156.378 40.7265 154.188C42.0873 146.687 43.8955 139.288 46.1399 132.038C46.1848 132.105 46.2186 132.177 46.2579 132.244L46.7413 133.115C46.3928 134.265 46.0499 135.415 45.7239 136.571C43.393 144.759 41.6158 153.118 40.406 161.583C40.3972 161.61 40.3859 161.637 40.3723 161.662C40.9963 162.448 41.6146 163.235 42.2442 164.01C44.6277 166.951 47.1011 169.813 49.6251 172.609C50.9405 165.726 52.5051 158.91 54.319 152.16L54.808 153.794C53.1216 160.197 51.6619 166.656 50.429 173.172C50.4118 173.256 50.3705 173.332 50.3109 173.39C52.4058 175.69 54.5476 177.937 56.7362 180.132C56.754 180.147 56.7693 180.165 56.7811 180.186C59.4344 182.841 62.1477 185.421 64.9209 187.926C65.7866 188.719 66.6635 189.494 67.5461 190.262C68.0183 190.632 67.3606 191.321 66.9221 190.94Z" fill="#142216"/>
<path d="M79.9187 190.256L73.3585 190.722L72.5153 190.789L67.6641 191.134C67.8159 185.161 62.1495 180.374 57.7929 176.676C53.858 173.305 49.5576 169.045 49.1866 163.816C49.1696 163.494 49.1696 163.17 49.1866 162.848C49.1866 162.642 49.1978 162.44 49.2203 162.243C49.3721 160.367 50.0579 158.569 50.1254 156.687C50.2996 152.009 46.7525 148.215 43.3347 145.352C40.6533 143.119 37.7134 140.813 36.0269 137.745C35.802 137.335 35.6011 136.911 35.4255 136.474C35.2321 135.984 35.0742 135.478 34.9533 134.961C33.6041 129.151 37.4492 123.233 37.9944 117.411C38.0282 117.084 38.045 116.751 38.0506 116.418C38.0868 115.353 37.9712 114.287 37.7077 113.259C36.7352 109.58 33.7728 106.875 32.4911 103.316C31.5804 100.805 31.5748 98.1178 31.8727 95.4126C31.9065 95.0737 31.9458 94.7409 31.9964 94.408C32.1932 92.9253 32.4574 91.4366 32.6935 89.9781C33.413 85.5361 33.6941 80.5131 31.097 76.9788C29.7872 75.1633 27.8872 74.0074 26.5156 72.2766C25.144 70.5458 24.4076 67.7801 25.8017 66.0674C26.0054 65.8302 26.2402 65.6264 26.4987 65.4623C26.7745 65.2834 27.0714 65.145 27.3813 65.0507C28.6896 64.7488 30.0496 64.8346 31.3162 65.2989C35.7539 66.7423 39.6613 69.6433 42.4915 73.5959C42.7276 73.9166 42.9525 74.2495 43.1661 74.5884C44.1531 76.1045 44.9649 77.7446 45.5833 79.4722C46.9324 83.2485 47.3878 87.4121 49.2541 90.9282C50.3386 92.8269 51.6335 94.5766 53.1103 96.1388C53.3408 96.4051 53.5825 96.6653 53.8186 96.9316C56.59 100.03 59.3501 103.056 59.7211 107.22C60.1146 111.601 57.5793 116.073 58.8216 120.261C58.9086 120.552 59.0118 120.837 59.1308 121.115C59.2644 121.43 59.4184 121.736 59.5918 122.028C61.7897 125.774 66.686 127.433 69.5248 130.937C70.2708 131.86 70.8813 132.901 71.3348 134.023C71.5479 134.514 71.7356 135.017 71.897 135.53C73.6902 141.485 72.5266 148.917 75.0112 154.847C76.6077 158.66 79.6039 161.583 81.4533 165.262C85.3995 173.166 83.4602 182.08 79.9187 190.256Z" fill="#676521"/>
<path d="M70.0251 170.055C72.9792 176.44 74.1377 183.615 73.3586 190.698L72.5154 190.765C72.8753 187.546 72.8337 184.289 72.3917 181.082C72.0137 178.387 71.3498 175.747 70.413 173.214C69.6021 171.104 68.6123 169.078 67.4562 167.163C67.417 167.169 67.3772 167.169 67.3381 167.163C65.4326 167.168 63.5282 167.067 61.6324 166.86C57.3867 166.388 53.2086 165.372 49.1867 163.834C49.1697 163.512 49.1697 163.188 49.1867 162.866C54.8849 165.086 60.8959 166.232 66.9559 166.255C66.894 166.158 66.8322 166.061 66.776 165.958C65.3819 163.695 63.9653 161.426 63.0209 158.878C62.0765 156.33 61.8966 153.661 61.8235 151.01C61.7505 148.36 61.7392 145.564 60.9916 142.943C60.8848 142.568 60.7499 142.205 60.6149 141.854C58.4583 142.093 56.2893 142.178 54.1222 142.108C47.8937 141.895 41.7577 140.425 36.0326 137.775C35.8077 137.365 35.6068 136.941 35.4312 136.504C36.1451 136.855 36.8646 137.188 37.5954 137.503C44.7734 140.574 52.5261 141.767 60.2158 140.983C59.5074 139.611 58.5675 138.394 57.4445 137.394C54.6001 134.792 50.9968 133.158 48.5683 130.011C47.3177 128.43 46.5935 126.445 46.5109 124.37C46.4832 123.192 46.5946 122.015 46.8426 120.866C43.7606 120.125 40.7795 118.962 37.972 117.405C38.0057 117.078 38.0226 116.745 38.0282 116.412C40.8685 118.009 43.8929 119.194 47.0224 119.934C47.2473 118.99 47.5059 118.052 47.7645 117.126C48.4222 114.76 49.1023 112.285 48.8157 109.786C48.529 107.286 47.1686 105.095 45.8026 103.129C45.4372 102.59 45.0606 102.057 44.6783 101.519C44.5937 101.556 44.4988 101.556 44.4141 101.519C39.969 100.165 35.735 98.1097 31.8503 95.4186C31.8841 95.0797 31.9234 94.7469 31.974 94.414C35.6826 97.0363 39.7254 99.0646 43.9757 100.436C43.2177 99.3048 42.5786 98.087 42.07 96.8045C41.0638 94.1478 40.7996 91.2611 40.496 88.4409C40.3002 85.6266 39.7245 82.8581 38.7871 80.2226C37.8363 77.9039 36.5708 75.7501 35.032 73.8319C32.4858 70.7071 29.6236 67.8978 26.4988 65.4562C26.7746 65.2773 27.0714 65.1389 27.3813 65.0447L27.6231 65.2444C31.3669 68.3853 35.0377 71.7864 37.6628 76.0771C38.6107 77.6227 39.3879 79.282 39.9789 81.0214C41.1773 78.7003 42.0219 76.1871 42.4804 73.5777C42.7165 73.8985 42.9413 74.2313 43.1549 74.5702C42.6127 77.1971 41.6888 79.7153 40.4173 82.0321C40.397 82.0781 40.366 82.1177 40.3274 82.1471C40.4136 82.4537 40.4923 82.7623 40.5635 83.073C41.2043 85.875 41.3336 88.7617 41.7271 91.606C42.0562 94.4461 42.9871 97.1667 44.4478 99.5581C45.7576 101.646 47.3316 103.546 48.4334 105.779C48.732 106.384 48.9803 107.016 49.1754 107.667C51.0256 104.057 52.3525 100.163 53.1104 96.1206C53.3409 96.3869 53.5826 96.6471 53.8187 96.9134C52.9878 101.048 51.5735 105.022 49.6251 108.696C49.5904 108.76 49.5422 108.814 49.4846 108.854C49.731 110.119 49.7747 111.421 49.6139 112.703C49.316 115.256 48.4278 117.671 47.8488 120.152C47.2866 122.513 47.0449 124.994 47.9724 127.275C48.6614 128.809 49.6716 130.149 50.9237 131.191C50.9346 131.167 50.9523 131.148 50.9743 131.136C54.2564 128.366 57.0237 124.953 59.1309 121.078C59.2645 121.394 59.4185 121.699 59.5918 121.992C57.4847 125.735 54.7739 129.043 51.587 131.76L51.6207 131.79C54.645 134.271 58.3664 136.105 60.5025 139.657C63.1333 143.984 62.3632 149.34 62.8747 154.284C63.9581 152.664 64.9583 150.981 65.8709 149.243C68.3778 144.48 70.2189 139.346 71.3349 134.005C71.548 134.496 71.7357 134.999 71.897 135.512C70.2122 142.698 67.2452 149.462 63.1614 155.428C63.1306 155.464 63.0967 155.496 63.0602 155.525C63.9428 161.056 67.7316 165.172 70.0251 170.055Z" fill="#3E3E15"/>
<path d="M317.046 171.393C317.012 171.52 316.973 171.653 316.933 171.786L313.347 172.73C312.198 172.631 311.105 172.153 310.216 171.363C309.825 170.97 309.519 170.491 309.319 169.958C309.119 169.424 309.03 168.85 309.058 168.276C309.087 167.321 309.265 166.378 309.586 165.486C309.586 165.486 306.601 164.694 308.192 162.097C308.192 162.097 288.517 134.416 293.706 131.633C294.101 131.434 294.552 131.408 294.965 131.56C300.631 133.376 311.042 160.663 311.042 160.663C311.042 160.663 314.415 161.268 312.819 164.034C312.841 164.034 318.732 164.948 317.046 171.393Z" fill="#0E537E"/>
<g style="mix-blend-mode:multiply">
<path d="M317.046 171.393C314.798 171.393 312.493 171.393 310.216 171.393C309.826 171.001 309.52 170.521 309.32 169.988C309.119 169.455 309.03 168.881 309.058 168.307C310.337 167.402 311.79 166.822 313.308 166.612C313.106 166.137 312.816 165.711 312.455 165.361C312.095 165.011 311.671 164.745 311.211 164.579C311.426 164.321 311.574 164.007 311.64 163.668C311.706 163.329 311.688 162.977 311.588 162.648C311.453 162.32 311.244 162.033 310.98 161.814C310.716 161.595 310.405 161.451 310.076 161.395C306.434 150.711 301.342 140.667 294.965 131.59C300.632 133.406 311.043 160.693 311.043 160.693C311.043 160.693 314.415 161.299 312.819 164.064C312.841 164.034 318.733 164.948 317.046 171.393Z" fill="#BFD4EA"/>
</g>
<path d="M336.462 180.095C336.204 174.395 333.297 169.765 329.649 168.76C328.211 168.211 326.641 168.211 325.203 168.76L325.45 169.299C322.296 171.018 320.166 175.641 320.391 180.955C320.644 186.559 323.454 191.122 327.013 192.229L326.451 192.617C327.647 192.984 328.925 192.877 330.054 192.314V192.314C333.95 191.273 336.721 186.129 336.462 180.095Z" fill="#7197D5"/>
<path d="M326.822 192.608C331.262 192.377 334.622 186.839 334.325 180.239C334.029 173.639 330.188 168.476 325.748 168.707C321.307 168.939 317.948 174.477 318.244 181.077C318.541 187.677 322.381 192.84 326.822 192.608Z" fill="#002638"/>
<path d="M331.892 183.133C331.582 185.493 330.594 187.689 329.067 189.415C327.54 191.14 325.55 192.308 323.376 192.756C319.086 193.606 314.703 193.773 310.368 193.252C308.369 193.039 306.382 192.716 304.415 192.284L303.459 171.102C309.812 168.607 316.671 167.993 323.319 169.323C323.642 169.392 323.951 169.47 324.247 169.559C326.322 170.179 328.172 171.464 329.551 173.243C330.931 175.023 331.775 177.212 331.971 179.52C332.071 180.724 332.044 181.936 331.892 183.133V183.133Z" fill="#25669C"/>
<g style="mix-blend-mode:multiply">
<path d="M331.892 183.133C331.582 185.493 330.594 187.689 329.067 189.415C327.54 191.14 325.55 192.308 323.376 192.756C319.086 193.606 314.703 193.773 310.368 193.252C315.663 192.397 320.46 189.413 323.792 184.901C325.142 183.129 326.122 181.065 326.664 178.849C327.195 176.61 326.996 174.243 326.102 172.143C325.655 171.168 325.026 170.302 324.252 169.602C326.327 170.221 328.177 171.506 329.557 173.286C330.937 175.065 331.781 177.255 331.976 179.563C332.072 180.753 332.043 181.95 331.892 183.133V183.133Z" fill="#BFD4EA"/>
</g>
<path d="M314.685 181.233C314.426 175.526 311.526 170.903 307.877 169.898H307.849C306.41 169.351 304.841 169.351 303.403 169.898L303.65 170.437C300.496 172.161 298.366 176.785 298.591 182.092C298.844 187.702 301.649 192.266 305.207 193.373L304.645 193.754C305.841 194.126 307.121 194.018 308.248 193.452V193.452C312.172 192.411 314.955 187.267 314.685 181.233Z" fill="#002638"/>
<path d="M312.549 181.342C312.847 187.945 309.491 193.482 305.05 193.712C303.359 193.761 301.716 193.112 300.457 191.896C299.985 191.461 299.554 190.977 299.17 190.45C298.803 189.951 298.474 189.421 298.186 188.864C297.338 187.202 296.792 185.38 296.578 183.497C296.528 183.067 296.494 182.625 296.472 182.177C296.174 175.575 299.53 170.037 303.976 169.807C304.416 169.784 304.857 169.812 305.291 169.892C306.69 170.192 307.974 170.934 308.979 172.022C309.389 172.446 309.765 172.905 310.103 173.396C310.491 173.972 310.837 174.579 311.138 175.212C311.995 177.129 312.475 179.216 312.549 181.342V181.342Z" fill="#25669C"/>
<path d="M310.772 180.797C311.025 186.426 308.187 191.787 304.398 191.987C300.609 192.187 297.354 188.162 297.09 182.528C296.826 176.894 299.681 171.798 303.47 171.599C307.259 171.399 310.514 175.169 310.772 180.797Z" fill="#7197D5"/>
<g style="mix-blend-mode:soft-light" opacity="0.5">
<path d="M308.99 172.028L298.197 188.871C297.349 187.208 296.803 185.386 296.59 183.503L305.303 169.898C306.701 170.198 307.985 170.94 308.99 172.028Z" fill="white"/>
<path d="M311.138 175.242L300.457 191.902C299.985 191.467 299.554 190.983 299.17 190.456L310.092 173.402C310.485 173.985 310.835 174.6 311.138 175.242V175.242Z" fill="white"/>
</g>
<path d="M267.831 170.751V181.354C267.83 182.109 267.95 182.858 268.185 183.569C269.291 186.885 269.828 190.389 269.77 193.912H247.076C247.076 193.912 248.403 190.674 254.418 188.689C255.484 188.328 256.469 187.735 257.313 186.946L259.528 184.919C260.131 184.369 260.589 183.657 260.855 182.856C261.122 182.055 261.187 181.193 261.046 180.356L259.449 170.764L267.831 170.751Z" fill="#BD5331"/>
<path d="M268.702 185.294L263.199 188.12L259.146 185.252L257.313 186.928C256.469 187.717 255.484 188.31 254.418 188.671C248.403 190.656 247.076 193.894 247.076 193.894H269.77C269.825 190.985 269.465 188.085 268.702 185.294Z" fill="#D97C2F"/>
<path d="M286.128 170.77L288.101 182.661C288.193 183.263 288.193 183.876 288.101 184.477L286.797 193.948H304.173C304.173 193.948 303.936 191.152 303.11 190.39C302.284 189.627 299.923 187.715 299.923 187.715L296.376 183.745C295.576 182.853 295.098 181.683 295.027 180.446L294.464 170.764L286.128 170.77Z" fill="#BD5331"/>
<path d="M296.556 183.89C295.401 183.963 294.272 184.288 293.237 184.847C292.203 185.406 291.286 186.186 290.541 187.14L287.978 185.693L286.854 193.93H304.229C304.229 193.93 303.993 191.134 303.167 190.371C302.34 189.609 299.979 187.696 299.979 187.696L296.556 183.89Z" fill="#D97C2F"/>
<path d="M259.185 44.4867L266.639 35.9053L275.678 35.8508L280.726 44.511L276.431 73.2025L259.607 73.1904L259.185 44.4867Z" fill="#D4B5A5"/>
<path d="M264.975 45.4188L270.152 40.777L276.29 47.2706" stroke="white" stroke-width="0.46" stroke-miterlimit="10"/>
<path d="M270.152 42.9738L266.83 70.455" stroke="white" stroke-width="0.46" stroke-miterlimit="10"/>
<path d="M285.212 87.8055L299.153 172.119L283.194 172.101L266.813 96.508L271.67 173.045L255.537 173.033L251.062 84.1805L258.409 73.3357L281.558 73.9953L285.212 87.8055Z" fill="#142216"/>
<g style="mix-blend-mode:multiply" opacity="0.57">
<path d="M285.212 87.8055L281.558 73.9953L258.409 73.3357L251.062 84.1805L251.174 86.3954C256.194 86.5044 272.738 87.3214 286.083 93.0887L285.212 87.8055Z" fill="#215681"/>
</g>
<path d="M266.673 96.5443L264.964 89.2519L264.969 89.2216L266.172 75.0544L266.454 75.0786L265.251 89.2277L266.948 96.4717L266.673 96.5443Z" fill="#F7EEDF"/>
<g style="mix-blend-mode:multiply">
<path d="M259.944 90.6801L275.133 90.6922" stroke="#BFD4EA" stroke-miterlimit="10"/>
</g>
<path d="M265.088 87.7994L264.222 75.0725L264.503 75.0544L265.374 87.7752L265.088 87.7994Z" fill="#F7EEDF"/>
<path d="M260.36 173.045L256.177 80.5373L256.464 80.5191L260.646 173.027L260.36 173.045Z" fill="#F7EEDF"/>
<path d="M291.744 172.137L276.291 80.5736L276.566 80.5191L292.025 172.083L291.744 172.137Z" fill="#F7EEDF"/>
<path d="M280.164 72.0769H257.982V75.8835H280.164V72.0769Z" fill="#1B2536"/>
<path d="M269.624 12.9569C271.424 13.2854 273.108 14.1346 274.494 15.4139C275.88 16.6931 276.917 18.3541 277.494 20.2191C278.202 22.2706 278.332 24.3706 280.012 25.6657C280.642 26.121 281.144 26.753 281.464 27.4933C281.784 28.2335 281.91 29.0539 281.828 29.8656C281.754 30.5157 281.832 31.1754 282.056 31.7844C282.28 32.3934 282.642 32.9322 283.11 33.3514H258.426C258.426 33.3514 259.798 31.1123 259.551 29.206C259.303 27.2997 258.426 26.0046 259.067 24.0498C259.708 22.0951 260.529 21.2115 259.337 19.5655C257.611 17.1447 260.321 11.1837 269.624 12.9569Z" fill="#142216"/>
<path d="M268.837 17.3021C268.837 18.1251 269.483 22.8334 273.03 24.6853L273.294 27.3238L275.678 35.8508L270.09 40.2686L266.639 35.9053V32.0745C264.334 32.2984 262.417 30.8641 262.271 28.1892C262.125 25.5144 262.243 23.1965 261.534 21.7622C261.534 21.7441 265.143 21.6836 268.837 17.3021Z" fill="#BD5331"/>
<path d="M270.782 26.991C270.782 27.2615 270.707 27.5259 270.568 27.7508C270.428 27.9757 270.23 28.151 269.998 28.2546C269.765 28.3581 269.51 28.3852 269.264 28.3324C269.017 28.2796 268.791 28.1494 268.613 27.9581C268.435 27.7668 268.314 27.5231 268.265 27.2578C268.216 26.9925 268.242 26.7175 268.338 26.4676C268.434 26.2177 268.597 26.004 268.806 25.8538C269.015 25.7035 269.26 25.6233 269.511 25.6233C269.848 25.6233 270.171 25.7674 270.41 26.0239C270.648 26.2803 270.782 26.6282 270.782 26.991V26.991Z" fill="#D65353"/>
<path d="M267.015 31.9958C267.813 31.9464 268.591 31.7147 269.299 31.3161C270.006 30.9174 270.627 30.3611 271.119 29.6841" stroke="#422424" stroke-width="0.46" stroke-miterlimit="10"/>
<path d="M275.487 25.345C274.863 26.8579 273.486 27.6689 272.401 27.1605C271.316 26.6522 270.945 25 271.563 23.4931C272.181 21.9862 273.564 21.1692 274.644 21.6776C275.723 22.1859 276.105 23.8381 275.487 25.345Z" fill="#BD5331"/>
<path d="M272.232 25.4175C272.232 25.4175 272.631 23.1239 274.481 22.6761" stroke="#422424" stroke-width="0.46" stroke-miterlimit="10"/>
<path d="M273.806 24.5582L273.525 23.1421" stroke="#422424" stroke-width="0.46" stroke-miterlimit="10"/>
<path d="M275.324 26.8518C275.324 27.0352 275.274 27.2145 275.179 27.3669C275.084 27.5193 274.949 27.638 274.792 27.7079C274.634 27.7778 274.461 27.7957 274.294 27.7595C274.127 27.7233 273.974 27.6345 273.854 27.5044C273.734 27.3743 273.652 27.2088 273.62 27.0287C273.587 26.8487 273.605 26.6624 273.671 26.4933C273.737 26.3242 273.848 26.18 273.99 26.079C274.133 25.978 274.299 25.9247 274.47 25.9259C274.582 25.9259 274.694 25.9499 274.798 25.9965C274.902 26.0431 274.996 26.1114 275.076 26.1975C275.155 26.2835 275.218 26.3857 275.261 26.498C275.303 26.6103 275.325 26.7305 275.324 26.8518V26.8518Z" stroke="white" stroke-width="0.46" stroke-miterlimit="10"/>
<path d="M263.997 25.1815L264.283 24.7337C264.212 24.6533 264.124 24.5922 264.026 24.5553C263.928 24.5185 263.824 24.5071 263.721 24.5219C263.596 24.5441 263.48 24.6054 263.387 24.698C263.295 24.7906 263.229 24.9105 263.199 25.0428C263.169 25.1752 263.175 25.3141 263.218 25.4425C263.261 25.5708 263.337 25.6828 263.438 25.7647C263.54 25.8466 263.661 25.8947 263.787 25.9031C263.913 25.9115 264.039 25.8798 264.149 25.8119C264.259 25.744 264.348 25.6429 264.404 25.5211C264.461 25.3994 264.484 25.2624 264.469 25.127C264.469 25.127 264.469 25.0786 264.469 25.0484L263.997 25.1815Z" fill="#1B2536"/>
<path d="M268.011 24.4977L268.292 24.0498C268.221 23.9675 268.133 23.9047 268.035 23.8668C267.938 23.8289 267.833 23.8169 267.73 23.832C267.603 23.8533 267.485 23.9143 267.39 24.0074C267.296 24.1005 267.229 24.2215 267.198 24.3554C267.167 24.4893 267.173 24.63 267.216 24.7601C267.259 24.8901 267.336 25.0037 267.438 25.0866C267.541 25.1696 267.664 25.2181 267.792 25.2263C267.92 25.2345 268.047 25.2019 268.158 25.1326C268.269 25.0633 268.358 24.9604 268.415 24.8367C268.472 24.713 268.493 24.574 268.477 24.4371C268.477 24.4371 268.477 24.3887 268.449 24.3645L268.011 24.4977Z" fill="#1B2536"/>
<path d="M265.464 25.0423C265.464 25.0423 265.464 25.7927 265.464 26.41C265.464 27.0273 266.127 27.3662 266.863 26.8397" stroke="#422424" stroke-width="0.46" stroke-miterlimit="10"/>
<path d="M265.683 28.0501C266.28 28.2284 266.913 28.2083 267.499 27.9923C268.085 27.7762 268.596 27.3745 268.966 26.8397" stroke="#422424" stroke-width="0.46" stroke-miterlimit="10"/>
<path d="M268.482 26.5432L269.23 27.0334" stroke="#422424" stroke-width="0.46" stroke-miterlimit="10"/>
<path d="M266.499 22.4642C266.499 22.4642 268.112 21.8953 269.236 22.325" stroke="#732727" stroke-width="0.97" stroke-linecap="round" stroke-linejoin="round"/>
<path d="M262.794 23.3055C263.454 22.9246 264.226 22.8336 264.947 23.0513" stroke="#732727" stroke-width="0.97" stroke-linecap="round" stroke-linejoin="round"/>
<path d="M275.678 35.8508L270.248 71.7198C270.012 73.273 270.124 74.8642 270.574 76.3616L272.721 83.5148C272.806 83.7953 272.948 84.052 273.137 84.2661C273.325 84.4802 273.556 84.6463 273.811 84.7524C274.067 84.8585 274.342 84.9019 274.615 84.8793C274.888 84.8568 275.154 84.769 275.391 84.6223L286.016 78.0258L281.412 70.4853L287.511 47.3371C287.938 45.7562 287.803 44.0607 287.131 42.5815C286.46 41.1022 285.301 39.9454 283.88 39.3367L275.678 35.8508Z" fill="#324B85"/>
<path d="M279.079 70.812L273.463 75.8895" stroke="#1B2536" stroke-width="0.46" stroke-miterlimit="10"/>
<path d="M276.482 37.1762L276.994 38.0174C277.777 39.3141 278.218 40.8161 278.269 42.3621C278.319 43.9081 277.977 45.4398 277.28 46.7925L276.291 48.7049L277.415 52.221C277.651 52.9835 277.743 53.7893 277.685 54.5907C277.627 55.3921 277.421 56.1729 277.078 56.8869L271.085 69.5957" stroke="#1B2536" stroke-width="0.46" stroke-miterlimit="10"/>
<path d="M281.412 70.467L274.323 84.8522C274.702 84.895 275.083 84.8082 275.414 84.604L286.038 78.0076L281.412 70.467Z" fill="#1B2536"/>
<path d="M281.575 52.687L282.322 67.0237L285.026 56.7477L281.575 52.687Z" fill="#1B2536"/>
<path d="M276.263 84.0655L283.52 85.8023L279.073 80.5494L276.263 84.0655Z" fill="#BD5331"/>
<path d="M266.639 35.9053L262.293 81.899C262.235 82.5277 261.961 83.1105 261.526 83.5343C261.091 83.9581 260.525 84.1928 259.938 84.1926H249.224C249.224 84.1926 253.49 73.1118 256.953 67.0116L256.863 63.6831L251.838 69.3778C250.878 70.4662 249.58 71.1381 248.191 71.2664C246.802 71.3946 245.417 70.9703 244.299 70.0738C243.14 69.1439 242.353 67.7742 242.097 66.2424C241.841 64.7106 242.136 63.1315 242.922 61.8252L253.799 43.7122C255.029 41.663 256.824 40.08 258.932 39.1854L266.639 35.9053Z" fill="#324B85"/>
<path d="M266.06 36.6255C264.818 38.6226 261.49 41.6303 264.059 47.8818C261.394 52.9351 260.86 59.7555 262.799 68.113" stroke="#1B2536" stroke-width="0.46" stroke-miterlimit="10"/>
<path d="M251.427 66.0796L252.406 56.6993" stroke="#1B2536" stroke-width="0.46" stroke-miterlimit="10"/>
<path d="M269.613 65.1052L252.737 65.0931L244.463 39.4577L261.332 39.4698L269.613 65.1052Z" fill="#F0F0F0"/>
<path d="M280.574 51.9849L288.304 66.6847L279.073 80.5494L285.212 87.8115L298.074 74.9636C299.443 73.5962 300.357 71.783 300.677 69.8022C300.997 67.8214 300.704 65.7823 299.844 63.9977L291.249 46.1631C289.817 43.1951 287.441 40.8814 284.554 39.6453L281.423 38.3078L280.574 51.9849Z" fill="#324B85"/>
<path d="M288.304 66.6847L290.4 63.7012" stroke="#1B2536" stroke-width="0.46" stroke-miterlimit="10"/>
<path d="M245.328 53.5644C245.935 52.6206 246.684 51.7922 247.543 51.1134C248.108 50.6974 248.7 50.3253 249.314 49.9999C249.474 49.9125 249.657 49.883 249.834 49.9157C250.011 49.9484 250.174 50.0416 250.298 50.1815L251.141 51.1437C251.266 51.2868 251.345 51.4698 251.365 51.6651C251.385 51.8605 251.346 52.0576 251.253 52.227L249.291 55.7915C249.291 55.7915 252.198 54.1212 252.394 54.2664C252.591 54.4117 251.405 55.6886 250.483 56.7598C250.112 57.1976 249.617 57.4905 249.074 57.5924C248.532 57.6942 247.974 57.5993 247.487 57.3226C246.273 56.6266 244.963 55.4223 245.328 53.5644Z" fill="#BD5331"/>
<path d="M247.054 53.2074L250.455 50.363" stroke="#422424" stroke-width="0.46" stroke-miterlimit="10"/>
<path d="M248.274 54.8353L251.085 51.1559" stroke="#422424" stroke-width="0.46" stroke-miterlimit="10"/>
<path d="M126.869 139.258H72.6057L84.7872 124.958C86.4515 123.008 88.4733 121.451 90.7248 120.386C92.9763 119.32 95.4087 118.769 97.8682 118.767H101.606C104.064 118.772 106.494 119.325 108.743 120.39C110.992 121.456 113.012 123.011 114.676 124.958L126.869 139.258ZM75.3827 137.945H124.086L113.782 125.841C112.233 124.027 110.351 122.579 108.255 121.587C106.159 120.596 103.896 120.082 101.606 120.08H97.8682C95.5757 120.086 93.3094 120.605 91.2126 121.603C89.1158 122.601 87.2342 124.056 85.6867 125.877L75.3827 137.945Z" fill="#F7EEDF"/>
<path d="M137.887 135.082H61.5879V163.217H137.887V135.082Z" fill="#324B85"/>
<path d="M137.887 163.223H61.5879V194.081H137.887V163.223Z" fill="#142216"/>
<path d="M124.795 156.3H119.736V181.996H124.795V156.3Z" stroke="white" stroke-width="0.66" stroke-miterlimit="10"/>
<path d="M79.7387 156.3H74.6794V181.996H79.7387V156.3Z" stroke="white" stroke-width="0.66" stroke-miterlimit="10"/>
<path d="M144.773 194.717C113.777 176.501 120.258 148.063 120.258 148.063C137.179 147.724 144.773 130.513 144.773 130.513C144.773 130.513 152.362 147.706 169.282 148.063C169.282 148.063 175.769 176.501 144.773 194.717Z" fill="#B14F18"/>
<path d="M144.773 191.2C138.747 187.46 133.862 183.037 130.236 178.032C127.215 173.912 124.998 169.178 123.721 164.113C122.653 159.842 122.312 155.399 122.715 150.998C129.46 150.254 135.706 146.956 140.877 141.358C142.296 139.815 143.599 138.154 144.773 136.389C145.943 138.155 147.244 139.817 148.663 141.358C153.84 146.956 160.074 150.254 166.826 150.998C167.23 155.391 166.893 159.825 165.831 164.088C164.551 169.154 162.333 173.889 159.31 178.008C155.678 183.037 150.793 187.46 144.773 191.2Z" fill="#D77C2F"/>
<path d="M144.773 179.393C152.271 179.393 158.349 172.85 158.349 164.778C158.349 156.707 152.271 150.163 144.773 150.163C137.276 150.163 131.198 156.707 131.198 164.778C131.198 172.85 137.276 179.393 144.773 179.393Z" fill="#B14F18"/>
<path d="M144.773 177.275C142.086 177.276 139.481 176.274 137.404 174.44C135.326 172.605 133.903 170.052 133.379 167.215C132.854 164.377 133.259 161.432 134.525 158.881C135.791 156.329 137.84 154.329 140.323 153.222C142.805 152.114 145.567 151.968 148.139 152.807C150.71 153.647 152.932 155.42 154.425 157.826C155.918 160.231 156.59 163.119 156.326 165.998C156.063 168.877 154.88 171.568 152.98 173.614C151.905 174.778 150.626 175.701 149.217 176.33C147.808 176.958 146.298 177.28 144.773 177.275V177.275Z" fill="#D77C2F"/>
<path d="M144.841 156.863C148.556 156.863 151.08 159.283 151.654 162.83H147.005C146.82 162.354 146.507 161.949 146.106 161.668C145.705 161.386 145.235 161.241 144.756 161.25C143.267 161.25 142.35 162.551 142.35 164.567C142.35 166.582 143.267 167.883 144.756 167.883C145.236 167.892 145.706 167.746 146.107 167.463C146.508 167.18 146.821 166.774 147.005 166.297H151.654C151.092 169.868 148.556 172.264 144.841 172.264C140.529 172.264 137.887 169.075 137.887 164.567C137.887 160.058 140.535 156.863 144.841 156.863Z" fill="#B14F18"/>
<path d="M125.711 153.516C125.711 153.685 125.664 153.85 125.577 153.991C125.489 154.131 125.365 154.24 125.22 154.305C125.075 154.369 124.915 154.386 124.761 154.352C124.607 154.319 124.466 154.237 124.356 154.117C124.245 153.997 124.17 153.845 124.14 153.679C124.11 153.513 124.127 153.341 124.187 153.185C124.248 153.029 124.351 152.897 124.482 152.803C124.613 152.71 124.767 152.661 124.924 152.663C125.028 152.663 125.13 152.685 125.226 152.728C125.322 152.771 125.409 152.834 125.482 152.913C125.555 152.992 125.613 153.086 125.652 153.19C125.692 153.293 125.711 153.404 125.711 153.516V153.516Z" fill="#B14F18"/>
<path d="M165.566 153.516C165.566 153.685 165.52 153.85 165.433 153.99C165.346 154.13 165.222 154.24 165.077 154.304C164.932 154.369 164.773 154.386 164.619 154.353C164.465 154.32 164.324 154.239 164.213 154.119C164.103 154 164.027 153.848 163.996 153.682C163.966 153.517 163.982 153.345 164.042 153.189C164.102 153.033 164.203 152.9 164.333 152.806C164.464 152.713 164.617 152.663 164.774 152.663C164.878 152.663 164.981 152.685 165.077 152.728C165.173 152.77 165.261 152.833 165.334 152.913C165.408 152.992 165.466 153.086 165.506 153.189C165.546 153.293 165.566 153.404 165.566 153.516V153.516Z" fill="#B14F18"/>
<path d="M145.56 140.662C145.56 140.831 145.514 140.996 145.427 141.136C145.34 141.276 145.216 141.386 145.071 141.45C144.926 141.515 144.767 141.532 144.613 141.499C144.459 141.466 144.318 141.385 144.207 141.265C144.096 141.146 144.021 140.994 143.99 140.828C143.96 140.663 143.975 140.491 144.035 140.335C144.095 140.179 144.197 140.046 144.327 139.952C144.458 139.859 144.611 139.809 144.768 139.809C144.978 139.809 145.18 139.898 145.328 140.058C145.477 140.219 145.56 140.436 145.56 140.662V140.662Z" fill="#B14F18"/>
<path d="M145.56 188.925C145.56 189.094 145.514 189.259 145.427 189.399C145.34 189.539 145.216 189.649 145.071 189.713C144.926 189.778 144.767 189.795 144.613 189.762C144.459 189.729 144.318 189.648 144.207 189.528C144.096 189.409 144.021 189.257 143.99 189.091C143.96 188.926 143.975 188.754 144.035 188.598C144.095 188.443 144.197 188.309 144.327 188.216C144.458 188.122 144.611 188.072 144.768 188.072C144.978 188.072 145.18 188.162 145.328 188.322C145.477 188.482 145.56 188.699 145.56 188.925V188.925Z" fill="#B14F18"/>
<path d="M252.905 177.759C262.126 177.759 269.601 169.712 269.601 159.786C269.601 149.859 262.126 141.812 252.905 141.812C243.685 141.812 236.21 149.859 236.21 159.786C236.21 169.712 243.685 177.759 252.905 177.759Z" fill="#CC6017"/>
<path d="M255.733 177.759C264.954 177.759 272.429 169.712 272.429 159.786C272.429 149.859 264.954 141.812 255.733 141.812C246.512 141.812 239.038 149.859 239.038 159.786C239.038 169.712 246.512 177.759 255.733 177.759Z" fill="#EA9B1C"/>
<path d="M268.073 162.885C269.668 155.539 265.428 148.193 258.605 146.477C251.782 144.761 244.958 149.324 243.364 156.67C241.77 164.016 246.009 171.362 252.832 173.078C259.656 174.794 266.479 170.231 268.073 162.885Z" fill="#CC6017"/>
<g style="mix-blend-mode:multiply" opacity="0.58">
<path d="M255.733 171.417C261.7 171.417 266.538 166.21 266.538 159.786C266.538 153.362 261.7 148.154 255.733 148.154C249.766 148.154 244.929 153.362 244.929 159.786C244.929 166.21 249.766 171.417 255.733 171.417Z" fill="#CC6017"/>
</g>
<path d="M268.392 168.899C268.392 170.383 267.854 171.681 266.776 172.794C265.716 173.89 264.197 174.614 262.218 174.967V177.909H258.481V175.1C257.156 175.029 255.884 174.826 254.665 174.49C253.464 174.155 252.466 173.74 251.671 173.245L253.685 168.687C254.568 169.199 255.558 169.614 256.653 169.932C257.748 170.233 258.799 170.383 259.806 170.383C260.672 170.383 261.29 170.303 261.661 170.144C262.032 169.968 262.218 169.712 262.218 169.376C262.218 168.987 261.971 168.696 261.476 168.501C260.999 168.307 260.204 168.095 259.091 167.865C257.66 167.565 256.467 167.247 255.513 166.911C254.559 166.558 253.729 165.993 253.022 165.215C252.316 164.42 251.962 163.352 251.962 162.009C251.962 160.454 252.519 159.12 253.632 158.007C254.763 156.894 256.379 156.188 258.481 155.887V152.999H262.218V155.834C264.338 156.029 266.131 156.541 267.597 157.371L265.716 161.903C263.896 160.984 262.174 160.525 260.548 160.525C258.941 160.525 258.137 160.914 258.137 161.691C258.137 162.062 258.375 162.345 258.852 162.539C259.329 162.716 260.116 162.91 261.211 163.122C262.624 163.387 263.817 163.696 264.788 164.049C265.76 164.385 266.599 164.942 267.306 165.719C268.03 166.496 268.392 167.556 268.392 168.899Z" fill="#EA9B1C"/>
<path d="M88.4922 97.1667C97.0367 93.4352 101.153 82.9533 97.6874 73.7547C94.2214 64.556 84.485 60.124 75.9405 63.8554C67.3961 67.5869 63.2793 78.0688 66.7453 87.2674C70.2114 96.4661 79.9478 100.898 88.4922 97.1667Z" fill="#CC6017"/>
<path d="M96.8469 93.2283C103.367 86.2091 103.367 74.8287 96.8469 67.8094C90.3269 60.7902 79.7559 60.7902 73.2359 67.8094C66.7159 74.8287 66.7159 86.2091 73.2359 93.2283C79.7559 100.247 90.3269 100.248 96.8469 93.2283Z" fill="#EA9B1C"/>
<path d="M85.04 94.178C92.0471 94.178 97.7274 88.0627 97.7274 80.5191C97.7274 72.9755 92.0471 66.8602 85.04 66.8602C78.0329 66.8602 72.3525 72.9755 72.3525 80.5191C72.3525 88.0627 78.0329 94.178 85.04 94.178Z" fill="#CC6017"/>
<g style="mix-blend-mode:multiply" opacity="0.58">
<path d="M86.7551 92.0088C92.6461 90.9862 96.6516 85.0159 95.7017 78.6739C94.7518 72.3319 89.2061 68.0197 83.3152 69.0424C77.4242 70.065 73.4187 76.0352 74.3686 82.3772C75.3185 88.7192 80.8642 93.0314 86.7551 92.0088Z" fill="#CC6017"/>
</g>
<path d="M89.1273 79.9974C89.1273 80.5574 88.9239 81.0474 88.5173 81.4674C88.1173 81.8807 87.5439 82.154 86.7973 82.2874V83.3974H85.3873V82.3374C84.8873 82.3107 84.4073 82.234 83.9473 82.1074C83.4939 81.9807 83.1173 81.824 82.8173 81.6374L83.5773 79.9174C83.9106 80.1107 84.2839 80.2674 84.6973 80.3874C85.1106 80.5007 85.5073 80.5574 85.8873 80.5574C86.2139 80.5574 86.4473 80.5274 86.5873 80.4674C86.7273 80.4007 86.7973 80.304 86.7973 80.1774C86.7973 80.0307 86.7039 79.9207 86.5173 79.8474C86.3373 79.774 86.0373 79.694 85.6173 79.6074C85.0773 79.494 84.6273 79.374 84.2673 79.2474C83.9073 79.114 83.5939 78.9007 83.3273 78.6074C83.0606 78.3074 82.9273 77.904 82.9273 77.3974C82.9273 76.8107 83.1373 76.3074 83.5573 75.8874C83.9839 75.4674 84.5939 75.2007 85.3873 75.0874V73.9974H86.7973V75.0674C87.5973 75.1407 88.2739 75.334 88.8273 75.6474L88.1173 77.3574C87.4306 77.0107 86.7806 76.8374 86.1673 76.8374C85.5606 76.8374 85.2573 76.984 85.2573 77.2774C85.2573 77.4174 85.3473 77.524 85.5273 77.5974C85.7073 77.664 86.0039 77.7374 86.4173 77.8174C86.9506 77.9174 87.4006 78.034 87.7673 78.1674C88.1339 78.294 88.4506 78.504 88.7173 78.7974C88.9906 79.0907 89.1273 79.4907 89.1273 79.9974Z" fill="#EA9B1C"/>
<path d="M326.226 14.4214H343.466V24.4372C343.466 26.6971 342.632 28.8644 341.148 30.4624C339.664 32.0604 337.651 32.9581 335.551 32.9581H334.163C332.064 32.9581 330.051 32.0604 328.566 30.4624C327.082 28.8644 326.248 26.6971 326.248 24.4372V14.4214H326.226Z" fill="#EA9B1C"/>
<path d="M330.942 22.5974L333.528 25.3813L338.722 19.7894" stroke="white" stroke-miterlimit="10"/>
<path d="M326.226 61.2744H343.466V71.2902C343.466 73.5501 342.632 75.7174 341.148 77.3154C339.664 78.9134 337.651 79.8111 335.551 79.8111H334.163C332.064 79.8111 330.051 78.9134 328.566 77.3154C327.082 75.7174 326.248 73.5501 326.248 71.2902V61.2744H326.226Z" fill="#CC6017"/>
<path d="M334.899 74.1148C333.958 74.1148 333.114 73.9165 332.366 73.5198C331.618 73.1231 331.034 72.5735 330.615 71.8708C330.196 71.1568 329.986 70.3521 329.986 69.4568C329.986 68.5615 330.196 67.7625 330.615 67.0598C331.034 66.3571 331.612 65.8075 332.349 65.4108C333.097 65.0141 333.947 64.8158 334.899 64.8158C335.794 64.8158 336.576 64.9971 337.245 65.3598C337.925 65.7225 338.435 66.2438 338.775 66.9238L337.143 67.8758C336.882 67.4565 336.554 67.1448 336.157 66.9408C335.772 66.7255 335.347 66.6178 334.882 66.6178C334.089 66.6178 333.431 66.8785 332.91 67.3998C332.389 67.9098 332.128 68.5955 332.128 69.4568C332.128 70.3181 332.383 71.0095 332.893 71.5308C333.414 72.0408 334.077 72.2958 334.882 72.2958C335.347 72.2958 335.772 72.1938 336.157 71.9898C336.554 71.7745 336.882 71.4571 337.143 71.0378L338.775 71.9898C338.424 72.6698 337.908 73.1968 337.228 73.5708C336.559 73.9335 335.783 74.1148 334.899 74.1148Z" fill="#EA9B1C"/>
<path d="M326.226 37.6603H343.466V47.6761C343.466 49.936 342.632 52.1033 341.148 53.7013C339.664 55.2992 337.651 56.197 335.551 56.197H334.163C332.064 56.197 330.051 55.2992 328.566 53.7013C327.082 52.1033 326.248 49.936 326.248 47.6761V37.6603H326.226Z" fill="#EA9B1C"/>
<path d="M335.029 41.2975H334.641C333.399 41.2975 332.392 42.3812 332.392 43.7182V45.3764C332.392 46.7133 333.399 47.7971 334.641 47.7971H335.029C336.271 47.7971 337.277 46.7133 337.277 45.3764V43.7182C337.277 42.3812 336.271 41.2975 335.029 41.2975Z" stroke="white" stroke-width="3" stroke-miterlimit="10"/>
<path d="M337.485 43.6879H332.178C331.225 43.6879 330.453 44.5197 330.453 45.5458V49.6671C330.453 50.6932 331.225 51.525 332.178 51.525H337.485C338.438 51.525 339.211 50.6932 339.211 49.6671V45.5458C339.211 44.5197 338.438 43.6879 337.485 43.6879Z" fill="#CC6017"/>
<path d="M334.916 45.8665H334.748C334.195 45.8665 333.747 46.3488 333.747 46.9438V47.1253C333.747 47.7203 334.195 48.2025 334.748 48.2025H334.916C335.469 48.2025 335.917 47.7203 335.917 47.1253V46.9438C335.917 46.3488 335.469 45.8665 334.916 45.8665Z" fill="#EA9B1C"/>
<path d="M50.0472 52.5538C61.3169 52.5538 70.4528 45.1623 70.4528 36.0445C70.4528 26.9266 61.3169 19.5352 50.0472 19.5352C38.7775 19.5352 29.6416 26.9266 29.6416 36.0445C29.6416 45.1623 38.7775 52.5538 50.0472 52.5538Z" fill="#D6E3A6"/>
<path d="M56.2136 48.3296L56.995 62.0127L43.5093 48.3296H56.2136Z" fill="#D6E3A6"/>
<path d="M57.6976 28.1893H42.3906" stroke="white" stroke-width="0.97" stroke-miterlimit="10"/>
<path d="M57.6976 32.5829H42.3906" stroke="white" stroke-width="0.97" stroke-miterlimit="10"/>
<path d="M57.6976 36.9765H42.3906" stroke="white" stroke-width="0.97" stroke-miterlimit="10"/>
<path d="M57.6976 41.364H42.3906" stroke="white" stroke-width="0.97" stroke-miterlimit="10"/>
<path d="M217.778 80.4223C217.629 80.4223 217.486 80.3586 217.38 80.2451C217.275 80.1316 217.216 79.9776 217.216 79.8171V70.921C217.216 70.7605 217.275 70.6066 217.38 70.4931C217.486 70.3796 217.629 70.3158 217.778 70.3158C217.927 70.3158 218.07 70.3796 218.175 70.4931C218.281 70.6066 218.34 70.7605 218.34 70.921V79.8171C218.34 79.9776 218.281 80.1316 218.175 80.2451C218.07 80.3586 217.927 80.4223 217.778 80.4223Z" fill="#B34F18"/>
<path d="M221.909 75.9743H213.646C213.497 75.9743 213.354 75.9105 213.248 75.7971C213.143 75.6836 213.084 75.5296 213.084 75.3691C213.084 75.2086 213.143 75.0547 213.248 74.9412C213.354 74.8277 213.497 74.7639 213.646 74.7639H221.909C222.058 74.7639 222.201 74.8277 222.307 74.9412C222.412 75.0547 222.471 75.2086 222.471 75.3691C222.471 75.5296 222.412 75.6836 222.307 75.7971C222.201 75.9105 222.058 75.9743 221.909 75.9743Z" fill="#B34F18"/>
<path d="M101.747 50.0242C101.598 50.0242 101.455 49.9604 101.35 49.8469C101.244 49.7334 101.185 49.5795 101.185 49.419V40.547C101.185 40.3865 101.244 40.2326 101.35 40.1191C101.455 40.0056 101.598 39.9419 101.747 39.9419C101.896 39.9419 102.039 40.0056 102.145 40.1191C102.25 40.2326 102.309 40.3865 102.309 40.547V49.4432C102.304 49.5995 102.242 49.7472 102.137 49.8555C102.032 49.9639 101.892 50.0243 101.747 50.0242V50.0242Z" fill="#B34F18"/>
<path d="M105.868 45.5761H97.6041C97.455 45.5761 97.3121 45.5123 97.2066 45.3988C97.1012 45.2853 97.042 45.1314 97.042 44.9709C97.042 44.8104 97.1012 44.6565 97.2066 44.543C97.3121 44.4295 97.455 44.3657 97.6041 44.3657H105.868C106.017 44.3657 106.16 44.4295 106.265 44.543C106.37 44.6565 106.43 44.8104 106.43 44.9709C106.43 45.1314 106.37 45.2853 106.265 45.3988C106.16 45.5123 106.017 45.5761 105.868 45.5761Z" fill="#B34F18"/>
<path d="M317.743 103.534C317.594 103.534 317.451 103.47 317.346 103.357C317.24 103.243 317.181 103.089 317.181 102.929V94.0449C317.181 93.8844 317.24 93.7305 317.346 93.617C317.451 93.5035 317.594 93.4398 317.743 93.4398C317.892 93.4398 318.035 93.5035 318.141 93.617C318.246 93.7305 318.305 93.8844 318.305 94.0449V102.941C318.302 103.099 318.242 103.25 318.137 103.361C318.032 103.472 317.89 103.534 317.743 103.534Z" fill="#B34F18"/>
<path d="M321.875 99.08H313.612C313.487 99.0496 313.376 98.9746 313.297 98.8674C313.218 98.7602 313.174 98.6271 313.174 98.49C313.174 98.3528 313.218 98.2198 313.297 98.1126C313.376 98.0054 313.487 97.9304 313.612 97.8999H321.875C321.957 97.8797 322.043 97.8798 322.125 97.9C322.207 97.9202 322.284 97.9602 322.35 98.0169C322.416 98.0736 322.47 98.1455 322.506 98.2274C322.543 98.3093 322.562 98.3991 322.562 98.49C322.562 98.5809 322.543 98.6706 322.506 98.7525C322.47 98.8344 322.416 98.9064 322.35 98.9631C322.284 99.0198 322.207 99.0597 322.125 99.08C322.043 99.1002 321.957 99.1002 321.875 99.08Z" fill="#B34F18"/>
<path d="M130.158 123.808C130.009 123.808 129.866 123.744 129.76 123.63C129.655 123.517 129.596 123.363 129.596 123.202V114.318C129.577 114.23 129.577 114.138 129.596 114.049C129.614 113.961 129.652 113.878 129.704 113.807C129.757 113.736 129.824 113.678 129.9 113.639C129.976 113.599 130.059 113.579 130.144 113.579C130.228 113.579 130.311 113.599 130.388 113.639C130.464 113.678 130.53 113.736 130.583 113.807C130.636 113.878 130.673 113.961 130.692 114.049C130.711 114.138 130.711 114.23 130.692 114.318V123.215C130.689 123.368 130.632 123.514 130.533 123.624C130.434 123.735 130.3 123.8 130.158 123.808Z" fill="#B34F18"/>
<path d="M134.289 119.36H126.026C125.877 119.36 125.734 119.296 125.628 119.182C125.523 119.069 125.464 118.915 125.464 118.754C125.464 118.594 125.523 118.44 125.628 118.326C125.734 118.213 125.877 118.149 126.026 118.149H134.289C134.438 118.149 134.581 118.213 134.687 118.326C134.792 118.44 134.851 118.594 134.851 118.754C134.851 118.915 134.792 119.069 134.687 119.182C134.581 119.296 134.438 119.36 134.289 119.36Z" fill="#B34F18"/>
<path d="M294.988 10.0762C294.839 10.0762 294.696 10.0125 294.59 9.89899C294.485 9.78549 294.426 9.63156 294.426 9.47106V0.60518C294.426 0.444676 294.485 0.290746 294.59 0.177253C294.696 0.0637598 294.839 0 294.988 0C295.137 0 295.28 0.0637598 295.385 0.177253C295.491 0.290746 295.55 0.444676 295.55 0.60518V9.50132C295.543 9.65652 295.48 9.80279 295.376 9.90982C295.271 10.0168 295.132 10.0764 294.988 10.0762V10.0762Z" fill="#B34F18"/>
<path d="M299.12 5.62815H290.856C290.707 5.62815 290.564 5.56439 290.459 5.45089C290.353 5.3374 290.294 5.18347 290.294 5.02297C290.294 4.86246 290.353 4.70853 290.459 4.59504C290.564 4.48155 290.707 4.41779 290.856 4.41779H299.12C299.269 4.41779 299.412 4.48155 299.517 4.59504C299.622 4.70853 299.682 4.86246 299.682 5.02297C299.682 5.18347 299.622 5.3374 299.517 5.45089C299.412 5.56439 299.269 5.62815 299.12 5.62815Z" fill="#B34F18"/>
</svg>
