<svg width="406" height="214" viewBox="0 0 406 214" fill="none" xmlns="http://www.w3.org/2000/svg">
<path d="M404.867 198.454C406.183 198.454 403.303 162.687 402.889 159.53C401.138 145.76 397.938 132.248 393.351 119.256C384.803 95.4526 371.614 76.6929 350.964 68.6964C333.504 61.9377 314.101 65.0695 297.877 75.1332C282.532 84.6709 270.908 100.652 256.851 112.523C247.823 120.027 237.57 125.646 226.623 129.091C206.264 135.444 184.633 135.321 164.337 128.738C132.275 118.056 105.938 89.9132 68.0863 96.7337C66.4708 97.0246 64.8725 97.3527 63.2915 97.7797C37.7829 104.353 26.7964 122.537 17.6554 141.804C9.04904 159.926 3.54143 179.193 0 198.454H404.867Z" fill="#C0D76F"/>
<path d="M201.792 26.8367H201.723C199.589 27.1895 197.414 27.1245 195.302 26.6448C193.306 26.1823 191.36 25.4978 189.495 24.6023C187.673 23.742 185.936 22.7456 184.252 21.8048L179.239 18.8711C175.944 16.9772 172.621 15.2875 169.143 14.6005C165.658 13.92 162.065 14.3369 158.795 15.8012C155.476 17.2549 152.633 19.7364 150.626 22.9312C148.606 26.1491 147.464 29.9123 147.331 33.7934C147.331 33.9481 147.331 34.0967 147.331 34.2452C147.331 36.0463 147.596 37.9155 147.67 39.9084C147.751 42.0251 147.527 44.3585 146.296 46.3081C145.682 47.2985 144.802 48.063 143.773 48.4991C142.722 48.964 141.546 48.9817 140.484 48.5486C139.933 48.3172 139.452 47.9276 139.093 47.4222C138.745 46.9329 138.504 46.3662 138.386 45.7634C138.263 45.1488 138.283 44.5111 138.443 43.9067C138.604 43.2789 138.957 42.7275 139.444 42.3408C139.565 42.2487 139.715 42.2108 139.862 42.235C140.009 42.2593 140.141 42.3437 140.231 42.4708C140.314 42.5998 140.348 42.7578 140.327 42.9129C140.305 43.068 140.23 43.2086 140.116 43.3063C139.849 43.5728 139.657 43.9155 139.564 44.2946C139.47 44.6737 139.478 45.0735 139.587 45.4478C139.661 45.8421 139.826 46.21 140.068 46.5173C140.309 46.8246 140.618 47.0613 140.967 47.2055C141.724 47.4703 142.545 47.4173 143.267 47.057C144.012 46.709 144.64 46.1237 145.066 45.3797C145.952 43.8695 146.13 41.9075 145.986 39.9827C145.842 38.0578 145.451 35.9844 145.451 33.7934C145.445 29.459 146.581 25.2116 148.728 21.5449C149.803 19.6926 151.128 18.0237 152.661 16.5934C154.986 14.4505 157.71 12.8675 160.65 11.9506C163.59 11.0336 166.678 10.8039 169.707 11.2769C173.76 11.9267 177.451 13.6721 180.894 15.4979L185.994 18.2336C187.69 19.131 189.363 19.9852 191.053 20.7093C192.659 21.4392 194.332 21.9868 196.043 22.3433C197.669 22.6592 199.333 22.6592 200.959 22.3433H200.993C201.268 22.2818 201.552 22.2796 201.828 22.3367C202.104 22.3937 202.367 22.509 202.602 22.6758C202.836 22.8426 203.038 23.0576 203.195 23.3086C203.352 23.5596 203.461 23.8415 203.517 24.1382V24.1815C203.566 24.4778 203.56 24.7815 203.5 25.0753C203.439 25.3691 203.326 25.6473 203.166 25.8939C203.006 26.1405 202.802 26.3506 202.566 26.5124C202.33 26.6742 202.068 26.7844 201.792 26.8367V26.8367Z" fill="#142216"/>
<g style="mix-blend-mode:multiply">
<path d="M201.793 26.8367H201.724C199.59 27.1895 197.414 27.1245 195.302 26.6448C193.306 26.1823 191.36 25.4978 189.495 24.6023C187.673 23.742 185.937 22.7456 184.252 21.8048L179.239 18.8711C175.945 16.9772 172.622 15.2875 169.144 14.6005C165.659 13.92 162.065 14.3369 158.795 15.8012C155.477 17.2549 152.633 19.7364 150.626 22.9312C148.606 26.1491 147.464 29.9123 147.332 33.7934C147.376 29.0036 148.794 24.3455 151.39 20.4555C154.191 16.3222 158.397 13.5497 163.09 12.7437C167.942 12.0072 172.863 13.6412 177.284 15.8693C181.705 18.0974 185.908 20.9259 190.473 22.8136C194.618 24.5157 199.269 25.4008 203.523 24.1877C203.62 24.786 203.492 25.4012 203.167 25.898C202.843 26.3948 202.348 26.7324 201.793 26.8367V26.8367Z" fill="#BFD4EA"/>
</g>
<path d="M200.907 26.8366H200.976C203.11 27.1895 205.285 27.1245 207.397 26.6447C209.393 26.1822 211.339 25.4977 213.204 24.6023C215.026 23.742 216.763 22.7455 218.447 21.8047L223.46 18.871C226.755 16.9771 230.078 15.2874 233.556 14.6004C237.041 13.9199 240.634 14.3369 243.904 15.8011C247.225 17.2494 250.073 19.7266 252.085 22.9188C254.105 26.1366 255.246 29.8998 255.379 33.781C255.379 33.9357 255.379 34.0842 255.379 34.2328C255.379 36.0339 255.115 37.903 255.04 39.896C254.96 42.0127 255.184 44.346 256.414 46.2957C257.027 47.2845 257.905 48.0488 258.932 48.4867C259.985 48.9519 261.162 48.9696 262.226 48.5362C262.777 48.3048 263.258 47.9152 263.618 47.4097C263.965 46.9204 264.207 46.3537 264.325 45.751C264.447 45.1364 264.428 44.4987 264.267 43.8942C264.111 43.2852 263.774 42.7481 263.307 42.3655C263.186 42.2753 263.038 42.2385 262.892 42.2626C262.747 42.2868 262.615 42.3702 262.525 42.4954C262.443 42.6245 262.408 42.7825 262.43 42.9376C262.451 43.0927 262.526 43.2333 262.64 43.331C262.908 43.5975 263.099 43.9402 263.193 44.3193C263.286 44.6984 263.278 45.0982 263.169 45.4725C263.094 45.8664 262.929 46.2338 262.688 46.5409C262.447 46.848 262.138 47.085 261.789 47.2302C261.033 47.4932 260.212 47.4402 259.49 47.0817C258.747 46.7334 258.12 46.1479 257.696 45.4044C256.811 43.8942 256.633 41.9322 256.776 40.0074C256.92 38.0825 257.311 36.0091 257.311 33.8181C257.314 29.4842 256.178 25.2378 254.034 21.5695C252.96 19.7173 251.634 18.0484 250.102 16.6181C247.776 14.4752 245.053 12.8922 242.113 11.9753C239.173 11.0583 236.085 10.8286 233.056 11.3016C229.002 11.9514 225.312 13.6968 221.868 15.5226L216.768 18.2583C215.072 19.1557 213.399 20.0098 211.709 20.734C210.079 21.4519 208.383 21.983 206.65 22.3184C205.025 22.6344 203.36 22.6344 201.735 22.3184H201.7C201.146 22.2059 200.573 22.3342 200.107 22.6752C199.64 23.0162 199.318 23.5421 199.211 24.1381C199.211 24.1381 199.211 24.169 199.211 24.1814C199.115 24.7749 199.238 25.3853 199.555 25.8817C199.872 26.378 200.358 26.7209 200.907 26.8366Z" fill="#142216"/>
<g style="mix-blend-mode:multiply">
<path d="M200.907 26.8367H200.976C203.11 27.1895 205.285 27.1245 207.398 26.6448C209.394 26.1823 211.34 25.4978 213.204 24.6023C215.027 23.742 216.763 22.7455 218.447 21.8048L223.461 18.8711C226.755 16.9772 230.078 15.2875 233.556 14.6005C237.041 13.92 240.634 14.3369 243.904 15.8012C247.226 17.2495 250.073 19.7267 252.085 22.9188C254.105 26.1367 255.247 29.8999 255.379 33.781C255.334 28.9912 253.917 24.3331 251.321 20.4431C248.52 16.3098 244.314 13.5373 239.621 12.7313C234.769 11.9948 229.848 13.6288 225.427 15.8569C221.006 18.085 216.803 20.9135 212.238 22.8013C208.116 24.5157 203.465 25.376 199.205 24.1876C199.111 24.7811 199.236 25.3906 199.554 25.8858C199.872 26.381 200.358 26.7223 200.907 26.8367V26.8367Z" fill="#BFD4EA"/>
</g>
<path d="M198.866 129.764H198.636C183.896 129.764 197.17 69.7282 197.17 69.7282H197.584L199.941 23.643H202.367V69.753C202.367 69.753 213.256 129.145 198.866 129.764Z" fill="#142216"/>
<g style="mix-blend-mode:multiply">
<path d="M198.866 129.764C201.913 120.907 203.017 111.308 202.965 101.826C202.93 90.9064 202.132 80.0053 200.579 69.2146L201.361 24.59H202.367V69.7716C202.367 69.7716 213.256 129.145 198.866 129.764Z" fill="#BFD4EA"/>
</g>
<path d="M199.999 75.5276C203.904 75.5276 207.07 72.1192 207.07 67.9148C207.07 63.7104 203.904 60.302 199.999 60.302C196.093 60.302 192.927 63.7104 192.927 67.9148C192.927 72.1192 196.093 75.5276 199.999 75.5276Z" fill="#D97C2F"/>
<g style="mix-blend-mode:multiply">
<path d="M207.07 67.9148C207.072 69.5751 206.569 71.1903 205.638 72.514C204.707 73.8378 203.399 74.7973 201.915 75.2462C200.43 75.695 198.849 75.6086 197.415 75.0001C195.98 74.3916 194.769 73.2944 193.968 71.8759C195.074 72.6095 196.348 72.9955 197.647 72.99C198.902 72.9896 200.135 72.6294 201.218 71.9466C202.301 71.2637 203.196 70.2827 203.811 69.1044C204.425 67.9261 204.738 66.5929 204.715 65.2417C204.693 63.8905 204.337 62.5701 203.684 61.4161C204.718 62.0961 205.573 63.0509 206.166 64.1889C206.759 65.327 207.07 66.61 207.07 67.9148V67.9148Z" fill="#BFD4EA"/>
</g>
<path d="M202.298 53.7785L197.964 53.8837C195.63 53.9394 195.618 57.8572 197.964 57.8015L202.298 57.6963C204.633 57.6344 204.667 53.7228 202.298 53.7785Z" fill="#D97C2F"/>
<path d="M201.361 30.2531C204.266 30.2531 206.622 27.7176 206.622 24.5899C206.622 21.4622 204.266 18.9268 201.361 18.9268C198.456 18.9268 196.101 21.4622 196.101 24.5899C196.101 27.7176 198.456 30.2531 201.361 30.2531Z" fill="#D97C2F"/>
<path d="M201.361 28.4706C200.654 28.4706 199.963 28.2448 199.375 27.8218C198.787 27.3988 198.328 26.7975 198.058 26.0941C197.787 25.3907 197.716 24.6166 197.854 23.8698C197.992 23.1231 198.333 22.4371 198.833 21.8987C199.333 21.3603 199.97 20.9937 200.664 20.8451C201.357 20.6966 202.076 20.7728 202.73 21.0642C203.383 21.3556 203.942 21.849 204.335 22.4821C204.728 23.1152 204.937 23.8595 204.937 24.6209C204.936 25.6414 204.559 26.6196 203.888 27.3412C203.218 28.0628 202.309 28.469 201.361 28.4706V28.4706ZM201.361 21.8852C200.859 21.8852 200.367 22.0457 199.95 22.3463C199.532 22.6469 199.206 23.0741 199.014 23.574C198.821 24.0739 198.771 24.6239 198.869 25.1546C198.967 25.6852 199.209 26.1727 199.565 26.5553C199.92 26.9379 200.373 27.1984 200.866 27.304C201.359 27.4095 201.869 27.3553 202.334 27.1483C202.798 26.9412 203.195 26.5906 203.474 26.1407C203.753 25.6908 203.902 25.1619 203.902 24.6209C203.905 24.2592 203.842 23.9006 203.716 23.5654C203.589 23.2303 203.403 22.9254 203.167 22.6683C202.93 22.4111 202.649 22.2068 202.34 22.0671C202.03 21.9274 201.697 21.8551 201.361 21.8543V21.8852Z" fill="#142216"/>
<path d="M226.243 135.805V147.137L216.021 146.587L172.415 144.241L172.512 142.644L172.834 137.228L173.271 129.999C173.271 129.999 201.304 121.173 223.777 134.27C224.605 134.749 225.427 135.26 226.243 135.805Z" fill="#D97C2F"/>
<path d="M226.243 138.59V147.137L172.415 144.241L172.834 137.228C181.901 137.55 213.739 138.299 226.243 138.59Z" fill="#FFB549"/>
<path d="M238.201 156.892L178.549 157.752L162.963 157.981L163.981 142.39L172.513 142.644L219.138 143.999L226.243 144.21L236.333 144.501L238.201 156.892Z" fill="#142216"/>
<g style="mix-blend-mode:multiply">
<path d="M238.201 156.892L178.549 157.752L178.175 156.694C178.175 156.694 203.753 154.985 216.021 146.587C217.138 145.839 218.182 144.972 219.137 143.999C221.437 141.629 222.892 138.188 223.777 134.27C224.605 134.749 225.427 135.26 226.243 135.805V144.21L236.333 144.501L238.201 156.892Z" fill="#BFD4EA"/>
</g>
<path d="M115.257 82.0634C115.132 82.0646 115.011 82.0162 114.918 81.9273C114.866 81.8798 114.823 81.8217 114.793 81.7565C114.762 81.6913 114.743 81.6201 114.738 81.5471C114.732 81.4741 114.74 81.4007 114.761 81.331C114.783 81.2614 114.816 81.1969 114.86 81.1412L142.03 46.9765C142.078 46.9162 142.137 46.8674 142.203 46.8333C142.27 46.7991 142.342 46.7805 142.416 46.7784V46.7784C142.488 46.7781 142.56 46.7945 142.627 46.8265C142.693 46.8586 142.753 46.9055 142.801 46.9641L171.322 81.1289C171.414 81.2399 171.461 81.3855 171.453 81.5339C171.446 81.6823 171.384 81.8215 171.282 81.9211C171.18 82.0195 171.045 82.0702 170.908 82.0621C170.771 82.0539 170.643 81.9877 170.552 81.8778L142.433 48.1834L115.648 81.8654C115.6 81.9268 115.54 81.9763 115.473 82.0105C115.405 82.0446 115.332 82.0627 115.257 82.0634V82.0634Z" fill="#142216"/>
<path d="M131.039 81.1474C130.955 81.1459 130.874 81.123 130.8 81.0806C130.727 81.0382 130.664 80.9776 130.617 80.9037C130.569 80.8299 130.539 80.7449 130.529 80.656C130.518 80.567 130.527 80.4767 130.556 80.3924L141.939 47.1436C141.962 47.0751 141.997 47.0122 142.043 46.9585C142.089 46.9048 142.144 46.8614 142.206 46.8309C142.267 46.8004 142.334 46.7834 142.401 46.7807C142.469 46.7781 142.537 46.7899 142.6 46.8156C142.664 46.8405 142.724 46.8788 142.774 46.9285C142.825 46.9781 142.866 47.0381 142.894 47.1048C142.923 47.1716 142.94 47.2439 142.942 47.3175C142.945 47.391 142.934 47.4645 142.91 47.5336L131.527 80.7761C131.492 80.8848 131.425 80.979 131.338 81.0455C131.25 81.112 131.146 81.1476 131.039 81.1474V81.1474Z" fill="#142216"/>
<path d="M145.877 105.217C145.061 105.267 144.216 105.292 143.347 105.292H142.945C141.136 105.292 139.434 105.211 137.84 105.05C112.486 102.525 113.613 81.1784 113.613 81.1784C113.613 81.1784 117.126 80.6275 122.726 80.0519C124.686 79.8539 126.899 79.6434 129.308 79.4639C138.679 78.7522 150.976 78.3561 162.555 79.6311C165.878 80.0024 169.149 80.5037 172.271 81.1784C172.271 81.166 173.467 103.713 145.877 105.217Z" fill="#EA9B1C"/>
<g style="mix-blend-mode:multiply">
<path d="M143.577 105.218C159.427 100.78 160.6 87.7947 160.249 79.6373C163.572 80.0086 166.838 80.51 169.96 81.1846C169.971 81.166 171.167 103.714 143.577 105.218Z" fill="#DBC8AA"/>
</g>
<g style="mix-blend-mode:soft-light">
<path d="M141.054 105.273H140.646C138.837 105.273 137.135 105.193 135.541 105.032C130.702 103.428 126.539 100.048 123.777 95.4802C121.015 90.9122 119.829 85.4459 120.426 80.0334C122.387 79.8354 124.606 79.6249 127.015 79.4454C126.064 84.8201 126.919 90.3838 129.429 95.1414C132.015 99.9431 136.153 103.55 141.054 105.273V105.273Z" fill="white"/>
</g>
<path d="M233.309 82.0634C233.184 82.0646 233.063 82.0162 232.97 81.9273C232.918 81.8798 232.875 81.8217 232.844 81.7565C232.813 81.6913 232.795 81.6201 232.789 81.5471C232.784 81.4741 232.792 81.4007 232.813 81.331C232.834 81.2614 232.868 81.1969 232.912 81.1412L260.076 46.9765C260.125 46.916 260.185 46.8672 260.253 46.8331C260.32 46.799 260.393 46.7804 260.467 46.7784V46.7784C260.54 46.7781 260.612 46.7945 260.679 46.8265C260.745 46.8586 260.804 46.9055 260.853 46.9641L289.351 81.1289C289.442 81.2399 289.49 81.3855 289.482 81.5339C289.475 81.6823 289.413 81.8215 289.31 81.9211C289.208 82.0195 289.074 82.0702 288.937 82.0621C288.8 82.0539 288.672 81.9877 288.58 81.8778L260.485 48.1834L233.7 81.8654C233.652 81.9268 233.592 81.9763 233.524 82.0105C233.457 82.0446 233.383 82.0627 233.309 82.0634V82.0634Z" fill="#142216"/>
<path d="M249.096 81.1475C249.012 81.1469 248.929 81.1247 248.855 81.0827C248.781 81.0408 248.717 80.9802 248.67 80.9062C248.622 80.8322 248.591 80.7469 248.58 80.6575C248.569 80.5681 248.578 80.4772 248.607 80.3924L259.984 47.1436C260.04 47.0164 260.139 46.9164 260.26 46.8633C260.381 46.8102 260.516 46.8079 260.639 46.8568C260.762 46.9057 260.863 47.0024 260.922 47.1276C260.982 47.2529 260.996 47.3977 260.962 47.5336L249.579 80.7761C249.543 80.8839 249.478 80.9773 249.391 81.0437C249.305 81.1102 249.202 81.1464 249.096 81.1475Z" fill="#142216"/>
<path d="M264.072 105.217C263.256 105.267 262.411 105.292 261.542 105.292H261.14C259.327 105.292 257.625 105.211 256.035 105.05C230.681 102.525 231.808 81.1784 231.808 81.1784C231.808 81.1784 235.321 80.6275 240.921 80.0519C242.875 79.8539 245.094 79.6434 247.503 79.4639C256.874 78.7522 269.172 78.3561 280.75 79.6311C284.073 80.0024 287.344 80.5037 290.46 81.1784C290.46 81.166 291.662 103.713 264.072 105.217Z" fill="#EA9B1C"/>
<g style="mix-blend-mode:multiply">
<path d="M264.072 105.218C279.922 100.78 281.09 87.7947 280.745 79.6373C284.068 80.0086 287.339 80.51 290.455 81.1846C290.461 81.166 291.662 103.714 264.072 105.218Z" fill="#DBC8AA"/>
</g>
<g style="mix-blend-mode:soft-light">
<path d="M261.542 105.273H261.14C259.327 105.273 257.625 105.193 256.035 105.032C251.195 103.43 247.031 100.051 244.268 95.4822C241.506 90.9137 240.321 85.4462 240.92 80.0334C242.875 79.8354 245.094 79.6249 247.503 79.4454C246.558 84.8202 247.413 90.3818 249.918 95.1414C252.505 99.9416 256.643 103.548 261.542 105.273V105.273Z" fill="white"/>
</g>
<path d="M203.08 157.257L198.371 184.49L180.262 184.093L177.123 184.019L155.397 183.536C155.345 183.444 155.299 183.351 155.253 183.258C150.827 174.944 150.874 166.634 155.397 158.328L176.272 157.863L179.33 157.789L184.798 157.672L203.08 157.257Z" fill="#BD4A2C"/>
<path d="M162.526 158.16C162.526 158.16 154.385 169.245 162.526 183.685L170.81 183.871C170.81 183.871 163.245 173.157 170.81 157.981L162.526 158.16Z" fill="#8A2C08"/>
<path d="M180.262 184.087L177.123 184.013C174.932 180.089 173.705 175.629 173.556 171.054C173.408 166.478 174.342 161.937 176.272 157.857L179.33 157.783C177.104 161.794 176.007 166.415 176.172 171.084C176.338 175.753 177.758 180.27 180.262 184.087V184.087Z" fill="#F7EEDF"/>
<g style="mix-blend-mode:multiply">
<path d="M203.08 157.257L198.372 184.49L180.262 184.093L177.123 184.019L155.397 183.536C155.346 183.444 155.3 183.351 155.254 183.258C162.1 183.06 168.697 180.45 174.034 175.828C179.37 171.207 183.152 164.829 184.798 157.672L203.08 157.257Z" fill="#BFD4EA"/>
</g>
<path d="M215.073 179.823L215.648 161.088H238.207V156.477L189.846 157.554C187.734 161.644 186.625 166.246 186.625 170.926C186.625 175.605 187.734 180.208 189.846 184.298L238.207 185.375V180.423L215.073 179.823Z" fill="#DB5633"/>
<path d="M232.527 171.715C232.693 174.636 233.209 177.521 234.062 180.299L191.519 179.222C190.29 176.7 189.62 173.906 189.558 171.059C189.485 167.617 190.156 164.203 191.519 161.088H234.062C232.767 164.447 232.241 168.091 232.527 171.715V171.715Z" fill="white"/>
<path d="M194.37 164.319C197.241 164.224 200.116 164.183 202.994 164.195C205.869 164.195 208.743 164.238 211.618 164.294C214.492 164.35 217.367 164.449 220.241 164.573C223.116 164.696 225.99 164.863 228.836 165.086C225.962 165.177 223.087 165.218 220.212 165.21C217.338 165.21 214.463 165.161 211.589 165.105C208.714 165.049 205.84 164.95 202.965 164.82C200.091 164.69 197.233 164.535 194.37 164.319Z" fill="#7197D5"/>
<path d="M210.123 168.627C211.681 168.49 213.239 168.435 214.797 168.41C216.355 168.385 217.907 168.41 219.459 168.41C221.011 168.41 222.569 168.503 224.122 168.602C225.674 168.701 227.226 168.818 228.778 169.016C227.22 169.153 225.662 169.208 224.11 169.233C222.558 169.258 221 169.233 219.442 169.233C217.884 169.233 216.337 169.146 214.785 169.047C213.233 168.948 211.675 168.825 210.123 168.627Z" fill="#7197D5"/>
<path d="M204.891 175.942C206.104 175.794 207.317 175.726 208.536 175.688C209.755 175.651 210.962 175.651 212.175 175.688C213.388 175.726 214.602 175.75 215.815 175.837C217.028 175.924 218.241 176.029 219.454 176.215C218.235 176.363 217.022 176.431 215.809 176.468C214.596 176.505 213.377 176.512 212.164 176.499C210.951 176.487 209.738 176.431 208.525 176.345C207.312 176.258 206.099 176.128 204.891 175.942Z" fill="#7197D5"/>
<path d="M195.468 172.563C197.618 172.439 199.774 172.371 201.924 172.346C204.075 172.321 206.225 172.346 208.369 172.346C210.514 172.346 212.669 172.439 214.82 172.538C216.97 172.637 219.114 172.761 221.264 172.953C219.114 173.077 216.958 173.151 214.808 173.169C212.658 173.188 210.514 173.169 208.363 173.169C206.213 173.169 204.063 173.077 201.913 172.978C199.763 172.878 197.613 172.755 195.468 172.563Z" fill="#7197D5"/>
<g style="mix-blend-mode:multiply">
<path d="M234.062 180.299L191.519 179.223C190.291 176.7 189.62 173.906 189.559 171.059C203.881 171.55 218.206 171.769 232.533 171.715C232.697 174.635 233.211 177.521 234.062 180.299V180.299Z" fill="#BFD4EA"/>
</g>
<path d="M198.521 168.391H193.347C196.089 172.631 196.796 177.335 195.439 182.008C196.946 181.085 198.504 180.151 200.01 179.229C200.594 180.299 201.313 181.276 202.149 182.131C202.606 179.696 202.516 177.178 201.884 174.787C201.253 172.397 200.1 170.204 198.521 168.391V168.391Z" fill="#C12C22"/>
<path d="M251.988 183.963L201.35 182.726L149.608 181.488V183.58L169.69 184.44V196.416L149.602 196.819V199.121L202.752 198.613L251.988 198.143C254.787 193.285 254.724 188.562 251.988 183.963Z" fill="#0E537E"/>
<path d="M251.987 198.156L246.238 198.205L213.595 198.514H212.33L202.741 198.607L202.816 198.385C205.788 190.233 203.023 184.972 201.332 182.744L209.824 182.949L212.79 183.017L238.27 183.636L246.008 183.821L251.97 183.964C254.724 188.562 254.787 193.285 251.987 198.156Z" fill="#4A80BD"/>
<path d="M201.574 191.094C201.597 192.749 201.2 194.38 200.424 195.81L154.184 196.738C154.915 195.207 155.365 193.538 155.512 191.824C155.693 188.991 155.024 186.171 153.604 183.778L200.424 185.678C201.16 187.375 201.552 189.221 201.574 191.094V191.094Z" fill="white"/>
<path d="M157.237 185.882C159.959 185.791 162.68 185.752 165.401 185.765C168.12 185.765 170.84 185.808 173.559 185.857C176.278 185.907 178.998 186.006 181.717 186.124C184.436 186.241 187.155 186.396 189.875 186.606C187.15 186.697 184.427 186.736 181.705 186.724C178.986 186.724 176.267 186.681 173.547 186.631C170.828 186.582 168.109 186.483 165.389 186.359C162.67 186.235 159.951 186.086 157.237 185.882Z" fill="#7197D5"/>
<path d="M180.555 189.559C182.033 189.429 183.504 189.379 184.982 189.354C186.459 189.33 187.931 189.354 189.409 189.354C190.886 189.354 192.358 189.441 193.83 189.534C195.302 189.627 196.773 189.738 198.245 189.93C196.768 190.06 195.296 190.109 193.818 190.134C192.341 190.159 190.869 190.134 189.391 190.134C187.914 190.134 186.442 190.048 184.97 189.955C183.499 189.862 182.027 189.744 180.555 189.559Z" fill="#7197D5"/>
<path d="M158.99 192.87C161.031 192.752 163.067 192.684 165.108 192.666C167.148 192.647 169.189 192.666 171.225 192.666C173.26 192.666 175.306 192.752 177.342 192.845C179.377 192.938 181.418 193.062 183.459 193.241C181.412 193.359 179.377 193.427 177.336 193.445C175.295 193.464 173.254 193.445 171.219 193.445C169.184 193.445 167.137 193.359 165.102 193.266C163.067 193.173 161.026 193.049 158.99 192.87Z" fill="#7197D5"/>
<path d="M246.256 198.205L213.612 198.514C216.418 192.047 214.153 185.802 212.808 183.041L246.026 183.821C248.596 189.28 247.21 195.29 246.256 198.205Z" fill="#0E537E"/>
<path d="M231.371 193.272C237.918 193.272 243.226 192.153 243.226 190.772C243.226 189.391 237.918 188.271 231.371 188.271C224.824 188.271 219.517 189.391 219.517 190.772C219.517 192.153 224.824 193.272 231.371 193.272Z" fill="#25669C"/>
<g style="mix-blend-mode:multiply">
<path d="M201.574 191.094C201.597 192.749 201.2 194.38 200.424 195.81L154.184 196.738C154.914 195.206 155.365 193.538 155.512 191.824C170.866 191.915 186.22 191.671 201.574 191.094Z" fill="#BFD4EA"/>
</g>
<g style="mix-blend-mode:multiply">
<path d="M251.988 198.156L246.238 198.205L213.595 198.514H212.33L202.741 198.607L202.816 198.385C204.558 197.489 206.156 196.298 207.547 194.857C207.036 190.721 207.847 186.522 209.847 182.948L212.813 183.017L238.293 183.636L246.031 183.821L251.993 183.964C254.724 188.562 254.787 193.285 251.988 198.156Z" fill="#BFD4EA"/>
</g>
<path d="M194.64 188.271H197.159C197.277 189.592 197.142 190.926 196.762 192.188C196.383 193.451 195.766 194.616 194.951 195.612C194.129 196.59 193.124 197.372 192.003 197.905C190.882 198.438 189.669 198.711 188.443 198.706C188.719 197.964 188.92 197.351 189.196 196.608C187.89 196.807 186.569 196.867 185.252 196.788C187.42 196.388 189.498 195.548 191.375 194.312C192.306 193.634 193.083 192.739 193.649 191.693C194.214 190.647 194.553 189.478 194.64 188.271V188.271Z" fill="#FFB549"/>
<path d="M338.965 193.328C339.327 193.854 340.247 193.947 342.087 193.39C348.964 191.399 355.639 188.675 362.013 185.257L363.226 184.595C363.985 184.168 364.738 183.741 365.491 183.295C370.652 180.28 375.569 176.806 380.192 172.909L381.457 171.826C381.744 171.579 382.032 171.325 382.325 171.065C387.386 166.602 391.854 161.412 395.605 155.641C395.864 155.227 396.123 154.806 396.37 154.404C399.244 149.551 401.297 144.315 401.544 139.128C401.544 138.769 401.544 138.404 401.544 138.045C401.573 134.608 400.682 131.235 398.979 128.328C397.275 125.421 394.831 123.102 391.937 121.65C391.667 121.508 391.397 121.365 391.115 121.235C390.488 120.935 389.847 120.668 389.195 120.437C387.041 119.671 384.794 119.254 382.526 119.199C382.227 119.199 381.951 119.199 381.623 119.199C377.152 119.326 372.791 120.715 368.975 123.228C368.694 123.402 368.401 123.587 368.136 123.779C364.008 126.663 360.535 130.511 357.977 135.037C357.931 135.105 357.897 135.18 357.857 135.248L357.368 136.139C354.045 142.328 351.619 148.901 349.595 155.648C349.429 156.198 349.262 156.762 349.101 157.319C347.083 164.17 345.375 171.146 343.352 177.96C342.282 181.63 341.127 185.276 339.787 188.847C339.327 189.923 338.971 191.047 338.724 192.201C338.666 192.596 338.753 193 338.965 193.328V193.328Z" fill="#3E3E15"/>
<path d="M336.763 195.277C337.505 194.659 338.235 193.984 338.965 193.328C341.928 190.671 344.82 187.931 347.64 185.109C352.84 185.417 358.054 185.245 363.226 184.595C363.985 184.168 364.738 183.741 365.491 183.295C359.886 184.159 354.217 184.455 348.56 184.18C349.653 183.072 350.739 181.958 351.814 180.826C354.114 178.403 356.343 175.928 358.5 173.398C358.5 173.398 358.552 173.398 358.581 173.398C361.107 173.477 363.631 173.51 366.152 173.497C370.84 173.473 375.52 173.266 380.192 172.879L381.456 171.795C374.089 172.432 366.694 172.638 359.305 172.414C362.87 168.23 366.285 163.898 369.55 159.417C369.595 159.434 369.641 159.444 369.688 159.448C371.915 159.448 374.136 159.361 376.351 159.188C382.866 158.686 389.317 157.475 395.605 155.573C395.864 155.159 396.122 154.738 396.37 154.336C395.147 154.727 393.917 155.089 392.679 155.419C385.343 157.387 377.817 158.412 370.257 158.47C371.932 156.163 373.563 153.824 375.15 151.451C376.058 150.09 376.955 148.709 377.835 147.329C377.885 147.376 377.946 147.409 378.011 147.424C378.076 147.439 378.144 147.437 378.208 147.416C380.297 146.913 382.371 146.355 384.429 145.745C390.289 143.981 396.017 141.747 401.567 139.06C401.567 138.701 401.567 138.336 401.567 137.977C400.716 138.398 399.842 138.794 399.014 139.215C392.36 142.267 385.464 144.666 378.409 146.382C383.414 138.451 387.94 130.181 391.96 121.625C391.69 121.483 391.42 121.341 391.138 121.211C388.677 126.471 386.021 131.619 383.17 136.653C382.825 137.272 382.468 137.86 382.118 138.466C382.267 132.034 382.411 125.605 382.549 119.18C382.25 119.18 381.974 119.18 381.646 119.18L381.209 139.258C381.203 139.345 381.222 139.432 381.265 139.507C381.307 139.581 381.37 139.64 381.445 139.673C378.731 144.311 375.857 148.829 372.821 153.228C372.545 151.068 372.246 148.895 371.994 146.747C370.997 138.908 370 131.068 369.004 123.228C368.722 123.402 368.429 123.587 368.165 123.779C368.412 125.673 368.648 127.573 368.889 129.467L372.022 154.076C372.029 154.15 372.055 154.22 372.097 154.28C369.702 157.733 367.21 161.113 364.623 164.418C364.297 162.173 363.933 159.931 363.531 157.69C362.137 150.019 360.286 142.452 357.989 135.037C357.943 135.105 357.908 135.18 357.868 135.248L357.379 136.139C357.73 137.315 358.081 138.491 358.414 139.673C360.808 148.047 362.635 156.596 363.882 165.253C363.891 165.281 363.902 165.308 363.916 165.334C363.278 166.138 362.646 166.943 362.002 167.735C359.564 170.743 357.048 173.675 354.453 176.53C353.108 169.491 351.508 162.52 349.653 155.617C349.486 156.168 349.319 156.731 349.158 157.288C350.871 163.824 352.364 170.426 353.637 177.093C353.655 177.178 353.695 177.255 353.752 177.316C351.605 179.668 349.417 181.966 347.186 184.211C347.186 184.211 347.146 184.242 347.135 184.267C344.429 186.982 341.654 189.621 338.81 192.183C337.925 192.994 337.028 193.786 336.125 194.572C335.665 194.962 336.321 195.667 336.763 195.277Z" fill="#142216"/>
<path d="M323.477 194.578L330.181 195.055L331.043 195.123L336.01 195.476C335.849 189.367 341.644 184.471 346.1 180.689C350.124 177.242 354.522 172.885 354.902 167.537C354.919 167.207 354.919 166.877 354.902 166.547C354.902 166.337 354.89 166.13 354.867 165.928C354.712 164.009 354.016 162.171 353.942 160.246C353.763 155.462 357.391 151.581 360.892 148.654C363.634 146.37 366.641 144.012 368.366 140.874C368.594 140.455 368.798 140.021 368.975 139.574C369.176 139.074 369.337 138.556 369.458 138.027C370.838 132.085 366.906 126.032 366.348 120.078C366.348 119.744 366.296 119.403 366.291 119.063C366.256 117.973 366.376 116.883 366.647 115.832C367.636 112.069 370.671 109.302 371.976 105.663C372.908 103.095 372.913 100.347 372.609 97.58C372.574 97.2334 372.534 96.893 372.482 96.5526C372.287 95.0362 372.011 93.5136 371.769 92.022C371.034 87.4791 370.746 82.342 373.402 78.7275C374.742 76.8707 376.691 75.6885 378.088 73.9184C379.485 72.1483 380.221 69.3198 378.795 67.5744C378.586 67.3318 378.346 67.1233 378.082 66.9555C377.801 66.7704 377.497 66.6287 377.179 66.5346C375.841 66.2246 374.45 66.3123 373.155 66.7884C368.614 68.2626 364.616 71.2298 361.72 75.2739C361.484 75.6019 361.249 75.9423 361.03 76.2889C360.021 77.8395 359.191 79.5168 358.558 81.2836C357.178 85.1457 356.713 89.404 354.81 92.9999C353.698 94.9418 352.372 96.7313 350.86 98.3289C350.624 98.6012 350.377 98.8673 350.136 99.1397C347.301 102.309 344.479 105.403 344.099 109.661C343.697 114.142 346.29 118.716 345.019 122.999C344.93 123.297 344.824 123.588 344.703 123.872C344.566 124.195 344.409 124.507 344.231 124.807C341.989 128.638 336.976 130.334 334.073 133.917C333.31 134.861 332.685 135.926 332.222 137.074C332.001 137.574 331.809 138.089 331.647 138.615C329.807 144.705 330.997 152.305 328.456 158.371C326.829 162.27 323.759 165.26 321.873 169.023C317.872 177.1 319.85 186.216 323.477 194.578Z" fill="#676521"/>
<path d="M333.59 173.918C330.572 180.449 329.387 187.785 330.181 195.03L331.043 195.098C330.675 191.806 330.718 188.475 331.17 185.195C331.556 182.439 332.235 179.739 333.193 177.149C334.023 174.99 335.035 172.919 336.217 170.96C336.257 170.966 336.298 170.966 336.338 170.96C338.287 170.965 340.235 170.862 342.173 170.65C346.516 170.168 350.789 169.129 354.902 167.556C354.919 167.226 354.919 166.895 354.902 166.565C349.074 168.836 342.927 170.008 336.729 170.031C336.792 169.932 336.856 169.833 336.913 169.728C338.339 167.413 339.788 165.092 340.759 162.487C341.731 159.881 341.909 157.152 341.978 154.441C342.047 151.73 342.07 148.87 342.829 146.19C342.94 145.812 343.071 145.44 343.22 145.076C345.425 145.321 347.644 145.408 349.86 145.336C356.23 145.117 362.505 143.613 368.361 140.905C368.589 140.486 368.792 140.052 368.97 139.605C368.242 139.964 367.506 140.304 366.762 140.626C359.421 143.766 351.492 144.986 343.628 144.185C344.349 142.781 345.308 141.536 346.457 140.515C349.366 137.853 353.051 136.182 355.534 132.964C356.813 131.346 357.555 129.317 357.644 127.196C357.673 125.99 357.557 124.785 357.299 123.612C360.451 122.854 363.5 121.664 366.371 120.072C366.371 119.737 366.32 119.397 366.314 119.057C363.409 120.69 360.316 121.901 357.115 122.659C356.885 121.693 356.621 120.734 356.356 119.787C355.69 117.367 354.988 114.836 355.281 112.279C355.575 109.723 356.966 107.483 358.363 105.471C358.737 104.92 359.122 104.376 359.513 103.825C359.599 103.863 359.696 103.863 359.783 103.825C364.329 102.442 368.66 100.339 372.632 97.5861C372.598 97.2395 372.557 96.8991 372.506 96.5587C368.714 99.2393 364.582 101.314 360.237 102.717C361.01 101.56 361.662 100.315 362.18 99.0034C363.209 96.2864 363.485 93.3341 363.79 90.4499C363.994 87.5777 364.584 84.7526 365.543 82.0634C366.513 79.6859 367.805 77.4769 369.378 75.509C371.982 72.3132 374.909 69.4401 378.105 66.9431C377.824 66.758 377.52 66.6163 377.203 66.5222L376.955 66.7264C373.115 69.9387 369.378 73.417 366.699 77.8052C365.73 79.3859 364.935 81.0829 364.33 82.8618C363.107 80.4868 362.243 77.917 361.772 75.249C361.536 75.5771 361.301 75.9175 361.082 76.2641C361.639 78.9498 362.584 81.5248 363.882 83.8954C363.907 83.9397 363.938 83.9795 363.974 84.013C363.886 84.3266 363.805 84.6423 363.733 84.96C363.077 87.8256 362.951 90.7779 362.548 93.6869C362.207 96.5913 361.253 99.3732 359.76 101.82C358.42 103.955 356.811 105.898 355.684 108.182C355.381 108.802 355.127 109.448 354.925 110.113C353.033 106.42 351.676 102.438 350.901 98.3041C350.665 98.5764 350.418 98.8425 350.176 99.1148C351.026 103.344 352.472 107.408 354.465 111.165C354.502 111.229 354.551 111.284 354.609 111.326C354.357 112.621 354.312 113.952 354.477 115.263C354.787 117.874 355.69 120.344 356.282 122.882C356.857 125.295 357.104 127.833 356.155 130.166C355.453 131.734 354.421 133.105 353.143 134.171C353.128 134.148 353.108 134.128 353.085 134.115C349.729 131.281 346.898 127.792 344.743 123.829C344.607 124.152 344.449 124.464 344.272 124.763C346.427 128.591 349.199 131.974 352.459 134.753L352.424 134.784C349.331 137.321 345.525 139.197 343.341 142.83C340.65 147.255 341.443 152.732 340.914 157.789C339.807 156.132 338.784 154.411 337.85 152.633C335.297 147.754 333.426 142.497 332.297 137.03C332.076 137.531 331.884 138.046 331.722 138.571C333.443 145.92 336.475 152.838 340.65 158.94C340.682 158.977 340.716 159.01 340.753 159.039C339.811 164.715 335.936 168.924 333.59 173.918Z" fill="#3E3E15"/>
<path d="M66.2405 193.328C65.8841 193.854 64.9585 193.947 63.1245 193.39C56.2462 191.398 49.5692 188.674 43.1925 185.257L41.968 184.595C41.2091 184.168 40.456 183.741 39.7028 183.295C34.5443 180.277 29.6273 176.803 25.0025 172.909L23.7377 171.826C23.4502 171.579 23.1627 171.325 22.8695 171.065C17.8088 166.603 13.3421 161.414 9.59494 155.641C9.33049 155.227 9.07753 154.806 8.82457 154.404C5.95003 149.551 3.89761 144.315 3.6504 139.128C3.6504 138.77 3.62166 138.404 3.62166 138.045C3.59018 134.607 4.47875 131.231 6.18124 128.322C7.88373 125.412 10.3282 123.092 13.2226 121.638C13.4928 121.495 13.7688 121.353 14.0505 121.223C14.6757 120.922 15.3146 120.656 15.9649 120.425C18.1187 119.659 20.3662 119.242 22.6338 119.187C22.9385 119.187 23.2087 119.187 23.5422 119.187C28.0133 119.313 32.375 120.703 36.1901 123.216C36.4718 123.389 36.7651 123.575 37.0295 123.767C41.158 126.651 44.6301 130.499 47.1881 135.025C47.2341 135.093 47.2686 135.167 47.3088 135.235L47.8033 136.127C51.1205 142.316 53.5236 148.889 55.5703 155.635L56.0704 157.306C58.0826 164.158 59.7901 171.133 61.785 177.948C62.8601 181.618 64.0156 185.263 65.3494 188.834C65.8095 189.911 66.1659 191.035 66.413 192.189C66.4972 192.578 66.4352 192.988 66.2405 193.328Z" fill="#3E3E15"/>
<path d="M68.4424 195.277C67.7065 194.634 66.9726 193.984 66.2405 193.328C63.2778 190.671 60.388 187.931 57.5709 185.109C52.3658 185.418 47.1457 185.246 41.9679 184.595C41.2091 184.168 40.4559 183.741 39.7028 183.295C45.3084 184.159 50.9768 184.455 56.6338 184.18C55.5415 183.072 54.4549 181.958 53.3856 180.826C51.086 178.403 48.8553 175.928 46.6937 173.398C46.6937 173.398 46.6419 173.398 46.6132 173.398C44.0874 173.477 41.5636 173.51 39.0417 173.497C34.3619 173.473 29.6822 173.266 25.0024 172.879L23.7376 171.795C31.1056 172.432 38.5001 172.638 45.8888 172.414C42.332 168.23 38.9171 163.898 35.644 159.417C35.5996 159.434 35.5531 159.445 35.506 159.448C33.2868 159.448 31.0619 159.355 28.8428 159.188C22.3299 158.686 15.8809 157.475 9.59491 155.573C9.33046 155.159 9.0775 154.738 8.82454 154.336C10.051 154.727 11.2813 155.089 12.5154 155.419C19.8509 157.387 27.3773 158.411 34.9368 158.47C33.2696 156.161 31.6311 153.828 30.0444 151.451C29.136 150.09 28.2392 148.709 27.3595 147.329C27.3091 147.376 27.2484 147.409 27.183 147.424C27.1177 147.439 27.0499 147.437 26.9859 147.416C24.9009 146.913 22.8274 146.355 20.7654 145.745C14.9058 143.98 9.1772 141.746 3.62738 139.06C3.62738 138.701 3.59863 138.336 3.59863 137.977C4.4495 138.398 5.32335 138.794 6.15122 139.215C12.8054 142.266 19.7015 144.665 26.7559 146.382C21.7536 138.449 17.2275 130.18 13.2053 121.625C13.4755 121.483 13.7515 121.341 14.0332 121.211C16.4938 126.471 19.1499 131.619 22.0014 136.653C22.3464 137.272 22.697 137.86 23.0477 138.466C22.9059 132.034 22.7622 125.605 22.6166 119.18C22.9213 119.18 23.1915 119.18 23.5249 119.18L24.0021 139.258C24.0058 139.345 23.9854 139.431 23.9433 139.505C23.9013 139.579 23.8397 139.637 23.7664 139.673C26.4723 144.311 29.3353 148.829 32.3555 153.228C32.6372 151.068 32.9304 148.895 33.1833 146.747C34.1799 138.908 35.1764 131.068 36.1729 123.228C36.4546 123.402 36.7478 123.587 37.0122 123.779L36.2878 129.467L33.1546 154.076C33.1494 154.149 33.1256 154.22 33.0856 154.28C35.4772 157.733 37.9685 161.113 40.5594 164.418C40.8814 162.173 41.2455 159.931 41.6517 157.69C43.0435 150.019 44.8928 142.452 47.1881 135.037C47.2341 135.105 47.2686 135.18 47.3088 135.248L47.8032 136.139C47.4468 137.315 47.0961 138.491 46.7627 139.673C44.3789 148.047 42.5613 156.597 41.324 165.253C41.3149 165.281 41.3034 165.308 41.2895 165.334C41.9277 166.138 42.5601 166.943 43.204 167.735C45.6416 170.743 48.1712 173.671 50.7525 176.53C52.0978 169.491 53.6979 162.52 55.553 155.617L56.0532 157.288C54.3284 163.836 52.8356 170.442 51.5746 177.106C51.557 177.192 51.5148 177.27 51.4539 177.329C53.5964 179.681 55.7868 181.979 58.0251 184.223C58.0434 184.239 58.0589 184.258 58.0711 184.279C60.7846 186.994 63.5595 189.633 66.3957 192.195C67.2811 193.006 68.1779 193.798 69.0805 194.584C69.5635 194.962 68.8908 195.667 68.4424 195.277Z" fill="#142216"/>
<path d="M81.7341 194.578L75.0249 195.055L74.1625 195.123L69.2011 195.476C69.3563 189.367 63.5612 184.471 59.1057 180.689C55.0814 177.242 50.6833 172.885 50.3039 167.537C50.2865 167.207 50.2865 166.877 50.3039 166.547C50.3039 166.336 50.3154 166.13 50.3384 165.928C50.4936 164.009 51.195 162.171 51.264 160.246C51.4422 155.462 47.8145 151.581 44.3191 148.654C41.5768 146.37 38.57 144.012 36.8453 140.874C36.6152 140.455 36.4098 140.021 36.2302 139.574C36.0324 139.073 35.8709 138.555 35.7472 138.027C34.3675 132.085 38.2998 126.032 38.8575 120.078C38.892 119.744 38.9092 119.403 38.915 119.063C38.952 117.973 38.8337 116.883 38.5643 115.832C37.5697 112.069 34.5399 109.302 33.2291 105.663C32.2978 103.095 32.292 100.347 32.5967 97.5799C32.6312 97.2333 32.6715 96.8929 32.7232 96.5525C32.9244 95.0362 33.1946 93.5136 33.4361 92.022C34.172 87.4791 34.4594 82.342 31.8034 78.7274C30.4638 76.8707 28.5207 75.6885 27.1179 73.9184C25.7151 72.1483 24.962 69.3198 26.3877 67.5682C26.5961 67.3256 26.8363 67.1171 27.1006 66.9493C27.3827 66.7663 27.6863 66.6248 28.0032 66.5284C29.3413 66.2196 30.7321 66.3073 32.0276 66.7822C36.566 68.2583 40.5622 71.2252 43.4567 75.2676C43.6982 75.5957 43.9282 75.9361 44.1466 76.2827C45.1561 77.8333 45.9863 79.5106 46.6187 81.2774C47.9985 85.1395 48.4642 89.3977 50.3729 92.9937C51.4821 94.9355 52.8064 96.7249 54.3167 98.3227C54.5525 98.595 54.7997 98.8611 55.0411 99.1334C57.8754 102.302 60.6982 105.397 61.0776 109.655C61.4801 114.136 58.8872 118.71 60.1578 122.993C60.2467 123.291 60.3523 123.582 60.474 123.866C60.6106 124.189 60.7681 124.501 60.9454 124.8C63.1933 128.631 68.2007 130.327 71.104 133.911C71.8671 134.855 72.4914 135.92 72.9552 137.067C73.1732 137.569 73.3651 138.084 73.5301 138.609C75.3641 144.699 74.174 152.299 76.7151 158.365C78.3479 162.264 81.4121 165.253 83.3035 169.016C87.3394 177.1 85.356 186.216 81.7341 194.578Z" fill="#676521"/>
<path d="M71.6159 173.918C74.637 180.448 75.8219 187.785 75.0251 195.03L74.1627 195.098C74.5308 191.806 74.4882 188.475 74.0362 185.195C73.6497 182.439 72.9707 179.739 72.0126 177.149C71.1832 174.99 70.1709 172.919 68.9886 170.96C68.9485 170.966 68.9079 170.966 68.8678 170.96C66.9191 170.965 64.9714 170.862 63.0325 170.65C58.6904 170.168 54.4174 169.129 50.3041 167.556C50.2867 167.226 50.2867 166.895 50.3041 166.565C56.1318 168.836 62.2793 170.008 68.4769 170.031C68.4137 169.932 68.3504 169.833 68.2929 169.728C66.8672 167.413 65.4184 165.092 64.4525 162.487C63.4867 159.881 63.3027 157.152 63.228 154.441C63.1533 151.73 63.1418 148.87 62.3771 146.19C62.2679 145.807 62.1299 145.435 61.9919 145.076C59.7863 145.32 57.5681 145.407 55.3518 145.336C48.9817 145.118 42.7063 143.615 36.8513 140.905C36.6212 140.486 36.4157 140.052 36.2361 139.605C36.9662 139.964 37.7021 140.304 38.4495 140.626C45.7906 143.767 53.7194 144.987 61.5838 144.185C60.8592 142.783 59.898 141.538 58.7495 140.515C55.8404 137.853 52.1553 136.182 49.6717 132.964C48.3927 131.347 47.652 129.317 47.5675 127.196C47.5392 125.99 47.6532 124.786 47.9067 123.612C44.7547 122.854 41.7059 121.664 38.8347 120.072C38.8692 119.737 38.8864 119.397 38.8922 119.057C41.7969 120.69 44.8901 121.901 48.0907 122.659C48.3207 121.693 48.5851 120.734 48.8496 119.787C49.5222 117.367 50.2178 114.836 49.9246 112.279C49.6314 109.723 48.2402 107.483 46.8431 105.471C46.4695 104.92 46.0843 104.376 45.6933 103.825C45.6068 103.863 45.5097 103.863 45.4231 103.825C40.8771 102.441 36.5469 100.338 32.5739 97.5861C32.6084 97.2395 32.6487 96.8991 32.7004 96.5587C36.4933 99.2405 40.6279 101.315 44.9747 102.717C44.1995 101.561 43.5459 100.315 43.0258 99.0034C41.9967 96.2864 41.7265 93.3341 41.416 90.4499C41.2158 87.5717 40.627 84.7403 39.6683 82.0449C38.6959 79.6735 37.4017 77.4708 35.8279 75.509C33.2238 72.3132 30.2967 69.4401 27.1008 66.9431C27.3829 66.7601 27.6865 66.6186 28.0034 66.5222L28.2506 66.7264C32.0795 69.9387 35.8337 73.417 38.5185 77.8052C39.4879 79.3859 40.2828 81.0829 40.8871 82.8618C42.1128 80.488 42.9766 77.9177 43.4454 75.249C43.6869 75.5771 43.9169 75.9175 44.1353 76.2641C43.5808 78.9506 42.6359 81.5261 41.3355 83.8954C41.3148 83.9425 41.2831 83.983 41.2435 84.013C41.3317 84.3266 41.4122 84.6423 41.485 84.96C42.1404 87.8256 42.2726 90.7779 42.6751 93.6869C43.0117 96.5914 43.9637 99.3739 45.4576 101.82C46.7971 103.955 48.4069 105.898 49.5337 108.182C49.8391 108.8 50.093 109.447 50.2926 110.113C52.1848 106.42 53.5419 102.438 54.3169 98.3041C54.5526 98.5764 54.7999 98.8425 55.0413 99.1148C54.1915 103.344 52.7452 107.408 50.7525 111.165C50.7169 111.23 50.6677 111.285 50.6088 111.326C50.8608 112.621 50.9055 113.952 50.741 115.263C50.4363 117.874 49.528 120.344 48.9358 122.882C48.3609 125.295 48.1137 127.833 49.0623 130.166C49.7668 131.735 50.8001 133.106 52.0805 134.171C52.0917 134.147 52.1099 134.127 52.1323 134.115C55.489 131.281 58.3191 127.792 60.4742 123.829C60.6108 124.152 60.7683 124.464 60.9456 124.763C58.7906 128.591 56.0182 131.974 52.7589 134.753L52.7934 134.784C55.8864 137.321 59.6923 139.197 61.877 142.83C64.5675 147.255 63.7799 152.732 64.3031 157.789C65.411 156.132 66.434 154.411 67.3673 152.633C69.9311 147.762 71.8141 142.511 72.9554 137.049C73.1734 137.551 73.3653 138.065 73.5303 138.59C71.8072 145.939 68.7728 152.857 64.5963 158.959C64.5647 158.995 64.5301 159.028 64.4928 159.058C65.3954 164.715 69.2703 168.924 71.6159 173.918Z" fill="#3E3E15"/>
<path d="M324.248 175.286C324.213 175.416 324.173 175.552 324.133 175.688L320.465 176.654C319.289 176.552 318.172 176.064 317.263 175.255C316.863 174.854 316.55 174.364 316.346 173.818C316.141 173.273 316.05 172.686 316.078 172.099C316.108 171.122 316.29 170.157 316.619 169.245C316.619 169.245 313.566 168.435 315.193 165.779C315.193 165.779 295.071 137.47 300.378 134.623C300.782 134.42 301.243 134.393 301.665 134.548C307.46 136.405 318.108 164.313 318.108 164.313C318.108 164.313 321.557 164.932 319.924 167.76C319.947 167.76 325.972 168.695 324.248 175.286Z" fill="#0E537E"/>
<g style="mix-blend-mode:multiply">
<path d="M324.248 175.286C321.948 175.286 319.591 175.286 317.263 175.286C316.863 174.885 316.55 174.394 316.346 173.849C316.141 173.304 316.05 172.717 316.078 172.13C317.386 171.204 318.873 170.612 320.425 170.397C320.219 169.91 319.922 169.475 319.553 169.117C319.184 168.76 318.751 168.487 318.28 168.317C318.5 168.053 318.651 167.732 318.719 167.385C318.786 167.039 318.768 166.679 318.666 166.343C318.528 166.007 318.314 165.713 318.044 165.49C317.774 165.266 317.456 165.118 317.119 165.062C313.395 154.135 308.187 143.862 301.666 134.579C307.461 136.436 318.108 164.344 318.108 164.344C318.108 164.344 321.557 164.962 319.925 167.791C319.948 167.76 325.973 168.695 324.248 175.286Z" fill="#BFD4EA"/>
</g>
<path d="M344.105 184.186C343.841 178.356 340.868 173.621 337.137 172.594C335.666 172.032 334.061 172.032 332.59 172.594L332.843 173.145C329.617 174.902 327.439 179.631 327.668 185.065C327.927 190.796 330.802 195.463 334.441 196.596L333.866 196.992C335.089 197.368 336.397 197.258 337.551 196.682V196.682C341.535 195.618 344.37 190.357 344.105 184.186Z" fill="#7197D5"/>
<path d="M334.246 196.983C338.787 196.747 342.223 191.083 341.919 184.333C341.616 177.583 337.689 172.303 333.147 172.54C328.606 172.776 325.17 178.44 325.473 185.19C325.777 191.94 329.704 197.22 334.246 196.983Z" fill="#002638"/>
<path d="M339.431 187.293C339.114 189.707 338.104 191.953 336.542 193.717C334.98 195.482 332.945 196.677 330.721 197.134C326.334 198.004 321.851 198.175 317.418 197.642C315.374 197.424 313.342 197.094 311.329 196.651L310.352 174.989C316.849 172.437 323.864 171.809 330.663 173.169C330.993 173.24 331.309 173.32 331.612 173.411C333.734 174.045 335.626 175.359 337.037 177.179C338.448 178.998 339.311 181.238 339.511 183.598C339.614 184.829 339.587 186.069 339.431 187.293V187.293Z" fill="#25669C"/>
<g style="mix-blend-mode:multiply">
<path d="M339.431 187.293C339.114 189.707 338.104 191.953 336.542 193.717C334.98 195.482 332.945 196.677 330.721 197.134C326.334 198.004 321.851 198.175 317.418 197.642C322.833 196.768 327.739 193.716 331.147 189.101C332.528 187.289 333.53 185.178 334.084 182.911C334.627 180.622 334.424 178.201 333.509 176.054C333.053 175.056 332.409 174.171 331.618 173.454C333.74 174.088 335.632 175.402 337.043 177.222C338.454 179.042 339.317 181.281 339.517 183.642C339.615 184.859 339.586 186.083 339.431 187.293V187.293Z" fill="#BFD4EA"/>
</g>
<path d="M321.833 185.35C321.568 179.513 318.602 174.785 314.871 173.757H314.842C313.371 173.198 311.766 173.198 310.295 173.757L310.547 174.308C307.322 176.072 305.143 180.801 305.373 186.229C305.632 191.966 308.501 196.633 312.14 197.766L311.565 198.155C312.788 198.536 314.097 198.426 315.25 197.846V197.846C319.263 196.781 322.109 191.521 321.833 185.35Z" fill="#002638"/>
<path d="M319.648 185.461C319.953 192.214 316.521 197.877 311.979 198.112C310.251 198.163 308.57 197.498 307.282 196.255C306.799 195.81 306.358 195.315 305.966 194.776C305.59 194.266 305.254 193.723 304.96 193.155C304.092 191.454 303.534 189.591 303.315 187.665C303.264 187.225 303.229 186.773 303.206 186.315C302.901 179.563 306.334 173.9 310.881 173.665C311.331 173.641 311.782 173.67 312.226 173.751C313.657 174.058 314.97 174.817 315.998 175.93C316.417 176.363 316.801 176.833 317.148 177.335C317.544 177.923 317.898 178.544 318.205 179.192C319.082 181.152 319.573 183.287 319.648 185.461V185.461Z" fill="#25669C"/>
<path d="M317.832 184.904C318.091 190.66 315.187 196.144 311.312 196.348C307.438 196.552 304.109 192.437 303.839 186.674C303.568 180.912 306.489 175.701 310.364 175.497C314.239 175.292 317.567 179.148 317.832 184.904Z" fill="#7197D5"/>
<g style="mix-blend-mode:soft-light" opacity="0.5">
<path d="M316.009 175.936L304.971 193.161C304.103 191.46 303.545 189.597 303.327 187.671L312.238 173.757C313.668 174.064 314.981 174.823 316.009 175.936Z" fill="white"/>
<path d="M318.205 179.223L307.282 196.262C306.799 195.816 306.358 195.321 305.966 194.782L317.136 177.341C317.538 177.937 317.895 178.566 318.205 179.223V179.223Z" fill="white"/>
</g>
<path d="M273.914 174.63V185.474C273.914 186.246 274.036 187.012 274.276 187.739C275.408 191.13 275.958 194.714 275.898 198.316H252.689C252.689 198.316 254.046 195.005 260.197 192.975C261.287 192.606 262.295 191.999 263.158 191.193L265.423 189.119C266.04 188.557 266.508 187.829 266.781 187.01C267.053 186.191 267.12 185.309 266.975 184.452L265.342 174.642L273.914 174.63Z" fill="#BD5331"/>
<path d="M274.805 189.503L269.177 192.393L265.032 189.46L263.158 191.174C262.295 191.981 261.287 192.587 260.197 192.957C254.046 194.987 252.689 198.298 252.689 198.298H275.898C275.954 195.323 275.586 192.357 274.805 189.503Z" fill="#D97C2F"/>
<path d="M292.627 174.649L294.645 186.811C294.739 187.425 294.739 188.053 294.645 188.667L293.312 198.354H311.082C311.082 198.354 310.841 195.494 309.995 194.714C309.15 193.934 306.736 191.979 306.736 191.979L303.108 187.918C302.29 187.006 301.801 185.81 301.728 184.545L301.153 174.643L292.627 174.649Z" fill="#BD5331"/>
<path d="M303.293 188.067C302.111 188.141 300.956 188.474 299.898 189.046C298.841 189.617 297.902 190.415 297.141 191.391L294.519 189.911L293.37 198.335H311.14C311.14 198.335 310.899 195.476 310.053 194.696C309.208 193.916 306.794 191.96 306.794 191.96L303.293 188.067Z" fill="#D97C2F"/>
<path d="M265.073 45.4973L272.696 36.7209L281.94 36.6652L287.103 45.522L282.711 74.8653L265.504 74.853L265.073 45.4973Z" fill="#D4B5A5"/>
<path d="M270.994 46.4504L276.289 41.7033L282.567 48.3444" stroke="white" stroke-width="0.46" stroke-miterlimit="10"/>
<path d="M276.289 43.95L272.891 72.0554" stroke="white" stroke-width="0.46" stroke-miterlimit="10"/>
<path d="M291.691 89.8L305.948 176.029L289.627 176.01L272.874 98.7002L277.841 176.976L261.341 176.963L256.765 86.0927L264.279 75.0015L287.954 75.6761L291.691 89.8Z" fill="#142216"/>
<g style="mix-blend-mode:multiply" opacity="0.57">
<path d="M291.691 89.8L287.954 75.6761L264.279 75.0015L256.765 86.0927L256.88 88.3579C262.014 88.4693 278.933 89.3049 292.582 95.2033L291.691 89.8Z" fill="#215681"/>
</g>
<path d="M272.73 98.7373L270.983 91.2793L270.988 91.2483L272.219 76.7592L272.506 76.784L271.276 91.2545L273.012 98.6631L272.73 98.7373Z" fill="#F7EEDF"/>
<g style="mix-blend-mode:multiply">
<path d="M265.849 92.7399L281.383 92.7523" stroke="#BFD4EA" stroke-miterlimit="10"/>
</g>
<path d="M271.109 89.7938L270.224 76.7778L270.511 76.7592L271.402 89.7691L271.109 89.7938Z" fill="#F7EEDF"/>
<path d="M266.274 176.976L261.997 82.3667L262.29 82.3481L266.567 176.957L266.274 176.976Z" fill="#F7EEDF"/>
<path d="M298.371 176.047L282.567 82.4038L282.848 82.3481L298.658 175.992L298.371 176.047Z" fill="#F7EEDF"/>
<path d="M286.528 73.7142H263.842V77.6072H286.528V73.7142Z" fill="#1B2536"/>
<path d="M275.749 13.2512C277.59 13.5871 279.311 14.4557 280.729 15.764C282.147 17.0723 283.207 18.771 283.797 20.6783C284.522 22.7765 284.654 24.9242 286.373 26.2487C287.017 26.7144 287.53 27.3607 287.857 28.1178C288.185 28.8748 288.313 29.7138 288.23 30.544C288.154 31.2089 288.234 31.8836 288.463 32.5064C288.692 33.1292 289.063 33.6803 289.541 34.109H264.296C264.296 34.109 265.699 31.819 265.446 29.8694C265.193 27.9198 264.296 26.5953 264.952 24.5961C265.607 22.597 266.447 21.6934 265.228 20.0099C263.463 17.5342 266.234 11.4378 275.749 13.2512Z" fill="#142216"/>
<path d="M274.943 17.6951C274.943 18.5368 275.605 23.3521 279.232 25.246L279.502 27.9445L281.94 36.6652L276.225 41.1834L272.695 36.7209V32.8031C270.338 33.0321 268.378 31.5652 268.228 28.8296C268.079 26.0939 268.2 23.7234 267.475 22.2566C267.475 22.238 271.166 22.1761 274.943 17.6951Z" fill="#BD5331"/>
<path d="M276.933 27.6041C276.933 27.8807 276.856 28.1512 276.714 28.3812C276.571 28.6112 276.368 28.7905 276.13 28.8964C275.893 29.0022 275.632 29.0299 275.38 28.976C275.128 28.922 274.896 28.7888 274.715 28.5931C274.533 28.3975 274.409 28.1483 274.359 27.877C274.309 27.6056 274.335 27.3244 274.433 27.0688C274.531 26.8132 274.698 26.5947 274.911 26.441C275.125 26.2873 275.376 26.2053 275.633 26.2053C275.978 26.2053 276.308 26.3527 276.552 26.615C276.796 26.8773 276.933 27.2331 276.933 27.6041V27.6041Z" fill="#D65353"/>
<path d="M273.081 32.7226C273.896 32.6721 274.692 32.4351 275.416 32.0274C276.14 31.6197 276.774 31.0508 277.278 30.3583" stroke="#422424" stroke-width="0.46" stroke-miterlimit="10"/>
<path d="M281.745 25.9207C281.106 27.468 279.698 28.2974 278.588 27.7775C277.479 27.2576 277.099 25.5679 277.732 24.0268C278.364 22.4856 279.778 21.6501 280.882 22.17C281.986 22.6899 282.377 24.3796 281.745 25.9207Z" fill="#BD5331"/>
<path d="M278.416 25.9949C278.416 25.9949 278.824 23.6492 280.716 23.1912" stroke="#422424" stroke-width="0.46" stroke-miterlimit="10"/>
<path d="M280.025 25.116L279.738 23.6678" stroke="#422424" stroke-width="0.46" stroke-miterlimit="10"/>
<path d="M281.578 27.4618C281.578 27.6493 281.526 27.8327 281.429 27.9885C281.332 28.1444 281.195 28.2657 281.034 28.3372C280.873 28.4087 280.696 28.4271 280.525 28.3901C280.354 28.353 280.197 28.2622 280.074 28.1292C279.952 27.9961 279.868 27.8268 279.835 27.6427C279.802 27.4586 279.82 27.268 279.887 27.0951C279.955 26.9222 280.069 26.7747 280.214 26.6714C280.359 26.5681 280.53 26.5136 280.704 26.5148C280.819 26.5148 280.934 26.5394 281.04 26.587C281.146 26.6347 281.243 26.7045 281.324 26.7926C281.405 26.8806 281.47 26.985 281.513 27.0999C281.557 27.2147 281.579 27.3377 281.578 27.4618V27.4618Z" stroke="white" stroke-width="0.46" stroke-miterlimit="10"/>
<path d="M269.994 25.7535L270.287 25.2955C270.213 25.2133 270.123 25.1508 270.023 25.1131C269.923 25.0755 269.817 25.0638 269.712 25.0789C269.584 25.1017 269.465 25.1643 269.37 25.259C269.276 25.3537 269.208 25.4764 269.178 25.6117C269.147 25.7471 269.154 25.8892 269.197 26.0204C269.241 26.1516 269.319 26.2662 269.423 26.35C269.526 26.4337 269.65 26.4829 269.779 26.4915C269.908 26.5001 270.037 26.4676 270.149 26.3982C270.262 26.3287 270.352 26.2254 270.411 26.1009C270.469 25.9764 270.492 25.8362 270.476 25.6978C270.476 25.6978 270.476 25.6483 270.476 25.6174L269.994 25.7535Z" fill="#1B2536"/>
<path d="M274.099 25.0541L274.386 24.5961C274.314 24.5119 274.224 24.4477 274.124 24.4089C274.024 24.3701 273.917 24.3579 273.811 24.3733C273.682 24.3951 273.561 24.4575 273.464 24.5527C273.367 24.6479 273.299 24.7717 273.267 24.9086C273.235 25.0456 273.242 25.1895 273.286 25.3225C273.329 25.4555 273.409 25.5717 273.513 25.6565C273.618 25.7413 273.744 25.791 273.875 25.7993C274.006 25.8077 274.136 25.7744 274.249 25.7035C274.362 25.6326 274.454 25.5273 274.512 25.4009C274.57 25.2744 274.592 25.1322 274.576 24.9922C274.576 24.9922 274.576 24.9427 274.547 24.918L274.099 25.0541Z" fill="#1B2536"/>
<path d="M271.494 25.6112C271.494 25.6112 271.494 26.3786 271.494 27.0099C271.494 27.6413 272.172 27.9879 272.925 27.4494" stroke="#422424" stroke-width="0.46" stroke-miterlimit="10"/>
<path d="M271.719 28.6872C272.329 28.8697 272.976 28.8491 273.575 28.6281C274.175 28.4072 274.698 27.9963 275.076 27.4494" stroke="#422424" stroke-width="0.46" stroke-miterlimit="10"/>
<path d="M274.581 27.1461L275.345 27.6474" stroke="#422424" stroke-width="0.46" stroke-miterlimit="10"/>
<path d="M272.552 22.9745C272.552 22.9745 274.202 22.3927 275.352 22.8322" stroke="#732727" stroke-width="0.97" stroke-linecap="round" stroke-linejoin="round"/>
<path d="M268.763 23.8349C269.439 23.4454 270.228 23.3522 270.965 23.5749" stroke="#732727" stroke-width="0.97" stroke-linecap="round" stroke-linejoin="round"/>
<path d="M281.94 36.6652L276.386 73.349C276.145 74.9374 276.26 76.5648 276.72 78.0961L278.916 85.4118C279.003 85.6988 279.148 85.9613 279.341 86.1802C279.534 86.3992 279.77 86.5691 280.031 86.6776C280.293 86.7861 280.573 86.8304 280.853 86.8074C281.132 86.7844 281.404 86.6946 281.647 86.5445L292.513 79.7982L287.804 72.0864L294.042 48.4124C294.479 46.7956 294.34 45.0616 293.654 43.5487C292.967 42.0359 291.781 40.8527 290.328 40.2302L281.94 36.6652Z" fill="#324B85"/>
<path d="M285.418 72.4205L279.675 77.6133" stroke="#1B2536" stroke-width="0.46" stroke-miterlimit="10"/>
<path d="M282.762 38.0207L283.285 38.881C284.087 40.2071 284.538 41.7432 284.589 43.3244C284.641 44.9055 284.292 46.4719 283.579 47.8554L282.567 49.8112L283.717 53.4072C283.958 54.187 284.052 55.0111 283.993 55.8307C283.934 56.6503 283.722 57.4489 283.372 58.1791L277.243 71.1766" stroke="#1B2536" stroke-width="0.46" stroke-miterlimit="10"/>
<path d="M287.804 72.0677L280.554 86.7796C280.942 86.8234 281.332 86.7346 281.67 86.5258L292.536 79.7795L287.804 72.0677Z" fill="#1B2536"/>
<path d="M287.971 53.8837L288.735 68.5461L291.501 58.0367L287.971 53.8837Z" fill="#1B2536"/>
<path d="M282.538 85.9751L289.96 87.7514L285.413 82.3791L282.538 85.9751Z" fill="#BD5331"/>
<path d="M272.695 36.7209L268.251 83.7593C268.192 84.4023 267.912 84.9983 267.467 85.4318C267.022 85.8653 266.443 86.1052 265.843 86.1051H254.885C254.885 86.1051 259.248 74.7725 262.79 68.5337L262.698 65.1296L257.558 70.9537C256.576 72.0669 255.25 72.754 253.829 72.8852C252.408 73.0164 250.992 72.5824 249.849 71.6655C248.663 70.7145 247.858 69.3137 247.596 67.7471C247.335 66.1805 247.636 64.5655 248.44 63.2295L259.565 44.7051C260.822 42.6094 262.658 40.9904 264.813 40.0755L272.695 36.7209Z" fill="#324B85"/>
<path d="M272.103 37.4574C270.833 39.4999 267.429 42.576 270.057 48.9695C267.332 54.1375 266.786 61.1128 268.769 69.6602" stroke="#1B2536" stroke-width="0.46" stroke-miterlimit="10"/>
<path d="M257.139 67.5806L258.139 57.9873" stroke="#1B2536" stroke-width="0.46" stroke-miterlimit="10"/>
<path d="M275.737 66.5841L258.478 66.5718L250.016 40.354L267.269 40.3664L275.737 66.5841Z" fill="#F0F0F0"/>
<path d="M286.947 53.1657L294.852 68.1995L285.412 82.3791L291.69 89.8062L304.844 76.6664C306.244 75.2679 307.18 73.4136 307.507 71.3878C307.834 69.362 307.535 67.2766 306.655 65.4514L297.865 47.2117C296.4 44.1763 293.97 41.8101 291.018 40.5458L287.815 39.178L286.947 53.1657Z" fill="#324B85"/>
<path d="M294.853 68.1995L296.997 65.1482" stroke="#1B2536" stroke-width="0.46" stroke-miterlimit="10"/>
<path d="M250.901 54.7811C251.521 53.8158 252.287 52.9687 253.166 52.2745C253.744 51.849 254.349 51.4684 254.977 51.1357C255.141 51.0463 255.328 51.0161 255.509 51.0495C255.69 51.083 255.856 51.1783 255.983 51.3213L256.846 52.3054C256.974 52.4518 257.054 52.6389 257.075 52.8387C257.096 53.0385 257.055 53.2401 256.961 53.4133L254.954 57.0588C254.954 57.0588 257.926 55.3505 258.128 55.4991C258.329 55.6476 257.116 56.9536 256.173 58.0491C255.794 58.4969 255.287 58.7964 254.732 58.9006C254.178 59.0048 253.607 58.9077 253.109 58.6247C251.867 57.9129 250.527 56.6812 250.901 54.7811Z" fill="#BD5331"/>
<path d="M252.666 54.416L256.144 51.507" stroke="#422424" stroke-width="0.46" stroke-miterlimit="10"/>
<path d="M253.914 56.0809L256.788 52.3179" stroke="#422424" stroke-width="0.46" stroke-miterlimit="10"/>
<path d="M129.751 142.421H74.2549L86.7131 127.796C88.4152 125.802 90.4829 124.21 92.7856 123.12C95.0882 122.03 97.5758 121.467 100.091 121.464H103.914C106.428 121.47 108.913 122.035 111.213 123.125C113.513 124.214 115.579 125.805 117.281 127.796L129.751 142.421ZM77.0949 141.078H126.905L116.367 128.7C114.782 126.845 112.857 125.363 110.714 124.349C108.571 123.335 106.255 122.81 103.914 122.807H100.091C97.7466 122.814 95.4288 123.345 93.2844 124.365C91.14 125.386 89.2156 126.874 87.633 128.737L77.0949 141.078Z" fill="#F7EEDF"/>
<path d="M141.019 138.151H62.9868V166.924H141.019V138.151Z" fill="#324B85"/>
<path d="M141.019 166.931H62.9868V198.49H141.019V166.931Z" fill="#142216"/>
<path d="M127.629 159.85H122.455V186.13H127.629V159.85Z" stroke="white" stroke-width="0.66" stroke-miterlimit="10"/>
<path d="M81.5501 159.85H76.376V186.13H81.5501V159.85Z" stroke="white" stroke-width="0.66" stroke-miterlimit="10"/>
<path d="M148.062 199.14C116.361 180.51 122.99 151.427 122.99 151.427C140.295 151.08 148.062 133.478 148.062 133.478C148.062 133.478 155.823 151.061 173.128 151.427C173.128 151.427 179.762 180.51 148.062 199.14Z" fill="#B14F18"/>
<path d="M148.062 195.544C141.899 191.719 136.903 187.194 133.194 182.076C130.105 177.863 127.838 173.021 126.531 167.841C125.439 163.473 125.091 158.929 125.502 154.428C132.401 153.667 138.788 150.294 144.077 144.569C145.528 142.991 146.861 141.292 148.062 139.487C149.259 141.294 150.589 142.993 152.04 144.569C157.335 150.294 163.711 153.667 170.615 154.428C171.029 158.92 170.684 163.456 169.598 167.816C168.289 172.996 166.02 177.839 162.929 182.051C159.215 187.194 154.219 191.719 148.062 195.544Z" fill="#D77C2F"/>
<path d="M148.062 183.468C155.73 183.468 161.946 176.776 161.946 168.521C161.946 160.266 155.73 153.574 148.062 153.574C140.394 153.574 134.178 160.266 134.178 168.521C134.178 176.776 140.394 183.468 148.062 183.468Z" fill="#B14F18"/>
<path d="M148.061 181.302C145.313 181.303 142.65 180.278 140.525 178.402C138.4 176.526 136.945 173.915 136.408 171.013C135.871 168.111 136.286 165.099 137.581 162.49C138.876 159.88 140.971 157.835 143.51 156.702C146.049 155.569 148.874 155.42 151.504 156.278C154.134 157.137 156.406 158.951 157.933 161.411C159.46 163.871 160.147 166.824 159.877 169.769C159.608 172.713 158.399 175.466 156.455 177.558C155.356 178.748 154.048 179.692 152.607 180.335C151.166 180.978 149.621 181.307 148.061 181.302V181.302Z" fill="#D77C2F"/>
<path d="M148.131 160.426C151.931 160.426 154.512 162.901 155.099 166.528H150.344C150.155 166.042 149.835 165.628 149.425 165.34C149.015 165.052 148.534 164.903 148.044 164.913C146.521 164.913 145.584 166.244 145.584 168.305C145.584 170.366 146.521 171.696 148.044 171.696C148.535 171.706 149.016 171.556 149.426 171.267C149.836 170.978 150.156 170.562 150.344 170.075H155.099C154.524 173.726 151.931 176.177 148.131 176.177C143.721 176.177 141.019 172.916 141.019 168.305C141.019 163.694 143.727 160.426 148.131 160.426Z" fill="#B14F18"/>
<path d="M128.566 157.003C128.566 157.176 128.519 157.345 128.429 157.489C128.34 157.632 128.213 157.744 128.065 157.81C127.916 157.876 127.753 157.893 127.595 157.859C127.438 157.824 127.294 157.741 127.18 157.618C127.067 157.495 126.991 157.339 126.96 157.17C126.929 157 126.946 156.824 127.008 156.665C127.071 156.505 127.175 156.37 127.31 156.274C127.444 156.179 127.601 156.129 127.761 156.13C127.868 156.13 127.973 156.153 128.071 156.197C128.169 156.241 128.258 156.305 128.333 156.386C128.407 156.467 128.467 156.564 128.507 156.67C128.547 156.775 128.567 156.889 128.566 157.003V157.003Z" fill="#B14F18"/>
<path d="M169.327 157.003C169.327 157.176 169.28 157.344 169.191 157.488C169.102 157.631 168.975 157.743 168.827 157.809C168.679 157.875 168.516 157.893 168.359 157.859C168.201 157.825 168.057 157.742 167.943 157.62C167.83 157.498 167.753 157.343 167.722 157.173C167.69 157.004 167.706 156.829 167.768 156.669C167.829 156.51 167.933 156.373 168.066 156.277C168.2 156.182 168.356 156.13 168.517 156.13C168.623 156.13 168.729 156.153 168.827 156.197C168.925 156.241 169.015 156.305 169.09 156.386C169.165 156.467 169.225 156.563 169.266 156.669C169.306 156.775 169.327 156.888 169.327 157.003V157.003Z" fill="#B14F18"/>
<path d="M148.867 143.857C148.867 144.03 148.819 144.198 148.73 144.342C148.641 144.485 148.514 144.597 148.366 144.663C148.218 144.729 148.055 144.747 147.898 144.713C147.741 144.679 147.596 144.596 147.483 144.474C147.369 144.352 147.292 144.197 147.261 144.027C147.23 143.858 147.246 143.683 147.307 143.523C147.368 143.364 147.472 143.227 147.606 143.131C147.739 143.036 147.896 142.984 148.056 142.984C148.271 142.984 148.477 143.076 148.629 143.24C148.781 143.404 148.867 143.626 148.867 143.857V143.857Z" fill="#B14F18"/>
<path d="M148.867 193.216C148.867 193.389 148.819 193.558 148.73 193.701C148.641 193.845 148.514 193.957 148.366 194.023C148.218 194.089 148.055 194.106 147.898 194.072C147.741 194.039 147.596 193.956 147.483 193.834C147.369 193.712 147.292 193.556 147.261 193.387C147.23 193.217 147.246 193.042 147.307 192.883C147.368 192.723 147.472 192.587 147.606 192.491C147.739 192.395 147.896 192.344 148.056 192.344C148.271 192.344 148.477 192.436 148.629 192.599C148.781 192.763 148.867 192.985 148.867 193.216V193.216Z" fill="#B14F18"/>
<path d="M258.65 181.797C268.081 181.797 275.725 173.567 275.725 163.415C275.725 153.263 268.081 145.033 258.65 145.033C249.22 145.033 241.576 153.263 241.576 163.415C241.576 173.567 249.22 181.797 258.65 181.797Z" fill="#CC6017"/>
<path d="M261.542 181.797C270.972 181.797 278.617 173.567 278.617 163.415C278.617 153.263 270.972 145.033 261.542 145.033C252.112 145.033 244.467 153.263 244.467 163.415C244.467 173.567 252.112 181.797 261.542 181.797Z" fill="#EA9B1C"/>
<path d="M274.163 166.585C275.793 159.072 271.458 151.559 264.479 149.804C257.501 148.049 250.522 152.716 248.892 160.229C247.262 167.741 251.597 175.255 258.575 177.01C265.554 178.765 272.532 174.097 274.163 166.585Z" fill="#CC6017"/>
<g style="mix-blend-mode:multiply" opacity="0.58">
<path d="M261.542 175.311C267.645 175.311 272.592 169.985 272.592 163.415C272.592 156.845 267.645 151.519 261.542 151.519C255.44 151.519 250.492 156.845 250.492 163.415C250.492 169.985 255.44 175.311 261.542 175.311Z" fill="#CC6017"/>
</g>
<path d="M274.101 172.277C274.101 173.761 273.563 175.06 272.485 176.173C271.425 177.268 269.906 177.992 267.927 178.346V181.287H264.19V178.478C262.865 178.408 261.593 178.204 260.374 177.869C259.173 177.533 258.175 177.118 257.38 176.623L259.394 172.065C260.277 172.578 261.267 172.993 262.362 173.311C263.457 173.611 264.508 173.761 265.515 173.761C266.381 173.761 266.999 173.682 267.37 173.523C267.741 173.346 267.927 173.09 267.927 172.754C267.927 172.366 267.68 172.074 267.185 171.88C266.708 171.685 265.913 171.473 264.8 171.244C263.369 170.943 262.176 170.625 261.222 170.29C260.268 169.936 259.438 169.371 258.731 168.594C258.025 167.799 257.671 166.73 257.671 165.387C257.671 163.833 258.228 162.499 259.341 161.386C260.472 160.273 262.088 159.566 264.19 159.266V156.377H267.927V159.213C270.047 159.407 271.84 159.919 273.306 160.75L271.425 165.281C269.605 164.363 267.883 163.903 266.257 163.903C264.65 163.903 263.846 164.292 263.846 165.069C263.846 165.44 264.084 165.723 264.561 165.917C265.038 166.094 265.825 166.288 266.92 166.5C268.333 166.765 269.526 167.074 270.497 167.428C271.469 167.763 272.308 168.32 273.015 169.097C273.739 169.875 274.101 170.935 274.101 172.277Z" fill="#EA9B1C"/>
<path d="M90.5026 99.3738C99.2411 95.5576 103.451 84.8376 99.9066 75.43C96.3618 66.0224 86.4043 61.4897 77.6657 65.3059C68.9272 69.1221 64.7169 79.8421 68.2617 89.2497C71.8065 98.6573 81.764 103.19 90.5026 99.3738Z" fill="#CC6017"/>
<path d="M99.0467 95.346C105.715 88.1673 105.715 76.5284 99.0467 69.3497C92.3786 62.1711 81.5675 62.1711 74.8993 69.3497C68.2312 76.5284 68.2312 88.1673 74.8994 95.346C81.5675 102.525 92.3786 102.525 99.0467 95.346Z" fill="#EA9B1C"/>
<path d="M86.9717 96.3173C94.138 96.3173 99.9474 90.0631 99.9474 82.3482C99.9474 74.6332 94.138 68.379 86.9717 68.379C79.8055 68.379 73.9961 74.6332 73.9961 82.3482C73.9961 90.0631 79.8055 96.3173 86.9717 96.3173Z" fill="#CC6017"/>
<g style="mix-blend-mode:multiply" opacity="0.58">
<path d="M88.7259 94.0988C94.7507 93.053 98.8472 86.9471 97.8757 80.461C96.9042 73.975 91.2326 69.5648 85.2079 70.6107C79.1831 71.6566 75.0866 77.7624 76.0581 84.2485C77.0296 90.7345 82.7012 95.1447 88.7259 94.0988Z" fill="#CC6017"/>
</g>
<path d="M91.0054 81.6373C91.0054 82.1973 90.8021 82.6873 90.3954 83.1073C89.9954 83.5207 89.4221 83.794 88.6754 83.9273V85.0373H87.2654V83.9773C86.7654 83.9507 86.2854 83.874 85.8254 83.7473C85.3721 83.6207 84.9954 83.464 84.6954 83.2773L85.4554 81.5573C85.7888 81.7507 86.1621 81.9073 86.5754 82.0273C86.9888 82.1407 87.3854 82.1973 87.7654 82.1973C88.0921 82.1973 88.3254 82.1673 88.4654 82.1073C88.6054 82.0407 88.6754 81.944 88.6754 81.8173C88.6754 81.6707 88.5821 81.5607 88.3954 81.4873C88.2154 81.414 87.9154 81.334 87.4954 81.2473C86.9554 81.134 86.5054 81.014 86.1454 80.8873C85.7854 80.754 85.4721 80.5407 85.2054 80.2473C84.9388 79.9473 84.8054 79.544 84.8054 79.0373C84.8054 78.4507 85.0154 77.9473 85.4354 77.5273C85.8621 77.1073 86.4721 76.8407 87.2654 76.7273V75.6373H88.6754V76.7073C89.4754 76.7807 90.1521 76.974 90.7054 77.2873L89.9954 78.9973C89.3088 78.6507 88.6588 78.4773 88.0454 78.4773C87.4388 78.4773 87.1354 78.624 87.1354 78.9173C87.1354 79.0573 87.2254 79.164 87.4054 79.2373C87.5854 79.304 87.8821 79.3773 88.2954 79.4573C88.8288 79.5573 89.2788 79.674 89.6454 79.8073C90.0121 79.934 90.3288 80.144 90.5954 80.4373C90.8688 80.7307 91.0054 81.1307 91.0054 81.6373Z" fill="#EA9B1C"/>
<path d="M333.636 14.749H351.268V24.9923C351.268 27.3035 350.415 29.52 348.897 31.1543C347.379 32.7886 345.32 33.7067 343.173 33.7067H341.753C339.607 33.7067 337.548 32.7886 336.03 31.1543C334.512 29.52 333.659 27.3035 333.659 24.9923V14.749H333.636Z" fill="#EA9B1C"/>
<path d="M338.459 23.1107L341.104 25.9578L346.416 20.2389" stroke="white" stroke-miterlimit="10"/>
<path d="M333.636 62.6663H351.268V72.9096C351.268 75.2208 350.415 77.4373 348.897 79.0716C347.379 80.7059 345.32 81.624 343.173 81.624H341.753C339.607 81.624 337.548 80.7059 336.03 79.0716C334.512 77.4373 333.659 75.2208 333.659 72.9096V62.6663H333.636Z" fill="#CC6017"/>
<path d="M342.38 75.4095C341.439 75.4095 340.595 75.2111 339.847 74.8145C339.099 74.4178 338.515 73.8681 338.096 73.1655C337.676 72.4515 337.467 71.6468 337.467 70.7515C337.467 69.8561 337.676 69.0571 338.096 68.3545C338.515 67.6518 339.093 67.1021 339.83 66.7055C340.578 66.3088 341.428 66.1105 342.38 66.1105C343.275 66.1105 344.057 66.2918 344.726 66.6545C345.406 67.0171 345.916 67.5385 346.256 68.2185L344.624 69.1705C344.363 68.7511 344.034 68.4395 343.638 68.2355C343.252 68.0201 342.827 67.9125 342.363 67.9125C341.569 67.9125 340.912 68.1731 340.391 68.6945C339.869 69.2045 339.609 69.8901 339.609 70.7515C339.609 71.6128 339.864 72.3041 340.374 72.8255C340.895 73.3355 341.558 73.5905 342.363 73.5905C342.827 73.5905 343.252 73.4885 343.638 73.2845C344.034 73.0691 344.363 72.7518 344.624 72.3325L346.256 73.2845C345.904 73.9645 345.389 74.4915 344.709 74.8655C344.04 75.2281 343.264 75.4095 342.38 75.4095Z" fill="#EA9B1C"/>
<path d="M333.636 38.5158H351.268V48.759C351.268 51.0703 350.415 53.2868 348.897 54.9211C347.379 56.5554 345.32 57.4735 343.173 57.4735H341.753C339.607 57.4735 337.548 56.5554 336.03 54.9211C334.512 53.2868 333.659 51.0703 333.659 48.759V38.5158H333.636Z" fill="#EA9B1C"/>
<path d="M342.639 42.2355H342.242C340.972 42.2355 339.943 43.3439 339.943 44.7112V46.4071C339.943 47.7744 340.972 48.8828 342.242 48.8828H342.639C343.909 48.8828 344.939 47.7744 344.939 46.4071V44.7112C344.939 43.3439 343.909 42.2355 342.639 42.2355Z" stroke="white" stroke-width="3" stroke-miterlimit="10"/>
<path d="M345.151 44.6803H339.724C338.749 44.6803 337.959 45.531 337.959 46.5804V50.7953C337.959 51.8447 338.749 52.6954 339.724 52.6954H345.151C346.126 52.6954 346.916 51.8447 346.916 50.7953V46.5804C346.916 45.531 346.126 44.6803 345.151 44.6803Z" fill="#CC6017"/>
<path d="M342.524 46.9084H342.351C341.786 46.9084 341.328 47.4017 341.328 48.0101V48.1958C341.328 48.8042 341.786 49.2975 342.351 49.2975H342.524C343.089 49.2975 343.547 48.8042 343.547 48.1958V48.0101C343.547 47.4017 343.089 46.9084 342.524 46.9084Z" fill="#EA9B1C"/>
<path d="M51.1841 53.7475C62.7098 53.7475 72.0532 46.1882 72.0532 36.8632C72.0532 27.5383 62.7098 19.9789 51.1841 19.9789C39.6584 19.9789 30.3149 27.5383 30.3149 36.8632C30.3149 46.1882 39.6584 53.7475 51.1841 53.7475Z" fill="#D6E3A6"/>
<path d="M57.4905 49.4275L58.2896 63.4214L44.4976 49.4275H57.4905Z" fill="#D6E3A6"/>
<path d="M59.0082 28.8296H43.3535" stroke="white" stroke-width="0.97" stroke-miterlimit="10"/>
<path d="M59.0082 33.323H43.3535" stroke="white" stroke-width="0.97" stroke-miterlimit="10"/>
<path d="M59.0082 37.8164H43.3535" stroke="white" stroke-width="0.97" stroke-miterlimit="10"/>
<path d="M59.0082 42.3036H43.3535" stroke="white" stroke-width="0.97" stroke-miterlimit="10"/>
<path d="M222.725 82.2492C222.572 82.2492 222.426 82.1839 222.318 82.0679C222.21 81.9518 222.15 81.7944 222.15 81.6302V72.532C222.15 72.3679 222.21 72.2104 222.318 72.0944C222.426 71.9783 222.572 71.9131 222.725 71.9131C222.877 71.9131 223.024 71.9783 223.131 72.0944C223.239 72.2104 223.3 72.3679 223.3 72.532V81.6302C223.3 81.7944 223.239 81.9518 223.131 82.0679C223.024 82.1839 222.877 82.2492 222.725 82.2492Z" fill="#B34F18"/>
<path d="M226.95 77.7001H218.499C218.347 77.7001 218.2 77.6349 218.092 77.5188C217.985 77.4027 217.924 77.2453 217.924 77.0811C217.924 76.917 217.985 76.7596 218.092 76.6435C218.2 76.5274 218.347 76.4622 218.499 76.4622H226.95C227.103 76.4622 227.249 76.5274 227.357 76.6435C227.464 76.7596 227.525 76.917 227.525 77.0811C227.525 77.2453 227.464 77.4027 227.357 77.5188C227.249 77.6349 227.103 77.7001 226.95 77.7001Z" fill="#B34F18"/>
<path d="M104.058 51.1605C103.906 51.1605 103.76 51.0953 103.652 50.9792C103.544 50.8631 103.483 50.7057 103.483 50.5415V41.4681C103.483 41.3039 103.544 41.1465 103.652 41.0304C103.76 40.9144 103.906 40.8492 104.058 40.8492C104.211 40.8492 104.357 40.9144 104.465 41.0304C104.573 41.1465 104.633 41.3039 104.633 41.4681V50.5663C104.627 50.7261 104.564 50.8773 104.457 50.988C104.35 51.0988 104.207 51.1606 104.058 51.1605V51.1605Z" fill="#B34F18"/>
<path d="M108.272 46.6114H99.8212C99.6688 46.6114 99.5225 46.5462 99.4147 46.4301C99.3069 46.314 99.2463 46.1566 99.2463 45.9924C99.2463 45.8283 99.3069 45.6709 99.4147 45.5548C99.5225 45.4387 99.6688 45.3735 99.8212 45.3735H108.272C108.425 45.3735 108.571 45.4387 108.679 45.5548C108.787 45.6709 108.847 45.8283 108.847 45.9924C108.847 46.1566 108.787 46.314 108.679 46.4301C108.571 46.5462 108.425 46.6114 108.272 46.6114Z" fill="#B34F18"/>
<path d="M324.961 105.886C324.808 105.886 324.662 105.821 324.554 105.705C324.446 105.589 324.386 105.431 324.386 105.267V96.1812C324.386 96.0171 324.446 95.8596 324.554 95.7436C324.662 95.6275 324.808 95.5623 324.961 95.5623C325.113 95.5623 325.259 95.6275 325.367 95.7436C325.475 95.8596 325.536 96.0171 325.536 96.1812V105.279C325.533 105.441 325.471 105.596 325.363 105.709C325.256 105.823 325.111 105.886 324.961 105.886Z" fill="#B34F18"/>
<path d="M329.186 101.331H320.735C320.608 101.299 320.495 101.223 320.414 101.113C320.332 101.004 320.288 100.867 320.288 100.727C320.288 100.587 320.332 100.451 320.414 100.341C320.495 100.232 320.608 100.155 320.735 100.124H329.186C329.271 100.103 329.358 100.103 329.442 100.124C329.526 100.145 329.605 100.185 329.673 100.243C329.74 100.301 329.795 100.375 329.832 100.459C329.87 100.542 329.889 100.634 329.889 100.727C329.889 100.82 329.87 100.912 329.832 100.996C329.795 101.079 329.74 101.153 329.673 101.211C329.605 101.269 329.526 101.31 329.442 101.331C329.358 101.351 329.271 101.351 329.186 101.331Z" fill="#B34F18"/>
<path d="M133.114 126.62C132.962 126.62 132.815 126.555 132.708 126.439C132.6 126.323 132.539 126.165 132.539 126.001V116.915C132.52 116.825 132.52 116.73 132.539 116.64C132.559 116.549 132.597 116.464 132.65 116.392C132.704 116.319 132.773 116.26 132.85 116.22C132.928 116.18 133.013 116.159 133.1 116.159C133.186 116.159 133.271 116.18 133.349 116.22C133.427 116.26 133.495 116.319 133.549 116.392C133.603 116.464 133.641 116.549 133.66 116.64C133.68 116.73 133.68 116.825 133.66 116.915V126.013C133.658 126.17 133.6 126.32 133.498 126.433C133.397 126.545 133.26 126.612 133.114 126.62Z" fill="#B34F18"/>
<path d="M137.34 122.071H128.889C128.736 122.071 128.59 122.006 128.482 121.89C128.374 121.774 128.314 121.616 128.314 121.452C128.314 121.288 128.374 121.13 128.482 121.014C128.59 120.898 128.736 120.833 128.889 120.833H137.34C137.492 120.833 137.638 120.898 137.746 121.014C137.854 121.13 137.915 121.288 137.915 121.452C137.915 121.616 137.854 121.774 137.746 121.89C137.638 122.006 137.492 122.071 137.34 122.071Z" fill="#B34F18"/>
<path d="M301.688 10.3051C301.536 10.3051 301.39 10.2399 301.282 10.1238C301.174 10.0078 301.114 9.85035 301.114 9.6862V0.618926C301.114 0.454777 301.174 0.297351 301.282 0.181279C301.39 0.0652081 301.536 0 301.688 0C301.841 0 301.987 0.0652081 302.095 0.181279C302.203 0.297351 302.263 0.454777 302.263 0.618926V9.71715C302.256 9.87587 302.192 10.0255 302.085 10.1349C301.978 10.2444 301.836 10.3053 301.688 10.3051V10.3051Z" fill="#B34F18"/>
<path d="M305.914 5.75598H297.463C297.31 5.75598 297.164 5.69077 297.056 5.5747C296.949 5.45863 296.888 5.3012 296.888 5.13705C296.888 4.9729 296.949 4.81548 297.056 4.69941C297.164 4.58334 297.31 4.51813 297.463 4.51813H305.914C306.066 4.51813 306.213 4.58334 306.321 4.69941C306.428 4.81548 306.489 4.9729 306.489 5.13705C306.489 5.3012 306.428 5.45863 306.321 5.5747C306.213 5.69077 306.066 5.75598 305.914 5.75598Z" fill="#B34F18"/>
</svg>
