<svg width="94" height="175" viewBox="0 0 94 175" fill="none" xmlns="http://www.w3.org/2000/svg">
<g filter="url(#filter0_d_99_996)">
<g style="mix-blend-mode:multiply">
<path d="M18.6006 82.8095C32.5694 78.828 33.5979 67.1778 33.2939 59.859C36.2224 60.1922 39.1054 60.642 41.8515 61.2473C41.8565 61.2306 42.9155 81.4601 18.6006 82.8095Z" fill="#DBC8AA"/>
</g>
<path d="M71.6335 145.675C71.6031 145.791 71.5676 145.914 71.5322 146.036L68.2996 146.902C67.2638 146.811 66.2785 146.373 65.4775 145.647C65.1255 145.287 64.8497 144.847 64.6694 144.358C64.489 143.869 64.4086 143.342 64.4338 142.815C64.4596 141.938 64.6207 141.073 64.91 140.255C64.91 140.255 62.2197 139.528 63.6535 137.145C63.6535 137.145 45.9202 111.746 50.5967 109.192C50.953 109.01 51.3597 108.986 51.7317 109.125C56.8389 110.791 66.2223 135.829 66.2223 135.829C66.2223 135.829 69.2623 136.385 67.8234 138.922C67.8436 138.922 73.1535 139.761 71.6335 145.675Z" fill="#0E537E"/>
<g style="mix-blend-mode:multiply">
<path d="M71.6333 145.675C69.6066 145.675 67.5293 145.675 65.4773 145.675C65.1253 145.315 64.8494 144.875 64.6691 144.386C64.4888 143.896 64.4084 143.37 64.4336 142.843C65.5861 142.013 66.896 141.481 68.2639 141.288C68.0822 140.852 67.8207 140.461 67.4956 140.14C67.1706 139.819 66.7888 139.575 66.3741 139.422C66.5675 139.186 66.7008 138.897 66.7603 138.586C66.8199 138.275 66.8038 137.953 66.7136 137.651C66.5924 137.349 66.4041 137.086 66.166 136.885C65.9279 136.685 65.6475 136.552 65.3506 136.501C62.0687 126.698 57.4791 117.482 51.7314 109.153C56.8386 110.819 66.2221 135.857 66.2221 135.857C66.2221 135.857 69.2621 136.412 67.8231 138.95C67.8434 138.922 73.1533 139.761 71.6333 145.675Z" fill="#BFD4EA"/>
</g>
<path d="M89.1337 153.66C88.9007 148.429 86.2812 144.181 82.993 143.259C81.6966 142.755 80.2816 142.755 78.9852 143.259L79.2082 143.754C76.3658 145.331 74.4455 149.573 74.6482 154.449C74.8762 159.591 77.4095 163.778 80.6167 164.794L80.11 165.149C81.1879 165.487 82.3407 165.388 83.3578 164.872C86.869 163.916 89.3668 159.196 89.1337 153.66Z" fill="#7197D5"/>
<path d="M80.4449 165.142C84.4473 164.929 87.4751 159.848 87.2078 153.792C86.9404 147.736 83.4791 142.999 79.4767 143.211C75.4743 143.423 72.4465 148.504 72.7138 154.56C72.9812 160.617 76.4425 165.354 80.4449 165.142Z" fill="#002638"/>
<path d="M85.0143 156.448C84.7349 158.613 83.8446 160.628 82.4682 162.211C81.0918 163.795 79.2982 164.866 77.3384 165.277C73.4717 166.057 69.5215 166.21 65.6141 165.732C63.8129 165.537 62.022 165.24 60.2485 164.844L59.3872 145.408C65.1133 143.119 71.295 142.555 77.2877 143.776C77.5782 143.839 77.8568 143.911 78.1237 143.992C79.9936 144.561 81.6613 145.74 82.9049 147.373C84.1485 149.005 84.909 151.014 85.0853 153.133C85.1756 154.237 85.1518 155.349 85.0143 156.448Z" fill="#25669C"/>
<g style="mix-blend-mode:multiply">
<path d="M85.0145 156.448C84.735 158.613 83.8448 160.628 82.4684 162.211C81.092 163.795 79.2983 164.866 77.3385 165.277C73.4719 166.057 69.5216 166.21 65.6143 165.732C70.3869 164.948 74.7106 162.21 77.7134 158.069C78.9308 156.444 79.8139 154.55 80.3025 152.516C80.7806 150.462 80.6018 148.29 79.7958 146.363C79.3933 145.468 78.8257 144.674 78.1289 144.031C79.9988 144.6 81.6665 145.779 82.9101 147.412C84.1536 149.044 84.9142 151.053 85.0905 153.171C85.1765 154.263 85.151 155.362 85.0145 156.448Z" fill="#BFD4EA"/>
</g>
<path d="M69.5053 154.704C69.2723 149.468 66.6579 145.225 63.3696 144.303H63.3443C62.0476 143.802 60.6333 143.802 59.3366 144.303L59.5595 144.797C56.7171 146.38 54.7968 150.623 54.9995 155.493C55.2275 160.64 57.7558 164.827 60.963 165.843L60.4563 166.193C61.5339 166.534 62.6877 166.436 63.704 165.915C67.2405 164.96 69.7485 160.24 69.5053 154.704Z" fill="#002638"/>
<path d="M67.58 154.804C67.8485 160.862 64.8237 165.943 60.821 166.154C59.2976 166.2 57.8162 165.603 56.6816 164.488C56.2559 164.089 55.8672 163.644 55.5213 163.161C55.1906 162.703 54.8941 162.217 54.6347 161.706C53.87 160.181 53.3782 158.509 53.1856 156.781C53.14 156.387 53.1096 155.981 53.0893 155.57C52.8208 149.512 55.8456 144.431 59.8533 144.22C60.2499 144.198 60.6475 144.225 61.0389 144.298C62.2994 144.573 63.4565 145.253 64.3626 146.252C64.7318 146.641 65.0707 147.063 65.376 147.513C65.7256 148.041 66.0372 148.598 66.3082 149.179C67.0806 150.938 67.5136 152.853 67.58 154.804Z" fill="#25669C"/>
<path d="M65.9789 154.304C66.2069 159.468 63.6482 164.388 60.2333 164.572C56.8184 164.755 53.8848 161.062 53.6466 155.892C53.4085 150.722 55.9823 146.047 59.3973 145.864C62.8122 145.68 65.7458 149.14 65.9789 154.304Z" fill="#7197D5"/>
<g style="mix-blend-mode:soft-light" opacity="0.5">
<path d="M64.3728 146.258L54.6449 161.712C53.8802 160.186 53.3884 158.514 53.1958 156.786L61.0491 144.303C62.3096 144.579 63.4667 145.259 64.3728 146.258Z" fill="white"/>
<path d="M66.3081 149.207L56.6815 164.494C56.2558 164.095 55.8671 163.65 55.5212 163.167L65.3657 147.518C65.7197 148.053 66.0348 148.618 66.3081 149.207Z" fill="white"/>
</g>
<path d="M27.2747 145.086V154.815C27.274 155.508 27.382 156.195 27.5939 156.847C28.5913 159.89 29.0754 163.105 29.0227 166.337H8.5686C8.5686 166.337 9.76433 163.367 15.1857 161.545C16.1464 161.214 17.0346 160.67 17.795 159.946L19.7912 158.086C20.3349 157.581 20.7476 156.928 20.9877 156.193C21.2279 155.458 21.287 154.667 21.1592 153.899L19.7203 145.097L27.2747 145.086Z" fill="#BD5331"/>
<path d="M28.06 158.43L23.0998 161.023L19.4467 158.391L17.795 159.929C17.0346 160.653 16.1464 161.198 15.1857 161.529C9.76433 163.35 8.5686 166.321 8.5686 166.321H29.0227C29.0727 163.652 28.748 160.991 28.06 158.43Z" fill="#D97C2F"/>
<path d="M43.7668 145.103L45.5452 156.015C45.628 156.566 45.628 157.129 45.5452 157.68L44.3698 166.371H60.0308C60.0308 166.371 59.818 163.805 59.0732 163.106C58.3284 162.406 56.2004 160.651 56.2004 160.651L53.0034 157.008C52.2829 156.19 51.8518 155.117 51.7874 153.982L51.2807 145.097L43.7668 145.103Z" fill="#BD5331"/>
<path d="M53.1654 157.142C52.1242 157.208 51.1064 157.507 50.1742 158.02C49.242 158.533 48.4151 159.249 47.7441 160.124L45.4337 158.797L44.4204 166.354H60.0814C60.0814 166.354 59.8686 163.789 59.1238 163.089C58.379 162.389 56.2511 160.635 56.2511 160.635L53.1654 157.142Z" fill="#D97C2F"/>
<path d="M19.4824 29.2288L26.2008 21.3547L34.348 21.3047L38.8979 29.251L35.0269 55.5777L19.8624 55.5666L19.4824 29.2288Z" fill="#D4B5A5"/>
<path d="M24.7009 30.084L29.3673 25.8248L34.9001 31.7832" stroke="white" stroke-width="0.46" stroke-miterlimit="10"/>
<path d="M29.3674 27.8405L26.373 53.0566" stroke="white" stroke-width="0.46" stroke-miterlimit="10"/>
<path d="M42.9411 68.977L55.5064 146.341L41.1221 146.325L26.3579 76.9622L30.7355 147.191L16.1942 147.18L12.1611 65.6508L18.7833 55.6998L39.6477 56.3051L42.9411 68.977Z" fill="#142216"/>
<g style="mix-blend-mode:multiply" opacity="0.57">
<path d="M42.9411 68.977L39.6477 56.3051L18.7833 55.6998L12.1611 65.6508L12.2625 67.6832C16.787 67.7831 31.6982 68.5328 43.7264 73.8248L42.9411 68.977Z" fill="#215681"/>
</g>
<path d="M26.2312 76.9955L24.6909 70.3042L24.696 70.2764L25.7802 57.2769L26.0336 57.2991L24.9493 70.2819L26.4794 76.9289L26.2312 76.9955Z" fill="#F7EEDF"/>
<g style="mix-blend-mode:multiply">
<path d="M20.1665 71.6147L33.8566 71.6258" stroke="#BFD4EA" stroke-miterlimit="10"/>
</g>
<path d="M24.8022 68.9714L24.022 57.2935L24.2753 57.2769L25.0606 68.9492L24.8022 68.9714Z" fill="#F7EEDF"/>
<path d="M20.5413 147.191L16.7717 62.3079L17.0301 62.2913L20.7997 147.174L20.5413 147.191Z" fill="#F7EEDF"/>
<path d="M48.8284 146.358L34.9001 62.3412L35.1484 62.2913L49.0817 146.308L48.8284 146.358Z" fill="#F7EEDF"/>
<path d="M38.391 54.5448H18.3979V58.0376H38.391V54.5448Z" fill="#1B2536"/>
<path d="M28.8914 0.297708C30.5139 0.599091 32.0311 1.37838 33.2806 2.55217C34.5301 3.72595 35.4648 5.25004 35.9847 6.96129C36.6231 8.84375 36.7396 10.7706 38.2545 11.959C38.822 12.3768 39.2744 12.9567 39.5628 13.6359C39.8512 14.3152 39.9648 15.0679 39.8911 15.8127C39.8242 16.4092 39.8949 17.0146 40.0967 17.5734C40.2985 18.1322 40.625 18.6266 41.0463 19.0113H18.7986C18.7986 19.0113 20.0348 16.9567 19.8119 15.2075C19.589 13.4583 18.7986 12.2699 19.3762 10.4763C19.9538 8.68272 20.6935 7.87198 19.6194 6.36157C18.0639 4.14037 20.5061 -1.32932 28.8914 0.297708Z" fill="#142216"/>
<path d="M28.1817 4.28479C28.1817 5.04 28.7644 9.36022 31.9614 11.0594L32.1995 13.4805L34.3478 21.3047L29.3115 25.3584L26.2006 21.3547V17.8396C24.1233 18.0451 22.3956 16.729 22.2638 14.2746C22.1321 11.8202 22.2385 9.6934 21.6001 8.37734C21.6001 8.36068 24.8529 8.30515 28.1817 4.28479Z" fill="#BD5331"/>
<path d="M29.9349 13.1751C29.9349 13.4234 29.8678 13.666 29.7419 13.8724C29.6161 14.0787 29.4373 14.2396 29.228 14.3346C29.0188 14.4296 28.7886 14.4544 28.5664 14.406C28.3443 14.3576 28.1403 14.2381 27.9802 14.0625C27.82 13.887 27.711 13.6634 27.6668 13.42C27.6226 13.1765 27.6453 12.9242 27.7319 12.6949C27.8186 12.4656 27.9654 12.2696 28.1537 12.1317C28.342 11.9938 28.5634 11.9202 28.7898 11.9202C29.0935 11.9202 29.3848 12.0524 29.5995 12.2877C29.8143 12.5231 29.9349 12.8423 29.9349 13.1751Z" fill="#D65353"/>
<path d="M26.5403 17.7674C27.2589 17.7221 27.9605 17.5094 28.5982 17.1437C29.236 16.7779 29.7953 16.2674 30.2389 15.6462" stroke="#422424" stroke-width="0.46" stroke-miterlimit="10"/>
<path d="M34.1758 11.6647C33.6134 13.053 32.372 13.7971 31.3942 13.3306C30.4163 12.8642 30.0819 11.3482 30.6392 9.96552C31.1966 8.58282 32.443 7.83317 33.4158 8.29962C34.3886 8.76607 34.7331 10.282 34.1758 11.6647Z" fill="#BD5331"/>
<path d="M31.2419 11.7313C31.2419 11.7313 31.6017 9.62674 33.2686 9.21582" stroke="#422424" stroke-width="0.46" stroke-miterlimit="10"/>
<path d="M32.6608 10.9428L32.4075 9.64343" stroke="#422424" stroke-width="0.46" stroke-miterlimit="10"/>
<path d="M34.0287 13.0474C34.0287 13.2156 33.9831 13.3801 33.8977 13.52C33.8122 13.6598 33.6909 13.7687 33.5489 13.8328C33.407 13.897 33.2509 13.9135 33.1004 13.8802C32.9498 13.847 32.8117 13.7655 32.7035 13.6462C32.5953 13.5268 32.5219 13.3749 32.4926 13.2097C32.4632 13.0445 32.4793 12.8735 32.5387 12.7184C32.5982 12.5632 32.6983 12.4309 32.8265 12.3382C32.9546 12.2456 33.105 12.1967 33.2585 12.1978C33.3601 12.1978 33.4607 12.2198 33.5544 12.2625C33.6482 12.3053 33.7333 12.368 33.8049 12.4469C33.8765 12.5259 33.9331 12.6196 33.9715 12.7227C34.0099 12.8257 34.0293 12.9361 34.0287 13.0474V13.0474Z" stroke="white" stroke-width="0.46" stroke-miterlimit="10"/>
<path d="M23.8195 11.5147L24.0779 11.1038C24.0133 11.03 23.9338 10.9739 23.8458 10.9402C23.7577 10.9064 23.6637 10.8959 23.5712 10.9094C23.4587 10.9299 23.3541 10.9861 23.2704 11.071C23.1867 11.156 23.1276 11.266 23.1005 11.3875C23.0733 11.5089 23.0793 11.6364 23.1177 11.7542C23.156 11.8719 23.2251 11.9747 23.3162 12.0499C23.4074 12.125 23.5167 12.1692 23.6306 12.1768C23.7444 12.1845 23.8579 12.1554 23.9568 12.0931C24.0557 12.0308 24.1357 11.938 24.187 11.8263C24.2382 11.7146 24.2584 11.5889 24.2451 11.4647C24.2451 11.4647 24.2451 11.4203 24.2451 11.3926L23.8195 11.5147Z" fill="#1B2536"/>
<path d="M27.437 10.8873L27.6903 10.4763C27.6268 10.4008 27.5476 10.3432 27.4594 10.3084C27.3711 10.2736 27.2766 10.2626 27.1837 10.2764C27.0695 10.296 26.9632 10.352 26.8779 10.4374C26.7927 10.5228 26.7323 10.6339 26.7043 10.7567C26.6763 10.8796 26.6819 11.0087 26.7205 11.128C26.7591 11.2474 26.829 11.3516 26.9213 11.4277C27.0136 11.5038 27.1244 11.5483 27.2397 11.5558C27.355 11.5633 27.4698 11.5334 27.5697 11.4698C27.6696 11.4063 27.7501 11.3118 27.8013 11.1983C27.8525 11.0848 27.8721 10.9573 27.8576 10.8317C27.8576 10.8317 27.8575 10.7873 27.8322 10.7651L27.437 10.8873Z" fill="#1B2536"/>
<path d="M25.1418 11.3871C25.1418 11.3871 25.1418 12.0757 25.1418 12.6421C25.1418 13.2085 25.7397 13.5194 26.4035 13.0363" stroke="#422424" stroke-width="0.46" stroke-miterlimit="10"/>
<path d="M25.3394 14.1469C25.8772 14.3105 26.4477 14.292 26.9758 14.0938C27.5039 13.8956 27.9649 13.5269 28.2983 13.0363" stroke="#422424" stroke-width="0.46" stroke-miterlimit="10"/>
<path d="M27.8625 12.7642L28.5364 13.214" stroke="#422424" stroke-width="0.46" stroke-miterlimit="10"/>
<path d="M26.0742 9.02148C26.0742 9.02148 27.5284 8.4995 28.5417 8.89377" stroke="#732727" stroke-width="0.97" stroke-linecap="round" stroke-linejoin="round"/>
<path d="M22.7349 9.79326C23.33 9.44383 24.0253 9.36025 24.6754 9.56004" stroke="#732727" stroke-width="0.97" stroke-linecap="round" stroke-linejoin="round"/>
<path d="M34.348 21.3047L29.4537 54.2172C29.2412 55.6423 29.3419 57.1025 29.7475 58.4764L31.683 65.04C31.7595 65.2974 31.8874 65.5329 32.0574 65.7294C32.2274 65.9258 32.4352 66.0783 32.6657 66.1756C32.8962 66.273 33.1437 66.3127 33.39 66.2921C33.6363 66.2714 33.8753 66.1908 34.0896 66.0562L43.6656 60.0034L39.516 53.0844L45.0133 31.8442C45.3983 30.3936 45.2763 28.8379 44.6711 27.4806C44.0659 26.1232 43.021 25.0617 41.7403 24.5032L34.348 21.3047Z" fill="#324B85"/>
<path d="M37.4131 53.3843L32.3516 58.0432" stroke="#1B2536" stroke-width="0.46" stroke-miterlimit="10"/>
<path d="M35.0725 22.5208L35.5336 23.2926C36.2399 24.4824 36.6372 25.8606 36.6828 27.2792C36.7283 28.6978 36.4203 30.1032 35.792 31.3444L34.9002 33.0992L35.9136 36.3255C36.1265 37.0252 36.2092 37.7645 36.157 38.4999C36.1048 39.2352 35.9187 39.9517 35.6096 40.6068L30.2085 52.2681" stroke="#1B2536" stroke-width="0.46" stroke-miterlimit="10"/>
<path d="M39.516 53.0677L33.127 66.2672C33.4683 66.3065 33.8122 66.2268 34.1099 66.0395L43.6859 59.9868L39.516 53.0677Z" fill="#1B2536"/>
<path d="M39.6628 36.7531L40.3367 49.9081L42.7738 40.4791L39.6628 36.7531Z" fill="#1B2536"/>
<path d="M34.8748 65.5453L41.4158 67.139L37.4081 62.319L34.8748 65.5453Z" fill="#BD5331"/>
<path d="M26.2009 21.3546L22.2844 63.5573C22.2316 64.1341 21.9851 64.6689 21.5928 65.0578C21.2005 65.4467 20.6904 65.662 20.1614 65.6619H10.5044C10.5044 65.6619 14.35 55.4944 17.471 49.897L17.39 46.8428L12.8604 52.0682C11.9951 53.0669 10.8258 53.6834 9.57378 53.8011C8.32176 53.9188 7.07379 53.5294 6.06598 52.7068C5.02114 51.8535 4.31149 50.5967 4.08098 49.1912C3.85046 47.7857 4.11633 46.3367 4.82466 45.138L14.6286 28.518C15.7367 26.6377 17.3544 25.1852 19.2545 24.3643L26.2009 21.3546Z" fill="#324B85"/>
<path d="M25.6789 22.0154C24.5592 23.8479 21.5597 26.6078 23.8752 32.344C21.4736 36.9807 20.9922 43.2389 22.7402 50.9076" stroke="#1B2536" stroke-width="0.46" stroke-miterlimit="10"/>
<path d="M12.4902 49.0418L13.3718 40.4347" stroke="#1B2536" stroke-width="0.46" stroke-miterlimit="10"/>
<path d="M28.8811 48.1478L13.671 48.1367L6.21289 24.6143L21.4179 24.6254L28.8811 48.1478Z" fill="#DDD6D6"/>
<path d="M38.7607 36.109L45.7274 49.5972L37.408 62.319L42.9407 68.9826L54.5333 57.1936C55.7672 55.939 56.5916 54.2752 56.8799 52.4577C57.1682 50.6401 56.9045 48.7691 56.1293 47.1316L48.3823 30.767C47.0917 28.0437 44.9497 25.9207 42.3479 24.7864L39.5258 23.5592L38.7607 36.109Z" fill="#324B85"/>
<path d="M45.7278 49.5971L47.6176 46.8595" stroke="#1B2536" stroke-width="0.46" stroke-miterlimit="10"/>
<path d="M6.99316 37.5582C7.5399 36.6922 8.21456 35.9321 8.98941 35.3093C9.49855 34.9275 10.0319 34.5861 10.5854 34.2875C10.73 34.2074 10.8942 34.1803 11.0539 34.2103C11.2135 34.2403 11.3602 34.3258 11.4721 34.4541L12.2321 35.337C12.3449 35.4684 12.4157 35.6363 12.434 35.8155C12.4523 35.9947 12.417 36.1757 12.3334 36.331L10.5651 39.6017C10.5651 39.6017 13.1846 38.0691 13.3619 38.2024C13.5393 38.3356 12.4702 39.5073 11.6393 40.4902C11.3049 40.892 10.8583 41.1607 10.3695 41.2542C9.88075 41.3477 9.37749 41.2606 8.93875 41.0066C7.84436 40.368 6.66383 39.263 6.99316 37.5582Z" fill="#BD5331"/>
<path d="M8.54834 37.2306L11.6137 34.6207" stroke="#422424" stroke-width="0.46" stroke-miterlimit="10"/>
<path d="M9.64795 38.7244L12.1813 35.3481" stroke="#422424" stroke-width="0.46" stroke-miterlimit="10"/>
</g>
<defs>
<filter id="filter0_d_99_996" x="0" y="0" width="93.1487" height="174.393" filterUnits="userSpaceOnUse" color-interpolation-filters="sRGB">
<feFlood flood-opacity="0" result="BackgroundImageFix"/>
<feColorMatrix in="SourceAlpha" type="matrix" values="0 0 0 0 0 0 0 0 0 0 0 0 0 0 0 0 0 0 127 0" result="hardAlpha"/>
<feOffset dy="4"/>
<feGaussianBlur stdDeviation="2"/>
<feComposite in2="hardAlpha" operator="out"/>
<feColorMatrix type="matrix" values="0 0 0 0 0 0 0 0 0 0 0 0 0 0 0 0 0 0 0.25 0"/>
<feBlend mode="normal" in2="BackgroundImageFix" result="effect1_dropShadow_99_996"/>
<feBlend mode="normal" in="SourceGraphic" in2="effect1_dropShadow_99_996" result="shape"/>
</filter>
</defs>
</svg>
