<svg aria-hidden="true" style="position:absolute;width:0;height:0;overflow:hidden" xmlns="http://www.w3.org/2000/svg">
  <defs>
    <symbol id="icon-menu_open" viewBox="0 0 32 32">
      <path d="M6.4 11.733v-2.133h19.2v2.133h-19.2zM6.4 17.067h19.2v-2.133h-19.2v2.133zM6.4 22.4h19.2v-2.133h-19.2v2.133z"></path>
    </symbol>
    <symbol id="icon-menu_close" viewBox="0 0 32 32">
      <path d="M23.733 10.304l-1.504-1.504-5.963 5.963-5.963-5.963-1.504 1.504 5.963 5.963-5.963 5.963 1.504 1.504 5.963-5.963 5.963 5.963 1.504-1.504-5.963-5.963 5.963-5.963z"></path>
    </symbol>
  <symbol id="icon-avatar" viewBox="0 0 32 32">
      <path d="M15.624 0c-8.659 0-15.624 6.965-15.624 15.624s6.965 15.624 15.624 15.624c8.659 0 15.624-6.965 15.624-15.624s-7.059-15.624-15.624-15.624zM15.529 6.306c2.165 0 3.859 1.788 3.859 3.859s-1.694 3.953-3.859 3.953c-2.165 0-3.859-1.788-3.859-3.859s1.694-3.953 3.859-3.953zM20.8 24.847h-10.635c-1.035 0-1.882-0.847-1.882-1.882 0-3.953 3.2-7.247 7.247-7.247s7.247 3.2 7.247 7.247c0 1.035-0.847 1.882-1.976 1.882z"></path>
  </symbol>
  <symbol id="icon-arrow" viewBox="0 0 34 32">
    <path d="M0.961 16c0-8.837 7.163-16 16-16h0.022c8.837 0 16 7.163 16 16s-7.163 16-16 16h-0.022c-8.837 0-16-7.163-16-16z"></path>
    <path d="M32.983 9.106c0.001 0.175-0.032 0.349-0.099 0.512s-0.164 0.31-0.288 0.435l-10.901 10.893c-0.62 0.621-1.356 1.113-2.166 1.45s-1.679 0.509-2.557 0.509c-0.878 0-1.746-0.173-2.557-0.509s-1.547-0.829-2.166-1.45l-10.901-10.893c-0.124-0.124-0.223-0.272-0.29-0.434s-0.102-0.337-0.102-0.512c0-0.176 0.035-0.35 0.102-0.512s0.166-0.31 0.29-0.434c0.124-0.124 0.272-0.223 0.435-0.29s0.337-0.102 0.513-0.102c0.176 0 0.35 0.035 0.513 0.102s0.31 0.166 0.435 0.29l10.901 10.893c0.751 0.749 1.768 1.17 2.829 1.17s2.078-0.421 2.829-1.17l10.901-10.893c0.124-0.125 0.272-0.224 0.434-0.292s0.337-0.103 0.513-0.103c0.176 0 0.351 0.035 0.513 0.103s0.31 0.167 0.434 0.292c0.124 0.125 0.222 0.272 0.288 0.435s0.1 0.336 0.099 0.512z"></path>
  </symbol>
  <symbol id="icon-search" viewBox="0 0 32 32">
    <path d="M31.448 28.364l-6.437-6.364c1.839-2.364 2.759-5.091 2.759-8.182 0-7.636-6.253-13.818-13.977-13.818-7.54 0-13.793 6.182-13.793 13.818s6.253 13.818 13.977 13.818c2.943 0 5.885-0.909 8.092-2.546l6.437 6.364c0.368 0.364 0.919 0.545 1.471 0.545s1.103-0.182 1.471-0.545c0.736-0.909 0.736-2.364 0-3.091zM13.977 23.273c-5.333 0-9.747-4.364-9.747-9.636s4.414-9.636 9.747-9.636c5.333 0 9.747 4.364 9.747 9.636-0.184 5.455-4.414 9.636-9.747 9.636z"></path>
  </symbol>
  <symbol id="icon-free-icon-font-star-3916581" viewBox="0 0 32 32">
    <path d="M1.769 16.533l4.747 3.467-1.803 5.583c-0.14 0.403-0.221 0.868-0.221 1.351 0 1.427 0.705 2.689 1.787 3.457l0.013 0.009c0.694 0.517 1.569 0.828 2.516 0.828 0.962 0 1.85-0.321 2.561-0.861l-0.010 0.008 4.641-3.416 4.643 3.412c0.704 0.523 1.59 0.837 2.549 0.837 2.376 0 4.303-1.926 4.303-4.303 0-0.472-0.076-0.927-0.217-1.352l0.009 0.030-1.803-5.583 4.747-3.467c1.074-0.792 1.763-2.052 1.763-3.473 0-2.374-1.923-4.299-4.296-4.303h-5.831l-1.769-5.515c-0.573-1.749-2.19-2.989-4.097-2.989s-3.524 1.241-4.089 2.959l-0.009 0.030-1.769 5.515h-5.825c-2.374 0.004-4.297 1.929-4.297 4.303 0 1.421 0.689 2.682 1.751 3.465l0.012 0.008z"></path>
  </symbol>
  </defs>
</svg>
