<svg width="468" height="329" viewBox="0 0 468 329" fill="none" xmlns="http://www.w3.org/2000/svg">
<path d="M467.57 103.38C467.57 55.8199 427.95 3.69989 378.66 0.54989C377.8 0.48989 376.92 0.439889 376.04 0.399889C305.38 -2.89011 299.99 83.2999 236.04 93.0199C172.09 102.74 106.04 56.2199 46.56 87.9299C-19.14 123 -40.52 276 161.36 282.49C322.87 287.68 467.59 245.3 467.57 103.38Z" fill="#C0D76F"/>
<path d="M330.34 76.67H330.28C328.456 76.9517 326.596 76.9009 324.79 76.52C323.071 76.154 321.395 75.6076 319.79 74.89C318.23 74.21 316.79 73.44 315.3 72.67L311.02 70.34C308.33 68.775 305.416 67.6317 302.38 66.95C299.39 66.4015 296.306 66.7315 293.5 67.9C290.656 69.0489 288.219 71.0195 286.5 73.56C284.766 76.1135 283.788 79.1051 283.68 82.19C283.68 82.31 283.68 82.43 283.68 82.55C283.68 83.98 283.91 85.47 283.97 87.05C284.136 88.8283 283.726 90.6129 282.8 92.14C282.272 92.9249 281.519 93.5316 280.64 93.88C279.734 94.2356 278.726 94.2356 277.82 93.88C277.35 93.6914 276.939 93.3807 276.63 92.98C276.333 92.591 276.128 92.1397 276.03 91.66C275.922 91.1804 275.939 90.681 276.08 90.21C276.241 89.714 276.565 89.2874 277 89C277.102 88.9339 277.226 88.9092 277.346 88.9311C277.466 88.953 277.573 89.0197 277.646 89.1177C277.718 89.2158 277.751 89.3377 277.737 89.4589C277.723 89.58 277.663 89.6913 277.57 89.77C277.339 89.9799 277.174 90.252 277.094 90.5536C277.014 90.8552 277.023 91.1734 277.12 91.47C277.183 91.7838 277.324 92.0767 277.53 92.3215C277.736 92.5663 278.001 92.7549 278.3 92.87C278.939 93.0751 279.631 93.0323 280.24 92.75C280.876 92.4726 281.413 92.0089 281.78 91.42C282.487 90.1083 282.763 88.6075 282.57 87.13C282.46 85.58 282.11 83.95 282.11 82.22C282.108 78.7777 283.079 75.405 284.91 72.49C286.771 69.5445 289.46 67.2138 292.64 65.79C295.835 64.3288 299.385 63.8251 302.86 64.34C306.207 64.9544 309.439 66.0845 312.44 67.69L316.8 69.87C318.25 70.58 319.68 71.26 321.12 71.87C322.515 72.441 323.966 72.8633 325.45 73.13C326.842 73.3802 328.268 73.3802 329.66 73.13C330.134 73.042 330.624 73.145 331.023 73.4166C331.422 73.6881 331.698 74.1063 331.79 74.58C331.869 75.0487 331.762 75.5298 331.491 75.9204C331.22 76.3109 330.807 76.58 330.34 76.67Z" fill="#142216"/>
<g style="mix-blend-mode:multiply">
<path d="M330.34 76.67H330.28C328.456 76.9518 326.596 76.9009 324.79 76.52C323.071 76.154 321.395 75.6076 319.79 74.89C318.23 74.21 316.79 73.44 315.3 72.67L311.02 70.34C308.33 68.775 305.416 67.6317 302.38 66.95C299.39 66.4015 296.306 66.7315 293.5 67.9C290.656 69.0489 288.219 71.0195 286.5 73.56C284.766 76.1135 283.788 79.1051 283.68 82.19C283.718 78.3837 284.93 74.6819 287.15 71.59C289.546 68.31 293.14 66.1073 297.15 65.46C301.3 64.88 305.49 66.18 309.29 67.94C313.09 69.7 316.67 71.94 320.58 73.46C324.13 74.82 328.11 75.52 331.75 74.56C331.836 75.026 331.737 75.5072 331.473 75.9013C331.21 76.2953 330.803 76.5711 330.34 76.67Z" fill="#BFD4EA"/>
</g>
<path d="M329.57 76.6698H329.62C331.447 76.9515 333.311 76.9007 335.12 76.5198C336.839 76.1538 338.515 75.6075 340.12 74.8898C341.68 74.2098 343.12 73.4398 344.6 72.6698L348.89 70.3398C351.573 68.7951 354.477 67.6688 357.5 66.9998C360.486 66.4516 363.568 66.7816 366.37 67.9498C369.215 69.0972 371.653 71.0681 373.37 73.6098C375.104 76.1633 376.082 79.1549 376.19 82.2398V82.5998C376.19 84.0299 375.97 85.5198 375.91 87.0998C375.744 88.8781 376.154 90.6627 377.08 92.1898C377.608 92.9748 378.361 93.5814 379.24 93.9298C380.146 94.2855 381.154 94.2855 382.06 93.9298C382.528 93.7388 382.939 93.4285 383.25 93.0298C383.547 92.6408 383.752 92.1895 383.85 91.7099C383.948 91.2294 383.931 90.7324 383.8 90.2598C383.663 89.7579 383.36 89.3172 382.94 89.0098C382.838 88.9437 382.714 88.9191 382.594 88.941C382.474 88.9628 382.367 89.0296 382.294 89.1276C382.221 89.2256 382.189 89.3476 382.203 89.4687C382.217 89.5899 382.277 89.7011 382.37 89.7798C382.601 89.9898 382.766 90.2619 382.846 90.5635C382.926 90.865 382.917 91.1832 382.82 91.4798C382.755 91.793 382.614 92.0851 382.408 92.3296C382.202 92.574 381.938 92.7632 381.64 92.8798C381.001 93.085 380.309 93.0422 379.7 92.7598C379.064 92.4825 378.527 92.0187 378.16 91.4298C377.447 90.1205 377.17 88.6175 377.37 87.1398C377.48 85.5898 377.83 83.9598 377.83 82.2298C377.827 78.784 376.845 75.4099 375 72.4998C374.083 71.0318 372.951 69.7103 371.64 68.5798C370.328 67.444 368.855 66.5074 367.27 65.7998C364.079 64.3389 360.532 63.8352 357.06 64.3498C353.713 64.9643 350.481 66.0944 347.48 67.6998L343.12 69.8798C341.67 70.5898 340.24 71.2698 338.79 71.8798C337.395 72.4508 335.944 72.8732 334.46 73.1398C333.071 73.3901 331.649 73.3901 330.26 73.1398C329.786 73.0519 329.296 73.1549 328.897 73.4264C328.498 73.698 328.222 74.1161 328.13 74.5898C328.054 75.0556 328.161 75.5329 328.43 75.9209C328.698 76.309 329.107 76.5775 329.57 76.6698Z" fill="#142216"/>
<g style="mix-blend-mode:multiply">
<path d="M329.57 76.6698H329.62C331.447 76.9515 333.311 76.9007 335.12 76.5198C336.839 76.1538 338.515 75.6074 340.12 74.8898C341.68 74.2098 343.12 73.4398 344.6 72.6698L348.89 70.3398C351.573 68.7951 354.477 67.6688 357.5 66.9998C360.486 66.4516 363.567 66.7816 366.37 67.9498C369.215 69.0972 371.652 71.0681 373.37 73.6098C375.104 76.1633 376.082 79.1549 376.19 82.2398C376.152 78.4335 374.94 74.7317 372.72 71.6398C370.323 68.3598 366.73 66.1571 362.72 65.5098C358.57 64.9298 354.38 66.2298 350.58 67.9898C346.78 69.7498 343.2 71.9898 339.29 73.5098C335.74 74.8698 331.76 75.5698 328.12 74.6098C328.049 75.0739 328.161 75.5473 328.431 75.9312C328.701 76.3151 329.109 76.5797 329.57 76.6698Z" fill="#BFD4EA"/>
</g>
<path d="M327.82 158.48H327.62C315.01 158.48 326.37 110.78 326.37 110.78H326.72L328.72 74.1499H330.81V110.78C330.81 110.78 340.13 158 327.82 158.48Z" fill="#142216"/>
<g style="mix-blend-mode:multiply">
<path d="M327.82 158.48C330.31 151.346 331.499 143.824 331.33 136.27C331.314 127.592 330.646 118.928 329.33 110.35L330 74.8899H330.87V110.79C330.87 110.79 340.13 158 327.82 158.48Z" fill="#BFD4EA"/>
</g>
<path d="M334.84 109.32C334.85 110.521 334.502 111.697 333.841 112.7C333.18 113.702 332.236 114.485 331.128 114.949C330.021 115.414 328.8 115.538 327.622 115.306C326.444 115.074 325.361 114.497 324.512 113.648C323.663 112.798 323.086 111.716 322.854 110.538C322.622 109.359 322.746 108.139 323.21 107.031C323.674 105.924 324.458 104.979 325.46 104.319C326.463 103.658 327.639 103.31 328.84 103.32C330.427 103.333 331.946 103.969 333.068 105.092C334.191 106.214 334.827 107.733 334.84 109.32Z" fill="#D97C2F"/>
<g style="mix-blend-mode:multiply">
<path d="M334.84 109.32C334.88 110.658 334.471 111.972 333.678 113.051C332.886 114.13 331.755 114.913 330.466 115.275C329.177 115.637 327.803 115.558 326.565 115.05C325.326 114.541 324.293 113.633 323.63 112.47C324.548 113.026 325.597 113.328 326.671 113.346C327.744 113.364 328.803 113.096 329.739 112.57C330.675 112.044 331.454 111.279 331.997 110.353C332.54 109.427 332.828 108.373 332.83 107.3C332.831 106.188 332.523 105.097 331.94 104.15C332.826 104.691 333.557 105.451 334.065 106.356C334.573 107.261 334.84 108.282 334.84 109.32Z" fill="#BFD4EA"/>
</g>
<path d="M330.75 98.0799L327.05 98.1699C325.05 98.1699 325.05 101.33 327.05 101.28L330.75 101.2C332.75 101.15 332.76 97.9999 330.75 98.0799Z" fill="#D97C2F"/>
<path d="M334.46 74.8799C334.462 75.7723 334.199 76.6452 333.705 77.3882C333.21 78.1312 332.507 78.7108 331.683 79.0537C330.859 79.3966 329.952 79.4873 329.076 79.3144C328.201 79.1415 327.396 78.7128 326.764 78.0825C326.133 77.4521 325.702 76.6485 325.527 75.7734C325.353 74.8983 325.441 73.991 325.782 73.1663C326.123 72.3416 326.701 71.6367 327.443 71.1407C328.185 70.6446 329.058 70.3799 329.95 70.3799C331.144 70.3799 332.29 70.8537 333.135 71.6973C333.981 72.5409 334.457 73.6855 334.46 74.8799Z" fill="#D97C2F"/>
<path d="M330 77.9398C329.395 77.9398 328.803 77.7604 328.3 77.4241C327.797 77.0879 327.404 76.61 327.173 76.0508C326.941 75.4917 326.881 74.8764 326.999 74.2828C327.117 73.6893 327.408 73.144 327.836 72.7161C328.264 72.2881 328.809 71.9967 329.403 71.8786C329.997 71.7606 330.612 71.8212 331.171 72.0528C331.73 72.2844 332.208 72.6766 332.544 73.1798C332.88 73.683 333.06 74.2746 333.06 74.8798C333.057 75.6906 332.734 76.4674 332.161 77.0407C331.587 77.6139 330.811 77.9372 330 77.9398ZM330 72.7098C329.568 72.7098 329.146 72.8379 328.788 73.0779C328.429 73.3179 328.15 73.659 327.985 74.0579C327.82 74.4568 327.778 74.8957 327.863 75.3188C327.947 75.742 328.156 76.1304 328.462 76.4349C328.768 76.7393 329.157 76.9462 329.581 77.0292C330.004 77.1121 330.443 77.0675 330.841 76.901C331.239 76.7345 331.579 76.4535 331.817 76.0937C332.056 75.7339 332.182 75.3114 332.18 74.8798C332.177 74.3034 331.946 73.7515 331.538 73.3448C331.129 72.9381 330.576 72.7098 330 72.7098Z" fill="#142216"/>
<path d="M351.24 163.27V172.27L342.5 171.83L305.19 170L305.27 168.73L305.55 164.42L305.92 158.68C305.92 158.68 329.92 151.68 349.13 162.07C349.84 162.43 350.55 162.84 351.24 163.27Z" fill="#D97C2F"/>
<path d="M351.24 165.49V172.28L305.19 170L305.55 164.42C313.31 164.66 340.55 165.25 351.24 165.49Z" fill="#FFB549"/>
<path d="M361.47 180.03L310.44 180.72L297.1 180.9L297.97 168.51L305.27 168.71L345.16 169.79L351.24 169.95L359.88 170.19L361.47 180.03Z" fill="#B34F18"/>
<g style="mix-blend-mode:multiply">
<path d="M361.47 180L310.47 180.69L310.15 179.85C310.15 179.85 332.03 178.49 342.53 171.85C343.483 171.277 344.375 170.607 345.19 169.85C347.228 167.7 348.615 165.016 349.19 162.11C349.9 162.49 350.61 162.9 351.3 163.33V170L359.94 170.24L361.47 180Z" fill="#BFD4EA"/>
</g>
<path d="M256.28 120.56C256.195 120.562 256.111 120.538 256.038 120.493C255.966 120.448 255.908 120.383 255.872 120.306C255.836 120.228 255.823 120.142 255.835 120.058C255.847 119.973 255.884 119.894 255.94 119.83L279.19 92.6798C279.229 92.6299 279.279 92.5896 279.337 92.5618C279.394 92.5341 279.456 92.5198 279.52 92.5198C279.645 92.5247 279.764 92.5786 279.85 92.6698L304.23 119.82C304.292 119.909 304.319 120.019 304.307 120.127C304.294 120.235 304.243 120.335 304.162 120.408C304.082 120.482 303.977 120.523 303.868 120.525C303.759 120.527 303.653 120.49 303.57 120.42L279.57 93.6398L256.65 120.41C256.604 120.462 256.547 120.502 256.483 120.528C256.418 120.554 256.349 120.565 256.28 120.56Z" fill="#142216"/>
<path d="M269.79 119.83H269.64C269.53 119.791 269.44 119.711 269.389 119.606C269.338 119.501 269.332 119.38 269.37 119.27L279.11 92.84C279.151 92.7299 279.234 92.6407 279.341 92.592C279.448 92.5432 279.57 92.5389 279.68 92.58C279.79 92.6211 279.879 92.7043 279.928 92.8112C279.977 92.9181 279.981 93.0399 279.94 93.15L270.2 119.57C270.166 119.65 270.108 119.717 270.035 119.763C269.962 119.81 269.877 119.833 269.79 119.83Z" fill="#142216"/>
<path d="M282.48 139C281.78 139.04 281.06 139.06 280.32 139.06H280C278.45 139.06 277 138.99 275.63 138.86C253.94 136.86 254.91 119.86 254.91 119.86C254.91 119.86 257.91 119.42 262.7 118.96C264.38 118.81 266.28 118.64 268.34 118.5C277.807 117.756 287.32 117.799 296.78 118.63C299.63 118.93 302.42 119.33 305.09 119.86C305.06 119.85 306.09 137.77 282.48 139Z" fill="#EA9B1C"/>
<g style="mix-blend-mode:multiply">
<path d="M280.52 139C294.08 135.47 295.08 125.15 294.79 118.67C297.63 118.97 300.43 119.37 303.1 119.9C303.1 119.85 304.12 137.77 280.52 139Z" fill="#DBC8AA"/>
</g>
<g style="mix-blend-mode:soft-light">
<path d="M278.35 139H278C276.45 139 275 138.93 273.63 138.8C269.502 137.529 265.95 134.853 263.589 131.236C261.229 127.619 260.21 123.29 260.71 119C262.38 118.85 264.28 118.68 266.34 118.54C265.53 122.807 266.264 127.223 268.41 131C270.63 134.795 274.168 137.642 278.35 139Z" fill="white"/>
</g>
<path d="M357.29 120.56C357.184 120.563 357.081 120.528 357 120.46C356.955 120.422 356.917 120.376 356.89 120.324C356.863 120.271 356.846 120.214 356.842 120.155C356.837 120.097 356.844 120.037 356.863 119.982C356.881 119.926 356.911 119.874 356.95 119.83L380.19 92.6798C380.232 92.6307 380.284 92.591 380.343 92.5635C380.402 92.5359 380.465 92.521 380.53 92.5198C380.592 92.5205 380.654 92.5343 380.711 92.5601C380.768 92.5859 380.818 92.6233 380.86 92.6698L405.24 119.82C405.282 119.861 405.316 119.91 405.338 119.964C405.361 120.018 405.373 120.076 405.373 120.135C405.373 120.193 405.361 120.252 405.338 120.306C405.316 120.36 405.282 120.409 405.24 120.45C405.156 120.532 405.043 120.578 404.925 120.578C404.807 120.578 404.694 120.532 404.61 120.45L380.61 93.6698L357.69 120.44C357.639 120.492 357.576 120.531 357.506 120.552C357.436 120.573 357.361 120.575 357.29 120.56Z" fill="#142216"/>
<path d="M370.79 119.83H370.64C370.586 119.811 370.536 119.781 370.493 119.743C370.45 119.704 370.416 119.657 370.392 119.605C370.367 119.553 370.354 119.496 370.352 119.439C370.35 119.381 370.359 119.324 370.38 119.27L380.11 92.8399C380.13 92.7852 380.161 92.7349 380.2 92.6922C380.24 92.6494 380.288 92.6149 380.341 92.5907C380.394 92.5665 380.451 92.5531 380.509 92.5512C380.568 92.5494 380.626 92.5591 380.68 92.5799C380.791 92.6206 380.881 92.7031 380.932 92.8097C380.982 92.9163 380.989 93.0385 380.95 93.1499L371.21 119.57C371.173 119.649 371.114 119.716 371.039 119.763C370.964 119.809 370.878 119.832 370.79 119.83Z" fill="#142216"/>
<path d="M383.61 139C382.943 139.04 382.223 139.06 381.45 139.06H381.1C379.55 139.06 378.1 138.99 376.73 138.86C355.04 136.86 356.01 119.86 356.01 119.86C356.01 119.86 359.01 119.42 363.8 118.96C365.48 118.81 367.37 118.64 369.44 118.5C378.907 117.756 388.42 117.799 397.88 118.63C400.72 118.93 403.52 119.33 406.19 119.86C406.19 119.85 407.22 137.77 383.61 139Z" fill="#EA9B1C"/>
<g style="mix-blend-mode:multiply">
<path d="M383.61 139C397.17 135.47 398.17 125.15 397.88 118.67C400.72 118.97 403.52 119.37 406.19 119.9C406.19 119.85 407.22 137.77 383.61 139Z" fill="#DBC8AA"/>
</g>
<g style="mix-blend-mode:soft-light">
<path d="M381.45 139H381.1C379.55 139 378.1 138.93 376.73 138.8C372.604 137.526 369.052 134.85 366.691 131.234C364.33 127.618 363.307 123.29 363.8 119C365.48 118.85 367.37 118.68 369.44 118.54C368.627 122.806 369.357 127.222 371.5 131C373.728 134.793 377.267 137.638 381.45 139Z" fill="white"/>
</g>
<path d="M216.11 139.47H212.72L199.84 179.98H203.23H252.71L265.59 139.47H216.11Z" fill="#142216"/>
<path d="M239 165.16H226.39C223.77 165.16 222.31 163.03 223.15 160.4L223.58 159.05C224.036 157.728 224.875 156.571 225.989 155.725C227.104 154.879 228.444 154.383 229.84 154.3H242.43C245.05 154.3 246.5 156.42 245.67 159.05L245.24 160.4C244.784 161.719 243.949 162.875 242.839 163.722C241.729 164.569 240.393 165.069 239 165.16V165.16Z" stroke="#6E9296" stroke-miterlimit="10"/>
<path d="M214.22 141.61L202.71 177.79" stroke="#6E9296" stroke-width="0.4" stroke-miterlimit="10"/>
<path d="M241.05 177.79H162.84V179.98H241.05V177.79Z" fill="#142216"/>
<path d="M389.39 179.61H78.6099V190.15H389.39V179.61Z" fill="#576B99"/>
<path d="M378.7 190.15H89.3V321.05H378.7V190.15Z" fill="#576B99"/>
<path d="M378.7 190.15H89.3L89.84 205.4L378.73 218.41L378.7 190.15Z" fill="#1B2536"/>
<path d="M116.77 263.46H378.68" stroke="white" stroke-miterlimit="10"/>
<path d="M116.77 277.63H378.68" stroke="white" stroke-miterlimit="10"/>
<path d="M116.77 291.8H378.68" stroke="white" stroke-miterlimit="10"/>
<path d="M116.77 305.96H378.68" stroke="white" stroke-miterlimit="10"/>
<path d="M60.7401 257.73C60.4901 252.47 61.1201 246.73 58.1101 242.41C56.8601 240.62 55.1101 239.27 53.6901 237.58C50.8201 234.08 49.8301 229.33 50.0601 224.81C50.2901 220.29 51.6101 215.91 52.9201 211.58C51.3201 215.85 53.8101 220.47 56.2101 224.35C57.5301 226.48 58.9001 228.67 60.9701 230.08C63.0401 231.49 65.8701 232.08 68.2601 233.2C73.8901 235.92 77.1001 242.32 77.2601 248.57C77.4401 253.96 75.7301 259.57 77.7001 264.62C79.7001 269.84 90.3501 284.48 76.2001 280.76C65.8801 278 61.2001 267.64 60.7401 257.73Z" fill="#3E3E15"/>
<path d="M52.92 211.58C51.37 233.58 65.79 234.36 66.09 248.15C66.5 266.39 76.24 280.76 82 281" stroke="#A2A34A" stroke-miterlimit="10"/>
<path d="M73.1201 247.15C76.0501 241.8 80.1201 236.49 79.7401 230.4C79.5801 227.87 78.6301 225.46 78.2801 222.95C77.5401 217.76 79.4201 212.47 82.3601 208.13C85.3001 203.79 89.2601 200.24 93.1701 196.75C89.0101 200.01 88.7001 206.09 88.7401 211.37C88.7401 214.27 88.8101 217.27 90.0001 219.91C91.2601 222.71 93.6701 224.82 95.3401 227.39C99.2801 233.47 98.6101 241.75 95.0501 248.05C91.9801 253.49 86.8901 258.05 85.8201 264.2C84.7001 270.61 86.3901 291.48 74.6101 279.29C66.0001 270.36 67.6201 257.24 73.1201 247.15Z" fill="#6B671F"/>
<path d="M93.17 196.75C78.39 217.6 92.17 227.05 84.17 240.89C73.6 259.19 74.59 279.29 80.11 283" stroke="#A2A34A" stroke-miterlimit="10"/>
<path d="M85.5899 254.1C89.3399 250.4 94.0399 247.03 95.2299 241.91C95.7299 239.78 95.5499 237.55 95.8799 235.39C96.5699 230.91 99.4399 227.01 102.95 224.16C106.46 221.31 110.61 219.36 114.71 217.45C110.46 219.11 108.71 224.05 107.41 228.45C106.7 230.85 105.99 233.33 106.32 235.81C106.65 238.29 108.13 240.81 108.87 243.33C110.61 249.33 107.99 256 103.48 260.33C99.5899 264.06 94.2499 266.56 91.8299 271.38C89.3099 276.38 85.4999 294.06 78.8299 281.04C73.9199 271.49 78.5299 261.06 85.5899 254.1Z" fill="#3E3E15"/>
<path d="M114.71 217.45C97.3 230.99 106.36 242.24 96.3 251.68C83 264.16 78.81 281 82.44 285.46" stroke="#A2A34A" stroke-miterlimit="10"/>
<path d="M99.4399 272.18L94.3899 303.89L91.2699 323.48H68.8599L62.5599 283.98L60.6899 272.18H99.4399Z" fill="#142216"/>
<g style="mix-blend-mode:multiply" opacity="0.58">
<path d="M94.3901 303.89L91.2701 323.48H68.8601L62.5601 283.98L94.3901 303.89Z" fill="#CC6017"/>
</g>
<path d="M407.26 257.73C407.51 252.47 406.88 246.73 409.89 242.41C411.14 240.62 412.89 239.27 414.31 237.58C417.18 234.08 418.17 229.33 417.94 224.81C417.71 220.29 416.39 215.91 415.08 211.58C416.68 215.85 414.19 220.47 411.79 224.35C410.47 226.48 409.1 228.67 407.03 230.08C404.96 231.49 402.13 232.08 399.74 233.2C394.11 235.92 390.9 242.32 390.74 248.57C390.56 253.96 392.27 259.57 390.3 264.62C388.3 269.84 377.65 284.48 391.8 280.76C402.12 278 406.8 267.64 407.26 257.73Z" fill="#3E3E15"/>
<path d="M415.08 211.58C416.63 233.58 402.21 234.36 401.91 248.15C401.5 266.39 391.76 280.76 386 281" stroke="#A2A34A" stroke-miterlimit="10"/>
<path d="M394.88 247.15C391.95 241.8 387.88 236.49 388.26 230.4C388.42 227.87 389.37 225.46 389.72 222.95C390.46 217.76 388.58 212.47 385.64 208.13C382.7 203.79 378.74 200.24 374.83 196.75C378.99 200.01 379.3 206.09 379.26 211.37C379.26 214.27 379.19 217.27 378 219.91C376.74 222.71 374.33 224.82 372.66 227.39C368.72 233.47 369.39 241.75 372.95 248.05C376.02 253.49 381.11 258.05 382.18 264.2C383.3 270.61 381.61 291.48 393.39 279.29C402 270.36 400.38 257.24 394.88 247.15Z" fill="#6B671F"/>
<path d="M374.83 196.75C389.61 217.6 375.83 227.05 383.83 240.89C394.4 259.19 393.41 279.29 387.89 283" stroke="#A2A34A" stroke-miterlimit="10"/>
<path d="M382.41 254.1C378.66 250.4 373.96 247.03 372.77 241.91C372.27 239.78 372.45 237.55 372.12 235.39C371.43 230.91 368.57 227.01 365.05 224.16C361.53 221.31 357.39 219.36 353.29 217.45C357.54 219.11 359.29 224.05 360.59 228.45C361.3 230.85 362.01 233.33 361.68 235.81C361.35 238.29 359.87 240.81 359.13 243.33C357.39 249.33 360.01 256 364.52 260.33C368.41 264.06 373.75 266.56 376.17 271.38C378.69 276.38 382.5 294.06 389.17 281.04C394.08 271.49 389.47 261.06 382.41 254.1Z" fill="#3E3E15"/>
<path d="M353.29 217.45C370.7 230.99 361.64 242.24 371.7 251.68C385 264.16 389.19 281.01 385.56 285.46" stroke="#A2A34A" stroke-miterlimit="10"/>
<path d="M368.56 272.18L373.61 303.89L376.73 323.48H399.14L405.44 283.98L407.31 272.18H368.56Z" fill="#142216"/>
<g style="mix-blend-mode:multiply" opacity="0.58">
<path d="M373.61 303.89L376.73 323.48H399.14L405.44 283.98L373.61 303.89Z" fill="#CC6017"/>
</g>
<path d="M235.43 304.15V326.35H332C334.944 326.35 337.767 325.18 339.849 323.099C341.93 321.017 343.1 318.194 343.1 315.25C343.1 312.306 341.93 309.483 339.849 307.401C337.767 305.319 334.944 304.15 332 304.15H235.43Z" fill="#BD4A2C"/>
<path d="M235.43 304.15V326.35H321.83C324.774 326.35 327.597 325.18 329.679 323.099C331.76 321.017 332.93 318.194 332.93 315.25C332.93 312.306 331.76 309.483 329.679 307.401C327.597 305.319 324.774 304.15 321.83 304.15H235.43Z" fill="#8A2C08"/>
<path d="M235.57 322.88H322C324.024 322.88 325.964 322.076 327.395 320.645C328.826 319.214 329.63 317.273 329.63 315.25C329.627 313.227 328.823 311.288 327.392 309.858C325.962 308.427 324.023 307.623 322 307.62H235.57C235.533 307.62 235.497 307.635 235.471 307.661C235.445 307.687 235.43 307.723 235.43 307.76V322.76C235.435 322.793 235.452 322.824 235.477 322.846C235.503 322.868 235.536 322.88 235.57 322.88Z" fill="white"/>
<path d="M322.1 311.69L235.43 311.58V310.44L322.1 310.55C322.175 310.549 322.25 310.562 322.32 310.591C322.389 310.619 322.453 310.661 322.506 310.714C322.559 310.767 322.601 310.83 322.629 310.9C322.657 310.97 322.671 311.045 322.67 311.12C322.67 311.271 322.61 311.416 322.503 311.523C322.396 311.63 322.251 311.69 322.1 311.69Z" fill="#DFCAB8"/>
<path d="M322.1 315.5L235.43 315.4V314.26L322.1 314.36C322.251 314.36 322.396 314.42 322.503 314.527C322.61 314.634 322.67 314.779 322.67 314.93C322.671 315.005 322.657 315.08 322.629 315.149C322.601 315.219 322.559 315.283 322.506 315.336C322.453 315.389 322.389 315.431 322.32 315.459C322.25 315.487 322.175 315.501 322.1 315.5Z" fill="#DFCAB8"/>
<path d="M322.1 319.49L235.43 319.38V318.25L322.1 318.35C322.251 318.35 322.396 318.41 322.503 318.517C322.61 318.624 322.67 318.769 322.67 318.92C322.671 318.995 322.657 319.07 322.629 319.14C322.601 319.209 322.559 319.273 322.506 319.326C322.453 319.379 322.389 319.421 322.32 319.449C322.25 319.478 322.175 319.491 322.1 319.49Z" fill="#DFCAB8"/>
<path d="M247.18 282.13V304.33H343.79C346.734 304.33 349.557 303.16 351.639 301.079C353.72 298.997 354.89 296.174 354.89 293.23C354.89 290.286 353.72 287.463 351.639 285.381C349.557 283.299 346.734 282.13 343.79 282.13H247.18Z" fill="#835F26"/>
<path d="M247.18 282.13V304.33H333.58C336.524 304.33 339.347 303.16 341.429 301.079C343.51 298.997 344.68 296.174 344.68 293.23C344.68 290.286 343.51 287.463 341.429 285.381C339.347 283.299 336.524 282.13 333.58 282.13H247.18Z" fill="#5A3B08"/>
<path d="M247.18 300.86H333.73C334.732 300.861 335.725 300.665 336.651 300.282C337.578 299.899 338.419 299.337 339.128 298.628C339.837 297.919 340.399 297.078 340.782 296.151C341.165 295.225 341.361 294.232 341.36 293.23C341.36 291.206 340.556 289.266 339.125 287.835C337.694 286.404 335.754 285.6 333.73 285.6H247.18V300.86Z" fill="white"/>
<path d="M333.85 293.48L247.18 293.38V292.24L333.86 292.35C334.008 292.35 334.151 292.409 334.256 292.514C334.361 292.619 334.42 292.761 334.42 292.91C334.421 292.985 334.407 293.06 334.379 293.129C334.351 293.199 334.309 293.263 334.256 293.316C334.203 293.369 334.139 293.411 334.07 293.439C334 293.467 333.925 293.481 333.85 293.48Z" fill="#DFCAB8"/>
<path d="M333.85 297.47L247.18 297.37V296.23L333.86 296.33C334.009 296.333 334.152 296.394 334.257 296.5C334.361 296.607 334.42 296.751 334.42 296.9C334.421 296.975 334.407 297.05 334.379 297.12C334.351 297.189 334.309 297.253 334.256 297.306C334.203 297.359 334.139 297.401 334.07 297.429C334 297.458 333.925 297.471 333.85 297.47Z" fill="#DFCAB8"/>
<path d="M333.85 289.67L247.18 289.56V288.42L333.86 288.53C333.934 288.53 334.008 288.545 334.077 288.573C334.145 288.602 334.207 288.644 334.259 288.697C334.312 288.751 334.353 288.813 334.38 288.883C334.408 288.952 334.421 289.026 334.42 289.1C334.42 289.251 334.36 289.396 334.253 289.503C334.146 289.61 334.001 289.67 333.85 289.67Z" fill="#DFCAB8"/>
<path d="M239.77 260.12V282.33H336.38C339.268 282.243 342.008 281.035 344.02 278.962C346.032 276.889 347.157 274.114 347.157 271.225C347.157 268.336 346.032 265.561 344.02 263.488C342.008 261.415 339.268 260.207 336.38 260.12H239.77Z" fill="#324B85"/>
<path d="M239.77 260.12V282.33H326.18C329.068 282.243 331.808 281.035 333.82 278.962C335.832 276.889 336.957 274.114 336.957 271.225C336.957 268.336 335.832 265.561 333.82 263.488C331.808 261.415 329.068 260.207 326.18 260.12H239.77Z" fill="#13244A"/>
<path d="M239.78 278.86H326.32C328.345 278.86 330.286 278.056 331.719 276.626C333.151 275.195 333.957 273.254 333.96 271.23C333.96 269.204 333.155 267.26 331.722 265.828C330.29 264.395 328.346 263.59 326.32 263.59H239.78V278.86Z" fill="white"/>
<path d="M326.45 267.66L239.78 267.55V266.42L326.45 266.52C326.6 266.522 326.744 266.583 326.85 266.69C326.957 266.796 327.017 266.94 327.02 267.09C327.02 267.241 326.96 267.386 326.853 267.493C326.746 267.6 326.601 267.66 326.45 267.66Z" fill="#DFCAB8"/>
<path d="M326.45 271.48L239.78 271.37V270.23L326.45 270.34C326.601 270.34 326.746 270.4 326.853 270.507C326.96 270.614 327.02 270.759 327.02 270.91C327.017 271.06 326.957 271.204 326.85 271.31C326.744 271.417 326.6 271.477 326.45 271.48Z" fill="#DFCAB8"/>
<path d="M326.45 275.47L239.78 275.36V274.22L326.45 274.33C326.601 274.33 326.746 274.39 326.853 274.497C326.96 274.604 327.02 274.749 327.02 274.9C327.017 275.05 326.957 275.194 326.85 275.3C326.744 275.407 326.6 275.467 326.45 275.47Z" fill="#DFCAB8"/>
<path d="M260.24 266.46V277.35L256.83 273.94L253.3 277.47V266.42L260.24 266.46Z" fill="#BD4A2C"/>
<path d="M286.33 251.75C286.318 253.833 286.1 255.91 285.68 257.95L269.9 259.07H269.52L253.74 258C253.32 255.96 253.102 253.883 253.09 251.8C253.09 240.12 260.8 235.13 263.97 233.62C265.073 233.192 266.006 232.415 266.627 231.407C267.248 230.4 267.523 229.218 267.41 228.04C267.417 226.956 267.092 225.896 266.479 225.002C265.866 224.108 264.994 223.424 263.98 223.04C260.8 221.53 253.11 216.55 253.1 204.87C253.112 202.787 253.33 200.71 253.75 198.67L269.53 197.55H269.91L285.69 198.67C286.108 200.71 286.322 202.787 286.33 204.87C286.33 216.55 278.63 221.53 275.45 223.04C274.35 223.475 273.421 224.255 272.801 225.263C272.181 226.27 271.903 227.452 272.01 228.63C272.005 229.715 272.332 230.775 272.947 231.668C273.562 232.562 274.435 233.247 275.45 233.63C278.62 235.08 286.31 240.07 286.33 251.75Z" fill="#EA9B1C"/>
<g style="mix-blend-mode:multiply" opacity="0.52">
<path d="M283.39 201.13L269.72 200.13L256.04 201.13C255.88 202.347 255.797 203.573 255.79 204.8C255.754 207.363 256.237 209.908 257.21 212.28C258.755 215.912 261.576 218.853 265.14 220.55C266.221 221.001 267.19 221.681 267.981 222.545C268.772 223.408 269.366 224.434 269.72 225.55C270.071 224.432 270.663 223.405 271.454 222.541C272.246 221.677 273.217 220.997 274.3 220.55C276.314 219.59 278.108 218.223 279.569 216.537C281.03 214.85 282.127 212.88 282.79 210.75C283.376 208.821 283.666 206.815 283.65 204.8C283.645 203.572 283.558 202.346 283.39 201.13ZM283.39 248.42C283.023 245.757 281.998 243.228 280.41 241.06C278.821 238.892 276.718 237.153 274.29 236C272.567 235.254 271.142 233.956 270.24 232.31C270.021 231.892 269.843 231.453 269.71 231C269.353 232.115 268.759 233.139 267.968 234.002C267.178 234.865 266.209 235.547 265.13 236C262.32 237.33 255.79 241.54 255.78 251.75C255.784 252.974 255.871 254.197 256.04 255.41L269.71 256.41L283.38 255.41C283.549 254.197 283.636 252.974 283.64 251.75C283.644 250.635 283.557 249.521 283.38 248.42H283.39Z" fill="#CC6017"/>
</g>
<path d="M283.63 251.75C283.703 252.976 283.619 254.206 283.38 255.41L269.71 256.41L256.04 255.41C255.871 254.197 255.784 252.974 255.78 251.75C256.7 249.21 258.84 248.59 264.11 245.6C269.38 242.61 270.11 237.49 269.71 231H270.38C270.38 231 270.31 231.49 270.24 232.31C269.983 234.885 270.118 237.485 270.64 240.02C270.921 241.5 271.655 242.855 272.74 243.9C274.74 245.73 277.18 245.66 279.48 246.9C280.017 247.223 280.526 247.591 281 248C281.752 248.545 282.425 249.191 283 249.92C283.359 250.468 283.576 251.097 283.63 251.75Z" fill="#8A3D12"/>
<g style="mix-blend-mode:multiply" opacity="0.52">
<path d="M286.33 204.8H253.1C253.112 202.717 253.33 200.64 253.75 198.6L269.53 197.48H269.91L285.69 198.6C286.108 200.64 286.322 202.717 286.33 204.8Z" fill="#CC6017"/>
</g>
<path d="M285.52 196.42H253.92C252.755 196.42 251.81 197.365 251.81 198.53V199.04C251.81 200.205 252.755 201.15 253.92 201.15H285.52C286.685 201.15 287.63 200.205 287.63 199.04V198.53C287.63 197.365 286.685 196.42 285.52 196.42Z" fill="#EA9B1C"/>
<g style="mix-blend-mode:multiply" opacity="0.52">
<path d="M253.1 251.75H286.33C286.318 253.833 286.1 255.91 285.68 257.95L269.9 259.07H269.52L253.74 258C253.32 255.943 253.105 253.849 253.1 251.75Z" fill="#CC6017"/>
</g>
<path d="M253.91 260.12H285.51C286.675 260.12 287.62 259.175 287.62 258.01V257.5C287.62 256.335 286.675 255.39 285.51 255.39H253.91C252.745 255.39 251.8 256.335 251.8 257.5V258.01C251.8 259.175 252.745 260.12 253.91 260.12Z" fill="#EA9B1C"/>
<path d="M282.79 210.75C282.127 212.88 281.03 214.85 279.569 216.537C278.108 218.223 276.314 219.59 274.3 220.55C273.217 220.997 272.245 221.677 271.454 222.541C270.663 223.405 270.071 224.432 269.72 225.55C269.366 224.434 268.772 223.408 267.981 222.545C267.19 221.681 266.221 221 265.14 220.55C261.576 218.853 258.755 215.912 257.21 212.28C266.06 208.91 276.7 209.35 282.79 210.75Z" fill="#8A3D12"/>
<path d="M211.54 43.5199C211.542 46.0124 210.805 48.4495 209.421 50.5228C208.038 52.5962 206.071 54.2128 203.769 55.168C201.467 56.1232 198.933 56.3741 196.488 55.8891C194.043 55.404 191.797 54.2048 190.034 52.443C188.271 50.6813 187.07 48.4362 186.583 45.9918C186.096 43.5473 186.345 41.0134 187.298 38.7104C188.252 36.4075 189.867 34.4391 191.939 33.0541C194.011 31.6692 196.448 30.9299 198.94 30.9299C202.28 30.9299 205.483 32.2561 207.846 34.6169C210.209 36.9776 211.537 40.1799 211.54 43.5199Z" fill="#CC6017"/>
<path d="M209.982 52.4239C214.902 47.5033 214.902 39.5255 209.982 34.6049C205.061 29.6843 197.083 29.6842 192.162 34.6049C187.242 39.5255 187.242 47.5033 192.162 52.424C197.083 57.3446 205.061 57.3445 209.982 52.4239Z" fill="#EA9B1C"/>
<path d="M207.839 50.2814C211.576 46.5441 211.576 40.4847 207.839 36.7474C204.102 33.0101 198.042 33.0101 194.305 36.7474C190.568 40.4847 190.568 46.5441 194.305 50.2814C198.042 54.0187 204.102 54.0187 207.839 50.2814Z" fill="#CC6017"/>
<g style="mix-blend-mode:multiply" opacity="0.58">
<path d="M206.835 49.2773C210.018 46.0945 210.018 40.9343 206.835 37.7515C203.652 34.5687 198.492 34.5687 195.309 37.7515C192.126 40.9343 192.126 46.0946 195.309 49.2773C198.492 52.4601 203.652 52.4601 206.835 49.2773Z" fill="#CC6017"/>
</g>
<path d="M204.989 44.297C204.989 44.9264 204.76 45.4772 204.303 45.9493C203.853 46.4138 203.209 46.7211 202.37 46.8709V48.1186H200.785V46.9271C200.223 46.8972 199.683 46.811 199.166 46.6686C198.657 46.5262 198.233 46.3501 197.896 46.1403L198.75 44.2071C199.125 44.4244 199.545 44.6005 200.009 44.7353C200.474 44.8627 200.92 44.9264 201.347 44.9264C201.714 44.9264 201.976 44.8927 202.134 44.8253C202.291 44.7503 202.37 44.6417 202.37 44.4993C202.37 44.3344 202.265 44.2108 202.055 44.1284C201.853 44.0459 201.515 43.956 201.043 43.8586C200.436 43.7312 199.931 43.5963 199.526 43.454C199.121 43.3041 198.769 43.0643 198.469 42.7346C198.17 42.3974 198.02 41.9441 198.02 41.3746C198.02 40.7152 198.256 40.1494 198.728 39.6773C199.207 39.2053 199.893 38.9055 200.785 38.7781V37.553H202.37V38.7557C203.269 38.8381 204.029 39.0554 204.651 39.4076L203.853 41.3296C203.082 40.94 202.351 40.7451 201.662 40.7451C200.98 40.7451 200.639 40.91 200.639 41.2397C200.639 41.3971 200.74 41.5169 200.942 41.5994C201.144 41.6743 201.478 41.7567 201.943 41.8467C202.542 41.9591 203.048 42.0902 203.46 42.2401C203.872 42.3824 204.228 42.6185 204.528 42.9482C204.835 43.2779 204.989 43.7275 204.989 44.297Z" fill="#EA9B1C"/>
<path d="M327.64 67.2298C338.387 67.2298 347.1 58.5173 347.1 47.7698C347.1 37.0224 338.387 28.3098 327.64 28.3098C316.892 28.3098 308.18 37.0224 308.18 47.7698C308.18 58.5173 316.892 67.2298 327.64 67.2298Z" fill="#CC6017"/>
<path d="M330.94 67.2298C341.687 67.2298 350.4 58.5173 350.4 47.7698C350.4 37.0224 341.687 28.3098 330.94 28.3098C320.193 28.3098 311.48 37.0224 311.48 47.7698C311.48 58.5173 320.193 67.2298 330.94 67.2298Z" fill="#EA9B1C"/>
<path d="M344.595 53.3845C347.706 45.832 344.106 37.1872 336.553 34.0758C329.001 30.9645 320.356 34.5647 317.244 42.1172C314.133 49.6697 317.733 58.3145 325.286 61.4259C332.838 64.5373 341.483 60.937 344.595 53.3845Z" fill="#CC6017"/>
<g style="mix-blend-mode:multiply" opacity="0.58">
<path d="M330.94 60.3699C337.899 60.3699 343.54 54.7287 343.54 47.7699C343.54 40.8111 337.899 35.1699 330.94 35.1699C323.981 35.1699 318.34 40.8111 318.34 47.7699C318.34 54.7287 323.981 60.3699 330.94 60.3699Z" fill="#CC6017"/>
</g>
<path d="M336.98 48.9806C336.98 49.9528 336.627 50.8034 335.921 51.5325C335.227 52.2501 334.231 52.7246 332.935 52.956V54.883H330.487V53.0428C329.619 52.9966 328.786 52.8635 327.987 52.6436C327.2 52.4237 326.547 52.1517 326.026 51.8276L327.345 48.8417C327.924 49.1774 328.572 49.4493 329.289 49.6576C330.007 49.8544 330.696 49.9528 331.355 49.9528C331.922 49.9528 332.327 49.9007 332.57 49.7965C332.813 49.6808 332.935 49.513 332.935 49.2931C332.935 49.0385 332.773 48.8475 332.449 48.7202C332.136 48.5929 331.616 48.454 330.887 48.3036C329.949 48.1068 329.168 47.8985 328.543 47.6786C327.918 47.4471 327.374 47.0768 326.911 46.5676C326.448 46.0468 326.217 45.3466 326.217 44.467C326.217 43.4486 326.581 42.5748 327.31 41.8456C328.051 41.1165 329.11 40.6536 330.487 40.4568V38.5646H332.935V40.4221C334.324 40.5494 335.499 40.8851 336.459 41.429L335.227 44.3976C334.034 43.7958 332.906 43.4948 331.841 43.4948C330.788 43.4948 330.262 43.7495 330.262 44.2587C330.262 44.5017 330.418 44.6869 330.73 44.8142C331.043 44.9299 331.558 45.0572 332.275 45.1961C333.201 45.3697 333.982 45.5723 334.619 45.8037C335.255 46.0236 335.805 46.3882 336.268 46.8974C336.743 47.4066 336.98 48.101 336.98 48.9806Z" fill="#EA9B1C"/>
<path d="M50 101.37C49.7348 101.37 49.4804 101.265 49.2929 101.077C49.1054 100.89 49 100.635 49 100.37V85C49 84.7348 49.1054 84.4804 49.2929 84.2929C49.4804 84.1054 49.7348 84 50 84C50.2652 84 50.5196 84.1054 50.7071 84.2929C50.8946 84.4804 51 84.7348 51 85V100.34C51.004 100.474 50.9811 100.607 50.9327 100.732C50.8842 100.857 50.8112 100.971 50.7179 101.067C50.6247 101.163 50.5131 101.239 50.3897 101.291C50.2664 101.343 50.1339 101.37 50 101.37Z" fill="#B34F18"/>
<path d="M57.6999 93.7H42.3599C42.0946 93.7 41.8403 93.5946 41.6528 93.4071C41.4652 93.2195 41.3599 92.9652 41.3599 92.7C41.3599 92.4347 41.4652 92.1804 41.6528 91.9928C41.8403 91.8053 42.0946 91.7 42.3599 91.7H57.6999C57.9651 91.7 58.2194 91.8053 58.407 91.9928C58.5945 92.1804 58.6999 92.4347 58.6999 92.7C58.6999 92.9652 58.5945 93.2195 58.407 93.4071C58.2194 93.5946 57.9651 93.7 57.6999 93.7Z" fill="#B34F18"/>
<path d="M265.59 60.8998C265.325 60.8998 265.07 60.7944 264.883 60.6069C264.695 60.4194 264.59 60.165 264.59 59.8998V44.5398C264.59 44.2746 264.695 44.0202 264.883 43.8327C265.07 43.6452 265.325 43.5398 265.59 43.5398C265.855 43.5398 266.109 43.6452 266.297 43.8327C266.485 44.0202 266.59 44.2746 266.59 44.5398V59.8798C266.593 60.0128 266.569 60.145 266.52 60.2686C266.47 60.3923 266.397 60.5049 266.304 60.5999C266.211 60.6949 266.1 60.7703 265.977 60.8218C265.855 60.8733 265.723 60.8998 265.59 60.8998Z" fill="#B34F18"/>
<path d="M273.26 53.23H257.92C257.655 53.23 257.4 53.1246 257.213 52.9371C257.025 52.7496 256.92 52.4952 256.92 52.23C256.92 51.9648 257.025 51.7104 257.213 51.5229C257.4 51.3353 257.655 51.23 257.92 51.23H273.26C273.525 51.23 273.779 51.3353 273.967 51.5229C274.155 51.7104 274.26 51.9648 274.26 52.23C274.26 52.4952 274.155 52.7496 273.967 52.9371C273.779 53.1246 273.525 53.23 273.26 53.23Z" fill="#B34F18"/>
<path d="M436.08 203.42C435.815 203.42 435.561 203.314 435.373 203.127C435.185 202.939 435.08 202.685 435.08 202.42V187.06C435.08 186.795 435.185 186.54 435.373 186.353C435.561 186.165 435.815 186.06 436.08 186.06C436.345 186.06 436.6 186.165 436.787 186.353C436.975 186.54 437.08 186.795 437.08 187.06V202.4C437.083 202.533 437.059 202.665 437.01 202.789C436.961 202.912 436.887 203.025 436.794 203.12C436.701 203.215 436.59 203.29 436.467 203.342C436.345 203.393 436.213 203.42 436.08 203.42Z" fill="#B34F18"/>
<path d="M443.75 195.75H428.41C428.145 195.75 427.89 195.645 427.703 195.457C427.515 195.27 427.41 195.015 427.41 194.75C427.41 194.485 427.515 194.23 427.703 194.043C427.89 193.855 428.145 193.75 428.41 193.75H443.75C444.015 193.75 444.269 193.855 444.457 194.043C444.645 194.23 444.75 194.485 444.75 194.75C444.75 195.015 444.645 195.27 444.457 195.457C444.269 195.645 444.015 195.75 443.75 195.75Z" fill="#B34F18"/>
<path d="M400.83 172.77C400.663 172.77 400.503 172.703 400.384 172.585C400.266 172.467 400.2 172.307 400.2 172.14V162.67C400.2 162.503 400.266 162.342 400.384 162.224C400.503 162.106 400.663 162.04 400.83 162.04C400.997 162.04 401.157 162.106 401.275 162.224C401.394 162.342 401.46 162.503 401.46 162.67V172.14C401.46 172.307 401.394 172.467 401.275 172.585C401.157 172.703 400.997 172.77 400.83 172.77Z" fill="#B34F18"/>
<path d="M405.57 168H396.09C395.923 168 395.763 167.933 395.645 167.815C395.526 167.697 395.46 167.537 395.46 167.37C395.46 167.203 395.526 167.042 395.645 166.924C395.763 166.806 395.923 166.74 396.09 166.74H405.57C405.737 166.74 405.897 166.806 406.015 166.924C406.134 167.042 406.2 167.203 406.2 167.37C406.197 167.536 406.13 167.695 406.013 167.812C405.895 167.93 405.736 167.997 405.57 168Z" fill="#B34F18"/>
<path d="M66.08 207.35C65.9129 207.35 65.7526 207.283 65.6345 207.165C65.5163 207.047 65.45 206.887 65.45 206.72V197.24C65.45 197.073 65.5163 196.913 65.6345 196.794C65.7526 196.676 65.9129 196.61 66.08 196.61C66.247 196.61 66.4073 196.676 66.5254 196.794C66.6436 196.913 66.71 197.073 66.71 197.24V206.72C66.71 206.887 66.6436 207.047 66.5254 207.165C66.4073 207.283 66.247 207.35 66.08 207.35Z" fill="#B34F18"/>
<path d="M70.82 202.61H61.34C61.1729 202.61 61.0126 202.543 60.8945 202.425C60.7763 202.307 60.71 202.147 60.71 201.98C60.71 201.813 60.7763 201.653 60.8945 201.534C61.0126 201.416 61.1729 201.35 61.34 201.35H70.82C70.9027 201.35 70.9846 201.366 71.0611 201.398C71.1375 201.429 71.2069 201.476 71.2654 201.534C71.3239 201.593 71.3703 201.662 71.402 201.739C71.4337 201.815 71.45 201.897 71.45 201.98C71.45 202.063 71.4337 202.145 71.402 202.221C71.3703 202.297 71.3239 202.367 71.2654 202.425C71.2069 202.484 71.1375 202.53 71.0611 202.562C70.9846 202.594 70.9027 202.61 70.82 202.61Z" fill="#B34F18"/>
<path d="M415.19 92.57C433.979 92.57 449.21 81.1263 449.21 67.0099C449.21 52.8936 433.979 41.45 415.19 41.45C396.401 41.45 381.17 52.8936 381.17 67.0099C381.17 81.1263 396.401 92.57 415.19 92.57Z" fill="#D1B399"/>
<path d="M404.92 86.0298L403.61 107.23L426.09 86.0298H404.92Z" fill="#D1B399"/>
<path d="M402.43 54.8499H427.95" stroke="white" stroke-width="0.97" stroke-miterlimit="10"/>
<path d="M402.43 61.6499H427.95" stroke="white" stroke-width="0.97" stroke-miterlimit="10"/>
<path d="M402.43 68.45H427.95" stroke="white" stroke-width="0.97" stroke-miterlimit="10"/>
<path d="M402.43 75.25H427.95" stroke="white" stroke-width="0.97" stroke-miterlimit="10"/>
<path d="M41.3401 173.35C57.2238 173.35 70.1001 163.675 70.1001 151.74C70.1001 139.805 57.2238 130.13 41.3401 130.13C25.4564 130.13 12.5801 139.805 12.5801 151.74C12.5801 163.675 25.4564 173.35 41.3401 173.35Z" fill="#D1B399"/>
<path d="M50.0299 167.81L51.1299 185.74L32.1199 167.81H50.0299Z" fill="#D1B399"/>
<path d="M52.1201 141.45H30.55" stroke="white" stroke-width="0.97" stroke-miterlimit="10"/>
<path d="M52.1201 147.2H30.55" stroke="white" stroke-width="0.97" stroke-miterlimit="10"/>
<path d="M52.1201 152.95H30.55" stroke="white" stroke-width="0.97" stroke-miterlimit="10"/>
<path d="M52.1201 158.7H30.55" stroke="white" stroke-width="0.97" stroke-miterlimit="10"/>
<path d="M139.08 33.5098C138.29 31.0098 135.31 29.7198 132.41 30.6298C131.651 30.8758 130.945 31.2625 130.33 31.7698C129.784 31.0489 129.079 30.4643 128.27 30.0618C127.461 29.6592 126.569 29.4497 125.665 29.4497C124.761 29.4497 123.869 29.6592 123.06 30.0618C122.25 30.4643 121.545 31.0489 121 31.7698C120.384 31.1457 119.637 30.6672 118.812 30.3692C117.988 30.0712 117.107 29.9613 116.235 30.0476C115.363 30.1339 114.521 30.4141 113.771 30.8678C113.02 31.3215 112.381 31.9372 111.9 32.6698C110.699 32.3814 109.435 32.5475 108.349 33.136C107.264 33.7245 106.434 34.6938 106.021 35.8572C105.607 37.0206 105.639 38.2959 106.11 39.4373C106.58 40.5788 107.457 41.5058 108.57 42.0398L112.51 49.2198L130.79 44.4698L134.09 39.8698C134.487 39.8284 134.879 39.748 135.26 39.6298C138.15 38.7698 139.86 35.9998 139.08 33.5098Z" fill="#1B2536"/>
<path d="M196.46 86.7299L204.76 76.8799C204.76 76.8799 205.16 71.4199 207.76 68.4699C210.36 65.5199 212.86 64.2699 213.36 64.4699C213.86 64.6699 210.31 70.4199 210.31 70.4199C212.203 70.1848 214.016 69.5176 215.61 68.4699C217.61 66.9199 221.47 62.7699 222.67 63.3699C223.87 63.9699 224.92 70.5699 219.97 76.0799C221.025 76.0469 222.042 75.6753 222.87 75.0199C224.27 73.9299 225.12 72.9299 225.67 73.4799C226.22 74.0299 224.07 77.2299 222.67 78.0799C221.667 78.659 220.612 79.1444 219.52 79.5299C217.223 81.7464 214.275 83.1662 211.11 83.5799L206.41 94.2299L196.46 86.7299Z" fill="#BD5331"/>
<path d="M215.78 71.8098C215.78 71.8098 220.43 68.4399 222.78 64.3499" stroke="#422424" stroke-width="0.46" stroke-miterlimit="10"/>
<path d="M217.73 74C217.73 74 220.92 70.44 222.98 67.7" stroke="#422424" stroke-width="0.46" stroke-miterlimit="10"/>
<path d="M214.8 70.7998C216.343 72.2942 217.669 73.9974 218.74 75.8598" stroke="#422424" stroke-width="0.46" stroke-miterlimit="10"/>
<path d="M207.9 78.77C207.9 78.77 212.03 75.04 217.2 75.86" stroke="#422424" stroke-width="0.46" stroke-miterlimit="10"/>
<path d="M200.11 82.3899L196.46 86.7299L206.41 94.2299L209.37 87.5099L200.11 82.3899Z" fill="#28364F"/>
<path d="M159.41 78.4298L181.3 101.18L198 83.0798L211.9 95.6798C211.9 95.6798 197.5 118.68 193 125.8C188.5 132.92 176.59 135.49 167.29 125.59C158.64 116.39 145.08 100.48 145.08 100.48L140.54 69.8298L142.4 70.0398C148.873 70.7725 154.889 73.7395 159.41 78.4298Z" fill="#324B85"/>
<path d="M152.46 81.71L160.95 118.64L149.09 105.13L152.46 81.71Z" fill="#1B2536"/>
<path d="M121.69 296.64L121.36 307C121.31 308.677 121.749 310.333 122.622 311.765C123.495 313.198 124.766 314.346 126.28 315.07L135.14 319.3C137.639 320.489 139.677 322.467 140.94 324.93C141.124 325.287 141.214 325.686 141.2 326.088C141.187 326.49 141.071 326.882 140.864 327.227C140.656 327.571 140.364 327.857 140.015 328.057C139.666 328.258 139.272 328.365 138.87 328.37C129.03 328.43 103.64 328.58 103.87 328.37C104.1 328.16 106.52 317.94 107.43 314.06C107.659 313.077 107.706 312.06 107.57 311.06L105.57 296.64H121.69Z" fill="#BD5331"/>
<path d="M195.1 296.64L197.1 307.01C197.498 308.79 198.312 310.449 199.477 311.852C200.642 313.255 202.124 314.362 203.8 315.08L213.6 319.31C216.386 320.541 218.8 322.482 220.6 324.94C220.836 325.26 220.978 325.64 221.012 326.036C221.046 326.432 220.97 326.83 220.792 327.186C220.614 327.542 220.342 327.841 220.004 328.052C219.667 328.263 219.278 328.376 218.88 328.38C208.78 328.45 184.11 328.59 184.3 328.38C184.49 328.17 184.64 317.95 184.69 314.07C184.698 313.047 184.522 312.03 184.17 311.07L179 296.64H195.1Z" fill="#BD5331"/>
<path d="M158.8 147.8L200.01 301.44H174.8L128.94 168.2L125.79 301.44H102.58L96 151.07L136.69 132.1L158.8 147.8Z" fill="#142216"/>
<g style="mix-blend-mode:multiply" opacity="0.57">
<path d="M160.29 153.37L96.91 171.65L96 151.07L136.69 132.1L158.8 147.8L160.29 153.37Z" fill="#215681"/>
</g>
<path d="M132.788 143.401L131.772 143.722L180.834 299.085L181.85 298.764L132.788 143.401Z" fill="#F7EEDF"/>
<path d="M135.21 144.76L136.64 140.18L138.47 145.18C139.105 146.91 140.256 148.404 141.767 149.459C143.278 150.514 145.077 151.08 146.92 151.08H161.92L152.62 112.3L152.51 81.72C152.499 78.8179 151.422 76.0209 149.485 73.8603C147.547 71.6997 144.884 70.326 142 70L128.58 68.48H113.11L104.59 70.37C103.321 70.6509 102.122 71.1844 101.064 71.9387C100.006 72.6929 99.1106 73.6525 98.4312 74.7602C97.7519 75.8679 97.3025 77.101 97.1098 78.386C96.9172 79.6711 96.9853 80.9818 97.31 82.24L106.43 117.55C106.43 117.55 98.63 139.68 96 151.08H126.63C128.547 151.077 130.413 150.463 131.956 149.326C133.499 148.19 134.639 146.59 135.21 144.76Z" fill="#324B85"/>
<path d="M109.18 94.23L105.15 112.56L101.88 99.9L109.18 94.23Z" fill="#1B2536"/>
<path d="M102.406 151.056L101.337 151.098L107.245 301.472L108.314 301.43L102.406 151.056Z" fill="#F7EEDF"/>
<path d="M181.3 101.18L173.3 109.09" stroke="#1B2536" stroke-width="0.46" stroke-miterlimit="10"/>
<path d="M96 151.07H109.38L102.63 128.74C100.26 135.93 97.4 145 96 151.07Z" fill="#1B2536"/>
<path d="M138.41 113.53L141.41 119.26C141.803 120.005 142.043 120.822 142.115 121.662C142.187 122.502 142.09 123.348 141.83 124.15L137 138.94" stroke="#1B2536" stroke-width="0.46" stroke-miterlimit="10"/>
<path d="M136.54 122.59C137.341 122.59 137.99 121.941 137.99 121.14C137.99 120.339 137.341 119.69 136.54 119.69C135.739 119.69 135.09 120.339 135.09 121.14C135.09 121.941 135.739 122.59 136.54 122.59Z" stroke="white" stroke-width="0.46" stroke-miterlimit="10"/>
<path d="M116.38 179.01L112.54 174.3L110.28 172.74L119.76 164.37L124.54 170.39L125.6 174.68L122.65 172.64L117.31 172.07L116.38 179.01Z" fill="#142216"/>
<path d="M140.94 324.94C139.678 322.477 137.639 320.499 135.14 319.31L126.28 315.08C125.063 314.494 124.002 313.631 123.18 312.56H118.92C117.663 312.56 116.457 313.059 115.568 313.948C114.68 314.837 114.18 316.043 114.18 317.3V318L110.58 312.61H107.64C107.618 313.108 107.551 313.604 107.44 314.09C106.53 317.97 104.12 328.16 103.88 328.4C103.64 328.64 129.03 328.49 138.88 328.4C139.284 328.395 139.68 328.287 140.031 328.085C140.381 327.883 140.673 327.595 140.88 327.247C141.087 326.9 141.201 326.505 141.211 326.101C141.222 325.697 141.129 325.297 140.94 324.94Z" fill="#D97C2F"/>
<path d="M218.88 328.38C219.278 328.376 219.667 328.263 220.004 328.052C220.342 327.842 220.614 327.542 220.792 327.186C220.97 326.83 221.046 326.432 221.012 326.036C220.979 325.64 220.836 325.26 220.6 324.94C218.8 322.482 216.386 320.541 213.6 319.31L203.8 315.08C202.436 314.477 201.197 313.622 200.15 312.56H195.88C195.293 312.535 194.709 312.651 194.176 312.898C193.643 313.145 193.177 313.516 192.816 313.98C192.456 314.444 192.212 314.987 192.105 315.565C191.998 316.143 192.03 316.738 192.2 317.3L192.34 317.95L187.55 312.56H184.61C184.699 313.048 184.739 313.544 184.73 314.04C184.68 317.92 184.52 328.11 184.34 328.35C184.16 328.59 208.78 328.45 218.88 328.38Z" fill="#D97C2F"/>
<path d="M116.16 46.3198C116.16 46.3198 119.21 43.6198 118.96 40.0198C118.96 40.0198 123.71 40.7198 125.26 38.0198C126.197 38.7919 127.35 39.2546 128.56 39.3441C129.771 39.4337 130.98 39.1457 132.02 38.5198C132.616 39.1229 133.385 39.5249 134.22 39.6698V47.2198C134.22 47.2198 136.62 50.8698 135.47 54.0198C135.105 54.9659 134.554 55.8294 133.85 56.5593C133.145 57.2892 132.302 57.8708 131.37 58.2698L132.32 66.4698H116.16L116.61 49.6698L116.16 46.3198Z" fill="#BD5331"/>
<path d="M122.31 43.9998C121.994 43.9998 121.692 44.1252 121.468 44.3484C121.245 44.5715 121.12 44.8742 121.12 45.1898C121.128 45.3058 121.151 45.4202 121.19 45.5298L122.06 45.3098L121.45 45.9998C121.585 46.1449 121.754 46.254 121.941 46.3173C122.129 46.3806 122.329 46.3961 122.524 46.3623C122.72 46.3286 122.903 46.2466 123.059 46.124C123.214 46.0013 123.337 45.8418 123.415 45.6598C123.493 45.4779 123.525 45.2793 123.507 45.0821C123.489 44.8849 123.422 44.6952 123.312 44.5304C123.202 44.3655 123.053 44.2307 122.878 44.138C122.703 44.0454 122.508 43.9979 122.31 43.9998Z" fill="#1B2536"/>
<path d="M129.72 43.9998C129.404 43.9998 129.102 44.1252 128.879 44.3484C128.655 44.5715 128.53 44.8742 128.53 45.1898C128.533 45.3064 128.557 45.4214 128.6 45.5298L129.47 45.3098L128.86 45.9998C128.995 46.1449 129.164 46.254 129.351 46.3173C129.539 46.3806 129.739 46.3961 129.935 46.3623C130.13 46.3286 130.313 46.2466 130.469 46.124C130.624 46.0013 130.747 45.8418 130.825 45.6598C130.903 45.4779 130.935 45.2793 130.917 45.0821C130.899 44.8849 130.832 44.6952 130.722 44.5304C130.613 44.3655 130.463 44.2307 130.288 44.138C130.113 44.0454 129.918 43.9979 129.72 43.9998Z" fill="#1B2536"/>
<path d="M126.86 44.0898V45.5499C126.861 46.1125 127.021 46.6635 127.32 47.1398L127.83 47.9599C127.882 48.0457 127.912 48.1431 127.918 48.2435C127.923 48.3438 127.904 48.444 127.861 48.535C127.819 48.626 127.754 48.7051 127.674 48.7653C127.593 48.8255 127.499 48.8648 127.4 48.8799L125.94 49.0898" stroke="#422424" stroke-width="0.46" stroke-miterlimit="10"/>
<path d="M120.5 42C121.67 41.5426 122.97 41.5426 124.14 42" stroke="#422424" stroke-width="0.73" stroke-miterlimit="10"/>
<path d="M127.55 42C128.72 41.5426 130.02 41.5426 131.19 42" stroke="#422424" stroke-width="0.73" stroke-miterlimit="10"/>
<path d="M128.53 50.21H123.53C123.53 50.21 124.27 54.93 125.96 54.82C127.65 54.71 128.53 50.21 128.53 50.21Z" fill="#422424"/>
<path d="M125.61 52.24C125.081 52.244 124.553 52.2841 124.03 52.36C124.42 53.59 125.03 54.88 125.94 54.82C126.85 54.76 127.43 53.61 127.87 52.47C127.126 52.3196 126.369 52.2426 125.61 52.24Z" fill="#943232"/>
<path d="M128.53 58.6099C125.53 59.6099 120.16 58.8299 117.91 55.6099" stroke="#422424" stroke-width="0.46" stroke-miterlimit="10"/>
<path d="M113.92 63.8699H131.13C131.5 63.8716 131.857 64.0073 132.134 64.2518C132.412 64.4963 132.592 64.8332 132.64 65.1999L133.29 70.07L136.69 110.29L112 70.35L112.38 65.2799C112.41 64.8936 112.586 64.5331 112.872 64.2714C113.158 64.0097 113.532 63.8662 113.92 63.8699Z" fill="#FFB549"/>
<path d="M113.63 70C113.63 70 124.44 72 132.02 70" stroke="#1B2536" stroke-width="0.46" stroke-miterlimit="10"/>
<path d="M108.78 157L111.98 161.1C111.98 161.1 118.38 163.1 120.63 164.2C122.88 165.3 124.78 170.06 124.78 170.06C124.78 170.06 126.43 174.41 125.83 174.71C125.23 175.01 123.53 171.71 123.53 171.71L120.58 169.11L121.33 174.78C121.33 174.78 121.71 179.42 121.23 179.61C120.993 179.726 120.733 179.786 120.47 179.786C120.206 179.786 119.947 179.726 119.71 179.61C118.57 179.796 117.4 179.603 116.38 179.06C115.78 178.51 113.73 173.86 113.73 173.86L110.93 170.96C110.93 170.96 105.43 169.91 104.93 166.9L101.88 163L108.78 157Z" fill="#BD5331"/>
<path d="M118.14 169.63C119.174 172.637 119.721 175.79 119.76 178.97" stroke="#422424" stroke-width="0.46" stroke-miterlimit="10"/>
<path d="M115.82 172.07C115.82 172.07 117.88 176.16 118.14 178.97" stroke="#422424" stroke-width="0.46" stroke-miterlimit="10"/>
<path d="M110.04 158.62L103.94 165.6L101.88 163L108.78 157L110.04 158.62Z" fill="#28364F"/>
<path d="M102.65 70.7899L107.78 69.6499L109.78 93.3799L92.5799 126L111.88 156.71L100.08 165.61C100.08 165.61 75.6199 142.84 70.8699 132.9C65.8699 122.42 82.21 93.1299 90.41 79.5799C91.7474 77.3613 93.5222 75.4379 95.6264 73.9268C97.7306 72.4157 100.12 71.3484 102.65 70.7899Z" fill="#324B85"/>
<path d="M87.0801 117.24L92.5801 125.99" stroke="#1B2536" stroke-width="0.46" stroke-miterlimit="10"/>
<path d="M135.79 70.4099L140.44 74.0299C140.948 74.4232 141.321 74.9641 141.509 75.5783C141.697 76.1924 141.691 76.8497 141.49 77.4599L139 85.0799L144 89.3399C144.478 89.7315 144.828 90.2564 145.006 90.8476C145.184 91.4389 145.182 92.0698 145 92.6599L138.44 113.53L115.75 96.0899C115.168 95.6404 114.762 95 114.605 94.2814C114.448 93.5627 114.549 92.8116 114.89 92.1599L117.89 86.3799L108.18 79.2499C107.828 78.9918 107.533 78.6625 107.316 78.2835C107.099 77.9044 106.964 77.484 106.92 77.0494C106.876 76.6149 106.923 76.1758 107.059 75.7608C107.195 75.3457 107.417 74.9638 107.71 74.6399L111.16 70.8399" stroke="#1B2536" stroke-width="0.46" stroke-miterlimit="10"/>
<path d="M133.35 70.8398L133.95 105.85L136.69 110.29L133.35 70.8398Z" fill="#1B2536"/>
<path d="M111.25 51.4598C111.804 52.0025 112.507 52.3687 113.269 52.5121C114.031 52.6555 114.818 52.5697 115.532 52.2654C116.245 51.9611 116.852 51.452 117.276 50.8027C117.7 50.1533 117.922 49.3928 117.913 48.6173C117.905 47.8418 117.667 47.0863 117.229 46.4462C116.791 45.8062 116.173 45.3104 115.453 45.0217C114.733 44.7329 113.944 44.6641 113.185 44.8239C112.427 44.9838 111.732 45.3652 111.19 45.9198C110.829 46.287 110.545 46.7218 110.352 47.1993C110.16 47.6768 110.064 48.1875 110.07 48.7022C110.075 49.217 110.182 49.7255 110.385 50.1987C110.587 50.6719 110.881 51.1005 111.25 51.4598Z" fill="#BD5331"/>
<path d="M111.54 47.76C112.54 45.76 114.95 45.56 116.62 48.58" stroke="#422424" stroke-width="0.5" stroke-miterlimit="10"/>
<path d="M113.82 48.8098L114.16 46.3398" stroke="#422424" stroke-width="0.5" stroke-miterlimit="10"/>
</svg>
