<svg width="18" height="18" viewBox="0 0 18 18" fill="none" xmlns="http://www.w3.org/2000/svg">
<g clip-path="url(#clip0_64_1733)">
<path d="M17.6897 15.9545L14.069 12.375C15.1034 11.0455 15.6207 9.51136 15.6207 7.77273C15.6207 3.47727 12.1034 0 7.75862 0C3.51724 0 0 3.47727 0 7.77273C0 12.0682 3.51724 15.5455 7.86207 15.5455C9.51724 15.5455 11.1724 15.0341 12.4138 14.1136L16.0345 17.6932C16.2414 17.8977 16.5517 18 16.8621 18C17.1724 18 17.4828 17.8977 17.6897 17.6932C18.1035 17.1818 18.1035 16.3636 17.6897 15.9545ZM7.86207 13.0909C4.86207 13.0909 2.37931 10.6364 2.37931 7.67045C2.37931 4.70455 4.86207 2.25 7.86207 2.25C10.8621 2.25 13.3448 4.70455 13.3448 7.67045C13.2414 10.7386 10.8621 13.0909 7.86207 13.0909Z" fill="#C9C9C9"/>
</g>
<defs>
<clipPath id="clip0_64_1733">
<rect width="18" height="18" fill="white"/>
</clipPath>
</defs>
</svg>
